<?xml version="1.0" encoding="UTF-8" standalone="no"?>
<!-- Created with Inkscape (http://www.inkscape.org/) -->
<svg id="svg2" xmlns:rdf="http://www.w3.org/1999/02/22-rdf-syntax-ns#" xmlns="http://www.w3.org/2000/svg" height="297mm" width="210mm" version="1.1" xmlns:cc="http://creativecommons.org/ns#" xmlns:dc="http://purl.org/dc/elements/1.1/">
<metadata id="metadata7">
<rdf:RDF>
<cc:Work rdf:about="">
<dc:format>image/svg+xml</dc:format>
<dc:type rdf:resource="http://purl.org/dc/dcmitype/StillImage"/>
<dc:title/>
</cc:Work>
</rdf:RDF>
</metadata>
<g id="layer1" fill-rule="evenodd">
<path id="path3020" d="m48.61359,687.2078a105.5136,105.5136,0,1,1,-211.0272,0,105.5136,105.5136,0,1,1,211.0272,0z" transform="matrix(1.4607329,0,0,1.4607329,397.44676,-466.87951)" fill="#000080"/>
<path id="rect3005" fill="#FFF" d="m227.2518,436.7533,0,46.80914,28.47535,0,0-15.6195,117.2079,0,0,138.0092-117.2079,0,0-15.6195-28.47535,0,0,46.80914,174.1586,0,0-200.3885-174.1586,0zm38.17277,60.82473,0.074,18.50652-37.25977-0.14806-0.17273,41.70135,37.18575,0.14805-0.2961,18.50651c19.73637-13.53165,40.00734-26.19954,60.2572-38.9377-20.28165-12.71999-40.02184-26.28133-59.78837-39.77667z"/>
</g>
</svg>
