<?xml version="1.0" encoding="UTF-8" standalone="no"?>
<!-- Created with Inkscape (http://www.inkscape.org/) -->
<svg id="svg3201" xmlns:rdf="http://www.w3.org/1999/02/22-rdf-syntax-ns#" xmlns="http://www.w3.org/2000/svg" height="34.8275" width="40.728" version="1.1" xmlns:cc="http://creativecommons.org/ns#" xmlns:dc="http://purl.org/dc/elements/1.1/">
<metadata id="metadata3206">
<rdf:RDF>
<cc:Work rdf:about="">
<dc:format>image/svg+xml</dc:format>
<dc:type rdf:resource="http://purl.org/dc/dcmitype/StillImage"/>
<dc:title/>
</cc:Work>
</rdf:RDF>
</metadata>
<g id="layer1" transform="translate(-154.01632,-305.45742)">
<path id="_188451720" d="m157.9893,313.0847c4.972,1.3276,7.181,11.1839,5.813,15.2858l-5.813-15.2858zm-2.32-3.7016c0.913,0,1.654,0.776,1.654,1.7327,0,0.1937,0.03,0.2221,0.105,0.4004,0.569-0.672,14.16-6.0236,15.893-6.0579,1.395-0.031,2.654,0.7949,3.938,3.1252,2.775,5.0386,1.261,7.6205,7.064,6.2516,3.064-0.7216,6.451-2.0031,10.421-4.0228-2.183,3.6602-7.008,13.6571-10.904,13.4079-1.399-0.089-1.193-0.3414-2.048-1.1599-3.802-3.6366-7.56,1.2981-12.587,5.1626-1.329,1.0217-2.742,1.7859-4.736,1.9512l0.624,1.7374,2.544,7.0642c0.236,0.9791-2.016,1.9618-2.677,0.7417l-10.276-27.2102c-0.405-0.3153-0.668-0.8208-0.668-1.3913,0-0.9567,0.74-1.7327,1.653-1.7327z" fill-rule="evenodd" class="fil2" fill="#024059"/>
</g>
</svg>
