<?xml version="1.0" encoding="UTF-8" standalone="no"?>
<!-- Created with Inkscape (http://www.inkscape.org/) -->
<svg id="svg3104" xmlns:rdf="http://www.w3.org/1999/02/22-rdf-syntax-ns#" xmlns="http://www.w3.org/2000/svg" height="80" width="80" version="1.1" xmlns:cc="http://creativecommons.org/ns#" xmlns:dc="http://purl.org/dc/elements/1.1/">
<metadata id="metadata3109">
<rdf:RDF>
<cc:Work rdf:about="">
<dc:format>image/svg+xml</dc:format>
<dc:type rdf:resource="http://purl.org/dc/dcmitype/StillImage"/>
<dc:title/>
</cc:Work>
</rdf:RDF>
</metadata>
<g id="layer1" transform="translate(0,-972.36239)">
<path id="path56446" d="m9.935734,1034.499,48.4238,0c0.439355-1.8749,2.026022-5.0787,2.826153-6.8414,2.15533-4.7504,7.204678-16.6215,8.87707-21.3332h-48.02018l-4.438535,10.4654c-0.522225,1.1509-1.093744,2.4706-1.615962,3.6215l-4.437108,10.4662c-0.523645,1.1517-1.036589,2.5304-1.615244,3.6215zm8.07052-40.24902-8.07052,0,0.1635948,23.42582,7.504002-15.3763,40.75621,0,0-8.04952-20.17593,0c-0.562222-2.30099-1.733836-4.03747-4.842161-4.02561h-11.29959c-2.221042,0-3.859864,1.92543-4.035604,4.02561z" fill-rule="evenodd" class="fil11" fill="#FFF"/>
</g>
</svg>
