<?xml version="1.0" encoding="UTF-8" standalone="no"?>
<!-- Created with Inkscape (http://www.inkscape.org/) -->
<svg id="svg3127" xmlns:rdf="http://www.w3.org/1999/02/22-rdf-syntax-ns#" xmlns="http://www.w3.org/2000/svg" height="40.39972" width="40" version="1.1" xmlns:cc="http://creativecommons.org/ns#" xmlns:dc="http://purl.org/dc/elements/1.1/">
<metadata id="metadata3132">
<rdf:RDF>
<cc:Work rdf:about="">
<dc:format>image/svg+xml</dc:format>
<dc:type rdf:resource="http://purl.org/dc/dcmitype/StillImage"/>
<dc:title/>
</cc:Work>
</rdf:RDF>
</metadata>
<g id="layer1" transform="translate(-338.08026,-734.27256)">
<g id="g3135" fill-rule="evenodd" transform="matrix(0.5119987,0,0,0.5119987,261.54311,293.92702)">
<rect id="_286633504" height="78.9059" width="78.1252" y="860.0521" x="149.487" class="fil4" fill="#024059"/>
<path id="_286633336" d="m188.2812,870.4375c-0.41236,0.004-0.835,0.0102-1.25,0.0312-21.66,1.0937-33.21675,23.88895-24.71875,41.59375,8.463,17.7862,33.7845,23.07035,48.1875,6.46875,6.52-7.5177,8.81325-17.9446,5.78125-27.6875-3.81688-12.26689-15.21692-20.515-28-20.40625zm0.8125,7.75,21.5,21.84375-6.59375,0,0,19.75-1.125,1.03125-7.875,0-1.125-1.03125,0-12.84375-10.6875,0,0,12.84375-1.09375,1.03125-7.90625,0-1.09375-1.03125,0-19.75-6.59375,0,22.59375-21.84375z" fill="#FFF"/>
</g>
</g>
</svg>
