<?xml version="1.0" encoding="UTF-8" standalone="no"?>
<!-- Created with Inkscape (http://www.inkscape.org/) -->
<svg id="svg3147" xmlns:rdf="http://www.w3.org/1999/02/22-rdf-syntax-ns#" xmlns="http://www.w3.org/2000/svg" height="60" width="60" version="1.1" xmlns:cc="http://creativecommons.org/ns#" xmlns:dc="http://purl.org/dc/elements/1.1/">
<metadata id="metadata3152">
<rdf:RDF>
<cc:Work rdf:about="">
<dc:format>image/svg+xml</dc:format>
<dc:type rdf:resource="http://purl.org/dc/dcmitype/StillImage"/>
<dc:title/>
</cc:Work>
</rdf:RDF>
</metadata>
<g id="layer1" transform="translate(-251.23432,-741.12776)">
<g id="g3959" fill-rule="evenodd" transform="matrix(0.87007212,0,0,0.87007212,32.642342,104.08883)">
<circle id="_186866520" d="m 19596.679,9492.96 c 0,19.0427 -15.437,34.4799 -34.48,34.4799 -19.043,0 -34.48,-15.4372 -34.48,-34.4799 0,-19.0428 15.437,-34.4799 34.48,-34.4799 19.043,0 34.48,15.4371 34.48,34.4799 z" cx="19562.2" cy="9492.96" transform="translate(-19276.485,-8726.3121)" r="34.4799" class="fil32" fill="#FFF"/>
<path id="_186866376" d="m274.3907,763.9585-0.283,0,0,0.2835-0.284,0,0,0.5657-0.282,0,0,3.9638,0.282,0,0,0.5657,0.284,0,0,0.2835,0.565,0,0,0.2823,4.813,0,0,11.60673-0.283,0,0,0.2835-4.812,0,0,0.2822-0.283,0,0,0.2835-0.284,0,0,0.2835-0.282,0,0,4.246,0.282,0,0,0.2835,0.284,0,0,0.5657,23.213,0,0-0.2834,0.282,0,0-0.5658,0.284,0,0-4.246-0.284,0,0-0.2835-0.282,0,0-0.5657-5.097,0,0-0.2835-0.282,0,0-16.70203-0.283,0,0-0.5658-0.284,0,0-0.2834-0.282,0,0-0.2835-16.702,0,0,0.2835zm6.51-18.1169-0.849,0,0,0.5657-0.282,0,0,0.2835-0.284,0,0,9.9071,0.284,0,0,0.5669,0.282,0,0,0.2823,0.283,0,0,0.2835,10.758,0,0-0.2835,0.282,0,0-0.2823,0.284,0,0-0.2834,0.283,0,0-10.1906-0.283,0,0-0.2835-0.284,0,0-0.5657-0.849,0,0-0.2835-9.625,0,0,0.2835z" class="fil11" fill="#0a99c3"/>
</g>
</g>
</svg>
