<?xml version="1.0" encoding="UTF-8" standalone="no"?>
<!-- Created with Inkscape (http://www.inkscape.org/) -->
<svg id="svg3127" xmlns:rdf="http://www.w3.org/1999/02/22-rdf-syntax-ns#" xmlns="http://www.w3.org/2000/svg" height="40" width="40" version="1.1" xmlns:cc="http://creativecommons.org/ns#" xmlns:dc="http://purl.org/dc/elements/1.1/">
<metadata id="metadata3132">
<rdf:RDF>
<cc:Work rdf:about="">
<dc:format>image/svg+xml</dc:format>
<dc:type rdf:resource="http://purl.org/dc/dcmitype/StillImage"/>
<dc:title/>
</cc:Work>
</rdf:RDF>
</metadata>
<g id="layer1" transform="translate(-265.51091,-750.94874)">
<g id="g3143" fill-rule="evenodd" transform="matrix(0.5119987,0,0,0.50693295,84.014031,314.96001)">
<rect id="_286634800" height="78.9059" width="78.1252" y="860.0521" x="354.487" class="fil4" fill="#024059"/>
<path id="_286634704" d="m393.5938,870.2812c-16.13997,0-29.21875,13.07878-29.21875,29.21875s13.07878,29.21875,29.21875,29.21875,29.21875-13.07878,29.21875-29.21875-13.07878-29.21875-29.21875-29.21875zm-4.0938,11.3438h8.15625v0.25h0.71875v0.46875h0.25v0.25h0.25v8.625h-0.25v0.25h-0.25v0.25h-0.21875v0.21875h-9.125v-0.21875h-0.25v-0.25h-0.25v-0.5h-0.21875v-8.375h0.21875v-0.25h0.25v-0.46875h0.71875v-0.25zm-5.5,15.34375,14.15625,0,0,0.25,0.21875,0,0,0.25,0.25,0,0,0.46875,0.25,0,0,14.15625,0.21875,0,0,0.25,4.34375,0,0,0.46875,0.21875,0,0,0.25,0.25,0,0,3.59375-0.25,0,0,0.46875-0.21875,0,0,0.25-19.6875,0,0-0.46875-0.25,0,0-0.25-0.21875,0,0-3.59375,0.21875,0,0-0.25,0.25,0,0-0.25,0.25,0,0-0.21875,4.0625,0,0-0.25,0.25,0,0-9.84375-4.09375,0,0-0.21875-0.46875,0,0-0.25-0.25,0,0-0.46875-0.21875,0,0-3.375,0.21875,0,0-0.46875,0.25,0,0-0.25,0.25,0,0-0.25z" fill="#FFF"/>
</g>
</g>
</svg>
