<?xml version="1.0" encoding="UTF-8" standalone="no"?>
<!-- Created with Inkscape (http://www.inkscape.org/) -->

<svg
   xmlns:dc="http://purl.org/dc/elements/1.1/"
   xmlns:cc="http://creativecommons.org/ns#"
   xmlns:rdf="http://www.w3.org/1999/02/22-rdf-syntax-ns#"
   xmlns:svg="http://www.w3.org/2000/svg"
   xmlns="http://www.w3.org/2000/svg"
   xmlns:sodipodi="http://sodipodi.sourceforge.net/DTD/sodipodi-0.dtd"
   xmlns:inkscape="http://www.inkscape.org/namespaces/inkscape"
   id="svg3523"
   height="590.25"
   width="880"
   version="1.1"
   inkscape:version="0.48.4 r9939"
   sodipodi:docname="link3.svg"
   inkscape:export-filename="C:\Users\Leonardo\Desktop\superslides-0.6.2\examples\images\link1.png"
   inkscape:export-xdpi="90"
   inkscape:export-ydpi="90">
  <defs
     id="defs98" />
  <sodipodi:namedview
     pagecolor="#ffffff"
     bordercolor="#666666"
     borderopacity="1"
     objecttolerance="10"
     gridtolerance="10"
     guidetolerance="10"
     inkscape:pageopacity="0"
     inkscape:pageshadow="2"
     inkscape:window-width="1280"
     inkscape:window-height="958"
     id="namedview96"
     showgrid="false"
     inkscape:zoom="0.63238636"
     inkscape:cx="611.97696"
     inkscape:cy="335.46204"
     inkscape:window-x="-8"
     inkscape:window-y="-8"
     inkscape:window-maximized="1"
     inkscape:current-layer="svg3523"
     inkscape:object-nodes="true"
     fit-margin-top="0"
     fit-margin-left="0"
     fit-margin-right="0"
     fit-margin-bottom="0"
     showguides="true"
     inkscape:guide-bbox="true" />
  <metadata
     id="metadata3528">
    <rdf:RDF>
      <cc:Work
         rdf:about="">
        <dc:format>image/svg+xml</dc:format>
        <dc:type
           rdf:resource="http://purl.org/dc/dcmitype/StillImage" />
        <dc:title></dc:title>
      </cc:Work>
    </rdf:RDF>
  </metadata>
  <g
     id="g3544"
     transform="matrix(2.6668957,0,0,2.6668957,2276.9157,-3437.9794)">
    <rect
       id="rect4346"
       class="fil4"
       x="-624.07324"
       y="1362.2894"
       width="85.277122"
       height="75.011436"
       style="fill:#024059;fill-opacity:1;fill-rule:evenodd" />
    <text
       sodipodi:linespacing="125%"
       id="text4547"
       y="1395.8514"
       x="-839.34137"
       style="font-size:19.62651634px;font-style:normal;font-variant:normal;font-weight:normal;font-stretch:normal;line-height:125%;letter-spacing:0px;word-spacing:0px;fill:#ffffff;fill-opacity:1;stroke:none;font-family:Lato;-inkscape-font-specification:Lato"
       xml:space="preserve"><tspan
         y="1395.8514"
         x="-839.34137"
         id="tspan4549"
         sodipodi:role="line">3. Herramientas de</tspan><tspan
         y="1420.3846"
         x="-839.34137"
         sodipodi:role="line"
         id="tspan4555">SITESIGO</tspan></text>
    <g
       id="g4633"
       transform="matrix(0.32180494,0,0,0.32180494,-789.86082,1578.6583)">
      <path
         sodipodi:nodetypes="cccsccccccccccc"
         inkscape:connector-curvature="0"
         id="path4611"
         d="m 636.21585,-592.49676 c -18.0522,3.23094 -34.89551,39.0877 -5.43968,56.33373 l -0.29188,20.86979 c 1.60841,0.6295 3.25606,1.18605 4.93551,1.64518 3.86523,1.05664 10.71474,1.88139 13.37362,1.60538 0.58378,-0.0607 2.61576,-0.22774 4.51097,-0.35825 2.83742,-0.19542 6.74425,-1.11616 10.44153,-2.40139 l 0.30512,-20.75036 c 29.94382,-16.1528 16.38683,-51.39471 -3.7945,-56.49303 -0.21957,12.61758 4.85285,30.34207 -8.59733,32.06077 -1.45769,0.091 -2.56014,0.12674 -3.75473,0.14597 l -0.17245,0 c -1.19322,-0.0635 -2.28719,-0.13374 -3.74142,-0.27865 -13.39267,-2.21284 -7.92417,-19.74709 -7.77476,-32.3659 z"
         style="fill:#ffffff;stroke:#000000;stroke-width:0.32877985px;stroke-linecap:butt;stroke-linejoin:miter;stroke-opacity:0" />
      <path
         sodipodi:nodetypes="ccccscscsccssccscscsccsssssscssscccscscssscscssscscsscsssscsscccsccscscssssccscscscccsssssscscssccc"
         inkscape:connector-curvature="0"
         id="path4609"
         d="m 725.31029,-517.11893 c -0.3918,1.03174 -0.92023,2.12885 -1.1743,2.43803 -0.25403,0.30917 -1.76316,2.68566 -3.35361,5.28108 -1.59048,2.5954 -3.2291,5.07856 -3.64134,5.51811 -2.32833,2.48237 -5.76138,3.75107 -9.16936,3.38856 -2.14687,-0.22835 -4.50117,-1.38629 -9.91293,-4.87561 -0.97764,-0.63034 -1.98301,-1.18694 -2.23416,-1.23691 -0.25115,-0.05 -2.18186,1.37359 -4.29053,3.1634 -2.10864,1.78987 -5.6866,4.39429 -7.951,5.78759 l -4.1171,2.53333 0.46421,1.73191 c 2.71418,10.12568 2.66696,12.49462 -0.3275,16.42921 -2.00312,2.632 -3.79398,3.4398 -11.86011,5.3498 -7.29678,1.7278 -7.3915,1.73847 -10.28243,1.15666 -2.29479,-0.46168 -3.21263,-0.825 -4.29832,-1.70083 -2.76113,-2.22727 -3.49741,-3.93282 -5.56341,-12.88704 -0.51,-2.21045 -0.69086,-2.52241 -1.44219,-2.48776 -2.32044,0.10708 -9.5759,-0.84336 -13.93643,-1.82564 l -4.88431,-1.10022 -0.81829,1.35451 c -5.17684,8.56927 -6.7082,10.23111 -10.40606,11.29297 -1.69103,0.48563 -2.56503,0.49544 -4.80467,0.0541 -2.4791,-0.48918 -3.26063,-0.86684 -8.27756,-4.00668 -8.43971,-5.282 -9.37764,-6.26629 -10.2613,-10.76831 -0.64922,-3.30763 -0.19839,-4.84894 3.04002,-10.39317 1.56327,-2.67635 2.80239,-5.07489 2.75363,-5.33009 -0.0487,-0.2552 -0.82949,-1.20889 -1.73495,-2.11926 -0.90546,-0.91037 -3.47222,-4.34925 -5.70399,-7.64196 l -4.05768,-5.98675 -3.85568,0.94621 c -7.31884,1.79602 -9.46468,1.80265 -12.81001,0.0394 -3.62553,-1.91095 -4.54706,-3.67456 -6.86439,-13.13711 l -1.66011,-6.77894 0.62496,-3.09997 c 0.49981,-2.47614 0.84615,-3.37138 1.72373,-4.44906 1.79307,-2.20187 4.74927,-3.63457 10.18789,-4.93759 2.73844,-0.65605 4.97966,-1.34645 4.98048,-1.53417 0.0118,-2.67438 0.93452,-9.32395 1.90699,-13.74173 l 1.23007,-5.58797 -4.41899,-2.6514 c -6.07441,-3.64468 -7.70426,-5.55309 -8.40311,-9.83941 -0.60211,-3.69292 -0.12258,-5.00389 4.64961,-12.71187 1.38798,-2.24187 3.04987,-4.7417 3.6931,-5.55518 2.27398,-2.87596 5.86252,-4.37494 9.60795,-4.01346 1.92331,0.18562 2.64907,0.50658 7.03147,3.11135 2.68776,1.59739 5.0802,2.94284 5.31654,2.98986 0.23634,0.047 1.25635,-0.73155 2.26667,-1.73016 1.0103,-0.99861 4.52823,-3.61763 7.81754,-5.82006 l 5.98065,-4.00438 -1.29239,-5.1151 c -1.28004,-5.06617 -1.28629,-5.14669 -0.65436,-8.41689 0.60334,-3.12202 0.72636,-3.39699 2.25939,-5.05076 0.89171,-0.96194 2.18865,-2.04521 2.88207,-2.40724 1.59569,-0.8331 14.19139,-3.89513 16.50068,-4.01133 2.17972,-0.10966 4.81592,0.73282 6.53267,2.08774 2.69383,2.1261 3.48096,3.64608 5.00807,9.6704 1.17678,4.64243 1.57713,5.70778 2.1259,5.65731 1.92244,-0.17682 10.44834,1.0136 14.3259,2.00024 l 4.35632,1.10843 1.85138,-2.95306 c 4.69395,-7.48715 5.95696,-8.76482 9.69805,-9.81076 3.28451,-0.91828 5.29845,-0.51462 9.38936,1.88185 6.04879,3.54354 9.04137,5.40681 10.32587,6.4292 2.95005,2.34794 4.32731,6.3324 3.53786,10.23475 -0.46702,2.31135 -1.4948,4.29784 -5.10677,9.8765 l -1.13471,1.75252 2.40226,2.64783 c 1.32121,1.45633 3.9883,5.06269 5.92682,8.0142 l 3.52455,5.36628 5.09756,-1.23514 c 7.57929,-1.83646 11.08411,-1.25719 14.29987,2.36338 1.72803,1.94563 2.3824,3.60423 3.7732,9.5638 0.53611,2.29732 1.1591,4.83618 1.38439,5.64186 0.88559,3.16724 0.27017,7.03126 -1.59302,10.00174 -1.26857,2.02248 -4.97936,3.87256 -10.10741,5.03921 -2.65895,0.60493 -4.9469,1.22055 -5.08428,1.36805 -0.13742,0.14749 -0.28016,1.49573 -0.31709,2.9961 -0.037,1.50038 -0.67014,5.82843 -1.40698,9.61789 l -1.33979,6.88998 4.34953,2.70456 c 2.39221,1.4875 4.899,3.24922 5.57058,3.91497 1.55255,1.53896 3.0505,4.77194 3.00427,6.48392 -0.0745,2.75968 -0.15642,3.24861 -0.84969,5.07414 z m -25.60335,-34.56316 c 0.59338,-4.62382 -0.0857,-12.23401 -1.58384,-17.74991 -4.26705,-15.7101 -14.80362,-27.76946 -30.22447,-34.59267 -5.81342,-2.57226 -14.91198,-4.33351 -21.10658,-4.0857 -21.37331,0.85496 -39.25034,13.089 -47.27307,32.35096 -2.41966,5.80937 -4.11473,14.66033 -3.96861,20.72232 0.2387,9.90297 2.84674,18.67658 7.95711,26.76816 3.37162,5.33852 6.85853,9.21954 12.50391,13.91726 1.73923,1.44729 6.10961,4.03665 10.04184,5.94968 3.85707,1.87646 5.31124,2.33457 11.16025,3.51596 7.05957,1.42604 9.67654,1.56594 16.29566,0.87216 17.24218,-1.80727 33.11189,-13.01534 41.11506,-29.03766 1.92913,-3.86206 4.23505,-10.92734 4.50237,-13.7949 0.0587,-0.6296 0.31982,-2.80563 0.58036,-4.83563 z"
         style="fill:#ffffff" />
    </g>
  </g>
</svg>
