<?xml version="1.0" encoding="UTF-8" standalone="no"?>
<!-- Created with Inkscape (http://www.inkscape.org/) -->

<svg
   xmlns:dc="http://purl.org/dc/elements/1.1/"
   xmlns:cc="http://creativecommons.org/ns#"
   xmlns:rdf="http://www.w3.org/1999/02/22-rdf-syntax-ns#"
   xmlns:svg="http://www.w3.org/2000/svg"
   xmlns="http://www.w3.org/2000/svg"
   xmlns:sodipodi="http://sodipodi.sourceforge.net/DTD/sodipodi-0.dtd"
   xmlns:inkscape="http://www.inkscape.org/namespaces/inkscape"
   id="svg3523"
   height="590.25"
   width="880"
   version="1.1"
   inkscape:version="0.48.4 r9939"
   sodipodi:docname="link1.svg"
   inkscape:export-filename="C:\Users\Leonardo\Desktop\superslides-0.6.2\examples\images\link1.png"
   inkscape:export-xdpi="90"
   inkscape:export-ydpi="90">
  <defs
     id="defs98" />
  <sodipodi:namedview
     pagecolor="#ffffff"
     bordercolor="#666666"
     borderopacity="1"
     objecttolerance="10"
     gridtolerance="10"
     guidetolerance="10"
     inkscape:pageopacity="0"
     inkscape:pageshadow="2"
     inkscape:window-width="1280"
     inkscape:window-height="958"
     id="namedview96"
     showgrid="false"
     inkscape:zoom="0.35355339"
     inkscape:cx="177.97869"
     inkscape:cy="261.99483"
     inkscape:window-x="-8"
     inkscape:window-y="-8"
     inkscape:window-maximized="1"
     inkscape:current-layer="svg3523"
     inkscape:object-nodes="true"
     fit-margin-top="0"
     fit-margin-left="0"
     fit-margin-right="0"
     fit-margin-bottom="0" />
  <metadata
     id="metadata3528">
    <rdf:RDF>
      <cc:Work
         rdf:about="">
        <dc:format>image/svg+xml</dc:format>
        <dc:type
           rdf:resource="http://purl.org/dc/dcmitype/StillImage" />
        <dc:title />
      </cc:Work>
    </rdf:RDF>
  </metadata>
  <g
     id="g3176"
     transform="translate(312.81695,-72.832615)">
    <path
       style="fill:#ffffff;fill-rule:nonzero"
       inkscape:connector-curvature="0"
       class="fil12"
       d="m -270.74068,297.65402 7.53049,0 0,-23.88637 c 0,-0.71776 0.0249,-1.44234 0.0747,-2.17579 l -6.25866,5.35361 c -0.16355,0.13042 -0.32626,0.22066 -0.48897,0.27752 -0.16272,0.0565 -0.31796,0.0892 -0.4649,0.0892 -0.24407,0 -0.4649,-0.0573 -0.65999,-0.16279 -0.19592,-0.10585 -0.34203,-0.22847 -0.43999,-0.37458 l -1.36895,-1.88258 10.41533,-9.02172 h 3.54484 v 31.78345 h 6.89457 v 3.32492 h -18.77682 v -3.32492 z"
       id="path55976" />
    <path
       style="fill:#ffffff;fill-rule:nonzero"
       inkscape:connector-curvature="0"
       class="fil12"
       d="m -247.24682,298.29325 c 0,-0.42356 0.083,-0.82262 0.2366,-1.19819 0.15441,-0.37457 0.3661,-0.70008 0.63591,-0.97761 0.26897,-0.27744 0.5861,-0.49711 0.96134,-0.6599 0.37523,-0.16272 0.77455,-0.24507 1.19793,-0.24507 0.42339,0 0.82353,0.0822 1.19794,0.24507 0.37441,0.16279 0.7015,0.38246 0.97794,0.6599 0.27728,0.27753 0.49728,0.60304 0.65169,0.97761 0.15524,0.37557 0.2283,0.77463 0.2283,1.19819 0,0.44024 -0.0747,0.8393 -0.2283,1.20607 -0.15441,0.36669 -0.37441,0.69319 -0.65169,0.96972 -0.27644,0.27745 -0.60353,0.48922 -0.97794,0.64422 -0.37441,0.15491 -0.77455,0.23626 -1.19794,0.23626 -0.42338,0 -0.8227,-0.0814 -1.19793,-0.23626 -0.37524,-0.155 -0.69237,-0.36677 -0.96134,-0.64422 -0.26981,-0.27653 -0.4815,-0.60303 -0.63591,-0.96972 -0.15525,-0.36677 -0.2366,-0.76583 -0.2366,-1.20607 z"
       id="path55978" />
    <path
       style="fill:#ffffff;fill-rule:nonzero"
       inkscape:connector-curvature="0"
       class="fil12"
       d="m -220.10021,287.87459 0,13.1046 -4.71953,0 0,-35.03491 10.34311,0 c 2.21573,0 4.14754,0.25295 5.78547,0.76575 1.63793,0.51379 2.99111,1.24725 4.06618,2.19248 1.0759,0.94524 1.88283,2.08656 2.41248,3.42297 0.53048,1.33649 0.79115,2.82781 0.79115,4.47413 0,1.62962 -0.28558,3.12094 -0.8559,4.47412 -0.57033,1.3531 -1.40216,2.51791 -2.50214,3.49552 -1.09998,0.97853 -2.46893,1.73647 -4.09856,2.28264 -1.63046,0.54617 -3.49668,0.82262 -5.59868,0.82262 h -5.62358 z m 0,-3.76516 5.62358,0 c 1.35152,0 2.55029,-0.17948 3.58551,-0.53737 1.0344,-0.35888 1.89861,-0.86379 2.59927,-1.508 0.70067,-0.64422 1.23032,-1.40997 1.58978,-2.30622 0.3578,-0.89617 0.53712,-1.88258 0.53712,-2.95823 0,-2.23358 -0.68489,-3.97694 -2.06131,-5.232 -1.37726,-1.25505 -3.46431,-1.88258 -6.25037,-1.88258 h -5.62358 v 14.4244 z"
       id="path55980" />
    <polygon
       style="fill:#ffffff;fill-rule:nonzero"
       points="18789.2,9115.08 18789.2,9158.46 18783.9,9158.46 18783.9,9115.08 "
       class="fil12"
       transform="matrix(0.83017167,0,0,0.83017167,-15789.555,-7302.1112)"
       id="polygon55982" />
    <path
       style="fill:#ffffff;fill-rule:nonzero"
       inkscape:connector-curvature="0"
       class="fil12"
       d="m -165.47491,300.983 -1.93181,0 c -0.42339,0 -0.76542,-0.0648 -1.0261,-0.19509 -0.2615,-0.13042 -0.43252,-0.40794 -0.51387,-0.8315 l -0.4898,-2.29833 c -0.65169,0.58635 -1.28677,1.10795 -1.90691,1.57276 -0.61848,0.46473 -1.27099,0.85599 -1.95505,1.1737 -0.68572,0.31762 -1.40963,0.56178 -2.18501,0.72557 -0.77289,0.16271 -1.6371,0.24415 -2.5835,0.24415 -0.96051,0 -1.85792,-0.1383 -2.69723,-0.40794 -0.8393,-0.26865 -1.57234,-0.66771 -2.19165,-1.21388 -0.61931,-0.53828 -1.10911,-1.22268 -1.47521,-2.04529 -0.36694,-0.8237 -0.55456,-1.80123 -0.55456,-2.93375 0,-0.97852 0.26898,-1.92375 0.80693,-2.82781 0.53795,-0.91286 1.41046,-1.71987 2.60757,-2.42086 1.19793,-0.70108 2.76281,-1.27963 4.70292,-1.72767 1.93928,-0.44813 4.31108,-0.67659 7.11457,-0.67659 v -1.93945 c 0,-1.93945 -0.40678,-3.40636 -1.23114,-4.39277 -0.8227,-0.99422 -2.04472,-1.49132 -3.65857,-1.49132 -1.0593,0 -1.94758,0.13042 -2.67315,0.39906 -0.72557,0.26964 -1.35318,0.57066 -1.88283,0.90497 -0.52965,0.33439 -0.98625,0.63541 -1.36896,0.90505 -0.38353,0.26865 -0.76541,0.40695 -1.14065,0.40695 -0.29388,0 -0.54625,-0.0814 -0.76625,-0.23635 -0.22,-0.15491 -0.39931,-0.34219 -0.52965,-0.57066 l -0.78202,-1.39327 c 1.36895,-1.31981 2.84334,-2.30622 4.42481,-2.95824 1.58065,-0.6521 3.33314,-0.97761 5.25665,-0.97761 1.38556,0 2.61587,0.22747 3.69177,0.6844 1.07508,0.45593 1.98079,1.09134 2.71384,1.90715 0.73387,0.81481 1.28759,1.80023 1.662,2.95815 0.37524,1.15701 0.56286,2.42784 0.56286,3.81331 v 15.84325 z m -11.29532,-2.66501 c 0.76542,0 1.46691,-0.0814 2.10199,-0.23635 0.63675,-0.15491 1.23945,-0.37458 1.80148,-0.65991 0.56285,-0.28533 1.09997,-0.62752 1.61385,-1.03539 0.51222,-0.40695 1.00949,-0.87168 1.49929,-1.39336 v -5.10945 c -2.00486,0 -3.70838,0.13042 -5.10971,0.38246 -1.40216,0.25295 -2.54281,0.58726 -3.42279,0.99421 -0.88082,0.40786 -1.5159,0.89717 -1.91521,1.45114 -0.39931,0.55397 -0.6027,1.18158 -0.6027,1.86598 0,0.65982 0.10543,1.22267 0.31712,1.70309 0.2117,0.47262 0.49727,0.86388 0.85591,1.1659 0.35863,0.30102 0.78285,0.52159 1.27099,0.65982 0.4898,0.1383 1.01862,0.21186 1.58978,0.21186 z"
       id="path55984" />
    <path
       style="fill:#ffffff;fill-rule:nonzero"
       inkscape:connector-curvature="0"
       class="fil12"
       d="m -158.83354,300.983 0,-24.76692 2.5918,0 c 0.6193,0 1.01031,0.30201 1.17303,0.90505 l 0.34286,2.68951 c 1.0759,-1.1903 2.28214,-2.15222 3.60958,-2.88568 1.32911,-0.73337 2.86161,-1.10014 4.60497,-1.10014 1.35318,0 2.55111,0.22066 3.58551,0.66878 1.03522,0.44805 1.89943,1.08346 2.59262,1.90707 0.69237,0.82262 1.21372,1.81692 1.57318,2.97492 0.3578,1.15701 0.53712,2.43656 0.53712,3.83772 V 300.983 h -4.35176 v -15.76969 c 0,-1.87378 -0.42339,-3.33281 -1.27929,-4.3682 -0.85591,-1.03447 -2.16841,-1.54827 -3.92838,-1.54827 -1.28759,0 -2.48553,0.30982 -3.60211,0.92955 -1.11658,0.61872 -2.15181,1.45803 -3.09654,2.51799 V 300.983 h -4.35259 z"
       id="path55986" />
    <path
       style="fill:#ffffff;fill-rule:nonzero"
       inkscape:connector-curvature="0"
       class="fil12"
       d="m -104.78937,300.983 c -0.6193,0 -1.01114,-0.30201 -1.17386,-0.90505 l -0.39101,-3.00721 c -1.06013,1.28842 -2.26637,2.31501 -3.62702,3.08965 -1.36065,0.77355 -2.92552,1.16481 -4.68549,1.16481 -1.41793,0 -2.70553,-0.27753 -3.86279,-0.82262 -1.15809,-0.54617 -2.1435,-1.34529 -2.95873,-2.40426 -0.81523,-1.05996 -1.44284,-2.37968 -1.882,-3.96133 -0.43999,-1.58056 -0.66081,-3.39847 -0.66081,-5.45165 0,-1.82571 0.2449,-3.52889 0.73387,-5.10165 0.48897,-1.57277 1.19794,-2.93367 2.1186,-4.09068 0.92149,-1.158 2.03724,-2.07086 3.35804,-2.73076 1.31997,-0.65991 2.81926,-0.98542 4.4987,-0.98542 1.51589,0 2.81096,0.25196 3.88686,0.76575 1.07591,0.51288 2.03725,1.23845 2.88485,2.168 v -13.741 h 4.35259 V 300.983 h -2.5918 z m -8.43537,-3.17789 c 1.41876,0 2.66485,-0.32651 3.73245,-0.97853 1.06843,-0.65201 2.04555,-1.57276 2.94213,-2.76214 v -11.97996 c -0.79862,-1.07557 -1.6703,-1.83352 -2.62417,-2.26596 -0.95304,-0.43144 -2.01317,-0.64421 -3.1696,-0.64421 -2.31452,0 -4.09108,0.8237 -5.33053,2.46993 -1.23862,1.64631 -1.85792,3.99271 -1.85792,7.0411 0,1.61394 0.13947,2.99061 0.41591,4.13973 0.27728,1.14921 0.68406,2.09444 1.22285,2.8367 0.53712,0.74126 1.19793,1.28743 1.97995,1.62963 0.78203,0.34219 1.67861,0.51379 2.68893,0.51379 z"
       id="path55988" />
    <path
       style="fill:#ffffff;fill-rule:nonzero"
       inkscape:connector-curvature="0"
       class="fil12"
       d="m -85.114313,275.8205 c 1.483517,0 2.85247,0.24515 4.10769,0.74226 1.254389,0.4971 2.339424,1.21387 3.250952,2.15122 0.913189,0.93743 1.630457,2.09444 2.143503,3.47203 0.513877,1.37667 0.767079,2.94943 0.767079,4.71039 0,0.6844 -0.07472,1.14041 -0.220826,1.36887 -0.14611,0.22847 -0.423387,0.3422 -0.831832,0.3422 h -16.477247 c 0.03321,1.56487 0.24407,2.92586 0.635081,4.08287 0.391841,1.15701 0.928962,2.11884 1.613854,2.89348 0.684892,0.77363 1.49929,1.3521 2.444856,1.73547 0.944735,0.38346 2.004864,0.57855 3.178727,0.57855 1.091676,0 2.036411,-0.13042 2.827565,-0.38238 0.790323,-0.25304 1.466913,-0.52168 2.036411,-0.81581 0.571158,-0.29322 1.052657,-0.56966 1.434536,-0.8227 0.38354,-0.25295 0.708967,-0.37449 0.987074,-0.37449 0.358635,0 0.635082,0.13822 0.831002,0.41575 l 1.222843,1.58837 c -0.537951,0.6521 -1.182164,1.21487 -1.931809,1.69537 -0.749645,0.48042 -1.54827,0.88048 -2.404177,1.1903 -0.855907,0.30891 -1.744191,0.53737 -2.65738,0.69228 -0.912359,0.15491 -1.816416,0.23627 -2.713001,0.23627 -1.711814,0 -3.284159,-0.29313 -4.726998,-0.87168 -1.442008,-0.57846 -2.689756,-1.42665 -3.740753,-2.54248 -1.050997,-1.11675 -1.874528,-2.49442 -2.460629,-4.14073 -0.587761,-1.64623 -0.880812,-3.5367 -0.880812,-5.67132 0,-1.72858 0.268976,-3.34161 0.799455,-4.84173 0.52882,-1.49929 1.286766,-2.80332 2.281312,-3.90347 0.994546,-1.10014 2.208257,-1.96402 3.642793,-2.59154 1.434537,-0.62753 3.048391,-0.93735 4.840731,-0.93735 z m 0.09796,3.20338 c -2.101995,0 -3.757357,0.60296 -4.963597,1.81683 -1.205409,1.21488 -1.955884,2.90137 -2.248935,5.05268 h 13.471196 c 0,-1.00999 -0.137809,-1.93953 -0.415916,-2.77884 -0.276447,-0.8393 -0.684062,-1.56487 -1.221183,-2.17579 -0.538781,-0.61084 -1.190466,-1.08346 -1.965016,-1.41777 -0.77372,-0.33439 -1.662004,-0.49711 -2.656549,-0.49711 z"
       id="path55990" />
    <path
       style="fill:#ffffff;fill-rule:nonzero"
       inkscape:connector-curvature="0"
       class="fil12"
       d="m -28.745656,283.47468 c 0,2.62384 -0.415916,5.01142 -1.246088,7.16364 -0.831832,2.1513 -2.005695,3.99271 -3.521588,5.52521 -1.515894,1.53158 -3.332309,2.71408 -5.450907,3.55346 -2.119429,0.83931 -4.466324,1.26286 -7.042347,1.26286 h -13.103429 v -35.03491 h 13.103429 c 2.576023,0 4.922918,0.41575 7.042347,1.25506 2.118598,0.8393 3.935013,2.02869 5.450907,3.56907 1.515893,1.54039 2.689756,3.39067 3.521588,5.5419 0.830172,2.1513 1.246088,4.53979 1.246088,7.16371 z m -4.865636,0 c 0,-2.15122 -0.293051,-4.07506 -0.879152,-5.77035 -0.587762,-1.6943 -1.418764,-3.12884 -2.494666,-4.30253 -1.075072,-1.1737 -2.379272,-2.06987 -3.910939,-2.68951 -1.532497,-0.61972 -3.236009,-0.92855 -5.110537,-0.92855 h -8.336584 v 27.3574 h 8.336584 c 1.874528,0 3.57804,-0.30991 5.110537,-0.92855 1.531667,-0.61972 2.835867,-1.51589 3.910939,-2.68171 1.075902,-1.16489 1.906904,-2.59154 2.494666,-4.28684 0.586101,-1.69438 0.879152,-3.61813 0.879152,-5.76936 z"
       id="path55992" />
    <path
       style="fill:#ffffff;fill-rule:nonzero"
       inkscape:connector-curvature="0"
       class="fil12"
       d="m -13.22145,275.8205 c 1.48352,0 2.85247,0.24515 4.1076896,0.74226 1.25439,0.4971 2.33942,1.21387 3.25095,2.15122 0.91319,0.93743 1.63046,2.09444 2.14351,3.47203 0.51387,1.37667 0.76708,2.94943 0.76708,4.71039 0,0.6844 -0.0747,1.14041 -0.22083,1.36887 -0.14611,0.22847 -0.42339,0.3422 -0.83183,0.3422 H -20.48213 c 0.03321,1.56487 0.244071,2.92586 0.635081,4.08287 0.391839,1.15701 0.928959,2.11884 1.613849,2.89348 0.6849,0.77363 1.49929,1.3521 2.44486,1.73547 0.94474,0.38346 2.00486,0.57855 3.17873,0.57855 1.09167,0 2.03641,-0.13042 2.8275596,-0.38238 0.79033,-0.25304 1.46692,-0.52168 2.03641,-0.81581 0.57116,-0.29322 1.05266,-0.56966 1.43454,-0.8227 0.38354,-0.25295 0.70897,-0.37449 0.98707,-0.37449 0.35864,0 0.63509,0.13822 0.83101,0.41575 l 1.22284,1.58837 c -0.53795,0.6521 -1.18217,1.21487 -1.93181,1.69537 -0.74965,0.48042 -1.54827,0.88048 -2.40418,1.1903 -0.85591,0.30891 -1.74419,0.53737 -2.6573796,0.69228 -0.91236,0.15491 -1.81641,0.23627 -2.713,0.23627 -1.71181,0 -3.28416,-0.29313 -4.727,-0.87168 -1.442,-0.57846 -2.689752,-1.42665 -3.74075,-2.54248 -1.050997,-1.11675 -1.874527,-2.49442 -2.460629,-4.14073 -0.587761,-1.64623 -0.880812,-3.5367 -0.880812,-5.67132 0,-1.72858 0.268976,-3.34161 0.799456,-4.84173 0.528819,-1.49929 1.286766,-2.80332 2.281311,-3.90347 0.994546,-1.10014 2.208254,-1.96402 3.642794,-2.59154 1.43454,-0.62753 3.04839,-0.93735 4.84073,-0.93735 z m 0.098,3.20338 c -2.10199,0 -3.75736,0.60296 -4.9636,1.81683 -1.2054,1.21488 -1.95588,2.90137 -2.248931,5.05268 h 13.4712006 c 0,-1.00999 -0.13781,-1.93953 -0.41592,-2.77884 -0.27645,-0.8393 -0.68406,-1.56487 -1.22118,-2.17579 -0.53878,-0.61084 -1.19047,-1.08346 -1.9650196,-1.41777 -0.77372,-0.33439 -1.662,-0.49711 -2.65655,-0.49711 z"
       id="path55994" />
    <path
       style="fill:#ffffff;fill-rule:nonzero"
       inkscape:connector-curvature="0"
       class="fil12"
       d="m 16.83077,280.29513 c -0.19509,0.35888 -0.49727,0.53828 -0.90406,0.53828 -0.24407,0 -0.52135,-0.0892 -0.83183,-0.26864 -0.30965,-0.1794 -0.68406,-0.38338 -1.13235,-0.60304 -0.44747,-0.22058 -0.98625,-0.42455 -1.60556,-0.61184 -0.6193,-0.18728 -1.35235,-0.27653 -2.20078,-0.27653 -0.7330404,0 -1.3930304,0.0892 -1.9791304,0.27653 -0.58776,0.18729 -1.08504,0.44813 -1.50012,0.77464 -0.41592,0.32551 -0.73387,0.70108 -0.95387,1.13252 -0.21999,0.43235 -0.33373,0.90497 -0.33373,1.40996 0,0.63533 0.18679,1.16581 0.55373,1.58945 0.36693,0.42355 0.84843,0.79024 1.45114,1.10014 0.6027,0.30982 1.28759,0.57846 2.05301,0.81481 0.7670804,0.23627 1.5574004,0.48922 2.3643304,0.75787 0.8061,0.26872 1.58812,0.57066 2.3552,0.89625 0.76542,0.32651 1.45031,0.73337 2.05301,1.22268 0.60354,0.4893 1.09251,1.08345 1.45944,1.79242 0.36611,0.70988 0.54626,1.56487 0.54626,2.55909 0,1.14132 -0.20423,2.19248 -0.61184,3.1622 -0.40761,0.96973 -1.01032,1.80903 -1.80977,2.518 -0.7978,0.70988 -1.77657,1.27174 -2.933,1.6796 -1.15726,0.40695 -2.49384,0.61084 -4.0097304,0.61084 -1.72759,0 -3.29246,-0.28533 -4.69462,-0.84711 -1.40133,-0.56285 -2.5918,-1.27962 -3.56891003,-2.1601 l 1.02609003,-1.663 c 0.13034,-0.21178 0.28558,-0.37449 0.4649,-0.48823 0.17932,-0.11473 0.41592,-0.17159 0.70897,-0.17159 0.29305,0 0.6027,0.11473 0.92979,0.34219 0.32543,0.22847 0.72474,0.48142 1.1888,0.75795 0.4649,0.27744 1.02693,0.5304 1.68774,0.75795 0.65999,0.22838 1.48269,0.34219 2.47724,0.34219 0.8476,0 1.5889404,-0.11381 2.2240304,-0.33339 0.63674,-0.22066 1.16639,-0.5138 1.58977,-0.88837 0.42339,-0.37557 0.74135,-0.80693 0.94557,-1.29623 0.20339,-0.4893 0.30135,-1.0109 0.30135,-1.56496 0,-0.68439 -0.17931,-1.25505 -0.54542,-1.70309 -0.36694,-0.44813 -0.85674,-0.8315 -1.45944,-1.14921 -0.60271,-0.31771 -1.2876,-0.59415 -2.06215,-0.83142 -0.7737204,-0.23635 -1.5648704,-0.4805 -2.3709704,-0.74134 -0.80693,-0.26076 -1.59725,-0.56178 -2.3718,-0.89617 -0.77455,-0.33431 -1.46691,-0.75006 -2.06962,-1.25505 -0.6027,-0.505 -1.0842,-1.13252 -1.45114,-1.87478 -0.36693,-0.74126 -0.55372,-1.63743 -0.55372,-2.69739 0,-0.94524 0.19592,-1.85809 0.58693,-2.72977 0.39101,-0.87268 0.96134,-1.63843 1.71098,-2.29833 0.75048,-0.65991 1.67114,-1.1815 2.76281,-1.57276 1.09168,-0.39118 2.3386,-0.58727 3.7407604,-0.58727 1.62963,0 3.09654,0.25296 4.39161,0.76675 1.29672,0.5128 2.41331,1.22168 3.35887,2.11885 l -0.97877,1.58845 z"
       id="path55996" />
    <path
       style="fill:#ffffff;fill-rule:nonzero"
       inkscape:connector-curvature="0"
       class="fil12"
       d="m 41.98497,300.983 -1.93181,0 c -0.42339,0 -0.76542,-0.0648 -1.02609,-0.19509 -0.26151,-0.13042 -0.43252,-0.40794 -0.51388,-0.8315 l -0.4898,-2.29833 c -0.65168,0.58635 -1.28677,1.10795 -1.9069,1.57276 -0.61848,0.46473 -1.271,0.85599 -1.95506,1.1737 -0.68572,0.31762 -1.40963,0.56178 -2.18501,0.72557 -0.77289,0.16271 -1.6371,0.24415 -2.58349,0.24415 -0.96051,0 -1.85793,-0.1383 -2.69723,-0.40794 -0.83931,-0.26865 -1.57235,-0.66771 -2.19165,-1.21388 -0.61931,-0.53828 -1.10911,-1.22268 -1.47522,-2.04529 -0.36694,-0.8237 -0.55455,-1.80123 -0.55455,-2.93375 0,-0.97852 0.26897,-1.92375 0.80692,-2.82781 0.53795,-0.91286 1.41046,-1.71987 2.60757,-2.42086 1.19794,-0.70108 2.76281,-1.27963 4.70292,-1.72767 1.93929,-0.44813 4.31109,-0.67659 7.11458,-0.67659 v -1.93945 c 0,-1.93945 -0.40679,-3.40636 -1.23115,-4.39277 -0.8227,-0.99422 -2.04471,-1.49132 -3.65857,-1.49132 -1.05929,0 -1.94758,0.13042 -2.67315,0.39906 -0.72557,0.26964 -1.35318,0.57066 -1.88283,0.90497 -0.52965,0.33439 -0.98624,0.63541 -1.36895,0.90505 -0.38354,0.26865 -0.76542,0.40695 -1.14066,0.40695 -0.29388,0 -0.54625,-0.0814 -0.76625,-0.23635 -0.21999,-0.15491 -0.39931,-0.34219 -0.52964,-0.57066 l -0.78203,-1.39327 c 1.36896,-1.31981 2.84334,-2.30622 4.42482,-2.95824 1.58065,-0.6521 3.33314,-0.97761 5.25665,-0.97761 1.38555,0 2.61587,0.22747 3.69177,0.6844 1.07507,0.45593 1.98079,1.09134 2.71383,1.90715 0.73387,0.81481 1.2876,1.80023 1.662,2.95815 0.37524,1.15701 0.56286,2.42784 0.56286,3.81331 v 15.84325 z m -11.29532,-2.66501 c 0.76542,0 1.46692,-0.0814 2.102,-0.23635 0.63674,-0.15491 1.23945,-0.37458 1.80147,-0.65991 0.56286,-0.28533 1.09998,-0.62752 1.61386,-1.03539 0.51221,-0.40695 1.00948,-0.87168 1.49929,-1.39336 v -5.10945 c -2.00487,0 -3.70838,0.13042 -5.10971,0.38246 -1.40216,0.25295 -2.54282,0.58726 -3.4228,0.99421 -0.88081,0.40786 -1.51589,0.89717 -1.91521,1.45114 -0.39931,0.55397 -0.6027,1.18158 -0.6027,1.86598 0,0.65982 0.10543,1.22267 0.31713,1.70309 0.21169,0.47262 0.49727,0.86388 0.8559,1.1659 0.35864,0.30102 0.78285,0.52159 1.271,0.65982 0.4898,0.1383 1.01862,0.21186 1.58977,0.21186 z"
       id="path55998" />
    <path
       style="fill:#ffffff;fill-rule:nonzero"
       inkscape:connector-curvature="0"
       class="fil12"
       d="m 48.62634,300.983 0,-24.76692 2.49467,0 c 0.47237,0 0.79779,0.0902 0.97711,0.26964 0.17932,0.17848 0.30218,0.4883 0.36694,0.92854 l 0.29305,3.86321 c 0.84843,-1.72767 1.89943,-3.08077 3.14635,-4.05049 1.24692,-0.96973 2.70553,-1.45015 4.38413,-1.45015 0.68407,0 1.3042,0.0722 1.85793,0.22747 0.55455,0.15491 1.0676,0.37549 1.5408,0.65202 l -0.56203,3.25145 c -0.11456,0.40786 -0.36693,0.61183 -0.75795,0.61183 -0.22829,0 -0.57862,-0.0814 -1.05182,-0.23635 -0.4732,-0.15491 -1.13319,-0.22846 -1.97996,-0.22846 -1.5159,0 -2.77859,0.44024 -3.79721,1.3208 -1.01945,0.87949 -1.87536,2.15903 -2.55942,3.83772 V 300.983 h -4.35259 z"
       id="path56000" />
    <path
       style="fill:#ffffff;fill-rule:nonzero"
       inkscape:connector-curvature="0"
       class="fil12"
       d="m 68.30141,300.983 0,-24.76692 2.49467,0 c 0.47237,0 0.79779,0.0902 0.97711,0.26964 0.17932,0.17848 0.30218,0.4883 0.36694,0.92854 l 0.29305,3.86321 c 0.84843,-1.72767 1.89943,-3.08077 3.14635,-4.05049 1.24691,-0.96973 2.70553,-1.45015 4.38413,-1.45015 0.68407,0 1.3042,0.0722 1.85793,0.22747 0.55455,0.15491 1.0676,0.37549 1.5408,0.65202 l -0.56203,3.25145 c -0.11456,0.40786 -0.36694,0.61183 -0.75795,0.61183 -0.22829,0 -0.57863,-0.0814 -1.05182,-0.23635 -0.4732,-0.15491 -1.13319,-0.22846 -1.97996,-0.22846 -1.5159,0 -2.77859,0.44024 -3.79721,1.3208 -1.01945,0.87949 -1.87536,2.15903 -2.55942,3.83772 V 300.983 h -4.35259 z"
       id="path56002" />
    <path
       style="fill:#ffffff;fill-rule:nonzero"
       inkscape:connector-curvature="0"
       class="fil12"
       d="m 98.02157,275.8205 c 1.80895,0 3.44688,0.30202 4.90549,0.90505 1.45944,0.60296 2.69723,1.45895 3.71585,2.56698 1.01945,1.10794 1.80147,2.44543 2.34772,4.01819 0.54626,1.57268 0.8144,3.33273 0.8144,5.27218 0,1.95613 -0.26814,3.71618 -0.8144,5.28113 -0.54625,1.56488 -1.32827,2.90129 -2.34772,4.00932 -1.01862,1.10894 -2.25641,1.95613 -3.71585,2.55128 -1.45861,0.59515 -3.09654,0.89625 -4.90549,0.89625 -1.80977,0 -3.4394,-0.30102 -4.89884,-0.89625 -1.45778,-0.59515 -2.7047,-1.44234 -3.73162,-2.55128 -1.02775,-1.10803 -1.81808,-2.44444 -2.3718,-4.00932 -0.55373,-1.56495 -0.83183,-3.325 -0.83183,-5.28113 0,-1.93945 0.2781,-3.6995 0.83183,-5.27218 0.55372,-1.57276 1.34405,-2.91025 2.3718,-4.01819 1.02692,-1.10803 2.27384,-1.96402 3.73162,-2.56698 1.45944,-0.60303 3.08907,-0.90505 4.89884,-0.90505 z m 0,22.10183 c 2.44403,0 4.27041,-0.82262 5.47582,-2.46113 1.20624,-1.63743 1.80977,-3.92007 1.80977,-6.85381 0,-2.95035 -0.60353,-5.24769 -1.80977,-6.894 -1.20541,-1.64631 -3.03179,-2.46993 -5.47582,-2.46993 -1.23944,0 -2.31534,0.21178 -3.2277,0.63633 -0.91319,0.42364 -1.67114,1.03448 -2.28215,1.8336 -0.61017,0.79813 -1.0676,1.77665 -1.36812,2.94155 -0.30218,1.16581 -0.45742,2.48562 -0.45742,3.95245 0,1.46683 0.15524,2.77883 0.45742,3.93675 0.30052,1.15701 0.75795,2.12682 1.36812,2.91706 0.61101,0.79032 1.36896,1.40216 2.28215,1.82571 0.91236,0.42364 1.98826,0.63542 3.2277,0.63542 z"
       id="path56004" />
    <polygon
       style="fill:#ffffff;fill-rule:nonzero"
       points="19164.3,9115.08 19164.3,9158.46 19159,9158.46 19159,9115.08 "
       class="fil12"
       transform="matrix(0.83017167,0,0,0.83017167,-15789.555,-7302.1112)"
       id="polygon56006" />
    <polygon
       style="fill:#ffffff;fill-rule:nonzero"
       points="19179.3,9115.08 19179.3,9158.46 19174.1,9158.46 19174.1,9115.08 "
       class="fil12"
       transform="matrix(0.83017167,0,0,0.83017167,-15789.555,-7302.1112)"
       id="polygon56008" />
    <path
       style="fill:#ffffff;fill-rule:nonzero"
       inkscape:connector-curvature="0"
       class="fil12"
       d="m 150.32239,275.8205 c 1.80894,0 3.44687,0.30202 4.90548,0.90505 1.45945,0.60296 2.69723,1.45895 3.71585,2.56698 1.01945,1.10794 1.80147,2.44543 2.34773,4.01819 0.54625,1.57268 0.8144,3.33273 0.8144,5.27218 0,1.95613 -0.26815,3.71618 -0.8144,5.28113 -0.54626,1.56488 -1.32828,2.90129 -2.34773,4.00932 -1.01862,1.10894 -2.2564,1.95613 -3.71585,2.55128 -1.45861,0.59515 -3.09654,0.89625 -4.90548,0.89625 -1.80977,0 -3.4394,-0.30102 -4.89884,-0.89625 -1.45778,-0.59515 -2.7047,-1.44234 -3.73163,-2.55128 -1.02775,-1.10803 -1.81807,-2.44444 -2.3718,-4.00932 -0.55372,-1.56495 -0.83183,-3.325 -0.83183,-5.28113 0,-1.93945 0.27811,-3.6995 0.83183,-5.27218 0.55373,-1.57276 1.34405,-2.91025 2.3718,-4.01819 1.02693,-1.10803 2.27385,-1.96402 3.73163,-2.56698 1.45944,-0.60303 3.08907,-0.90505 4.89884,-0.90505 z m 0,22.10183 c 2.44402,0 4.2704,-0.82262 5.47581,-2.46113 1.20624,-1.63743 1.80978,-3.92007 1.80978,-6.85381 0,-2.95035 -0.60354,-5.24769 -1.80978,-6.894 -1.20541,-1.64631 -3.03179,-2.46993 -5.47581,-2.46993 -1.23945,0 -2.31535,0.21178 -3.22771,0.63633 -0.91319,0.42364 -1.67113,1.03448 -2.28214,1.8336 -0.61018,0.79813 -1.0676,1.77665 -1.36812,2.94155 -0.30219,1.16581 -0.45743,2.48562 -0.45743,3.95245 0,1.46683 0.15524,2.77883 0.45743,3.93675 0.30052,1.15701 0.75794,2.12682 1.36812,2.91706 0.61101,0.79032 1.36895,1.40216 2.28214,1.82571 0.91236,0.42364 1.98826,0.63542 3.22771,0.63542 z"
       id="path56010" />
    <g
       style="fill:#ffffff;fill-rule:nonzero"
       transform="matrix(0.83017167,0,0,0.83017167,-15789.555,-7302.1112)"
       id="_186872568">
      <path
         style="fill:#ffffff"
         inkscape:connector-curvature="0"
         class="fil12"
         d="m 18738.8,9223.11 -1.569,0 c -0.343,0 -0.622,-0.053 -0.833,-0.1583 -0.212,-0.1063 -0.351,-0.3319 -0.417,-0.6756 l -0.397,-1.8661 c -0.53,0.476 -1.047,0.9 -1.55,1.2768 -0.502,0.3779 -1.032,0.6956 -1.587,0.9531 -0.556,0.2587 -1.146,0.4571 -1.774,0.5894 -0.63,0.1323 -1.331,0.1984 -2.099,0.1984 -0.781,0 -1.508,-0.1122 -2.191,-0.3307 -0.681,-0.2185 -1.277,-0.5433 -1.78,-0.9862 -0.503,-0.437 -0.9,-0.9933 -1.197,-1.6618 -0.298,-0.6685 -0.45,-1.4622 -0.45,-2.3823 0,-0.7949 0.218,-1.5626 0.654,-2.2972 0.437,-0.7406 1.146,-1.3961 2.119,-1.9654 0.972,-0.5693 2.243,-1.0394 3.818,-1.4031 1.576,-0.3638 3.502,-0.5493 5.778,-0.5493 v -1.5755 c 0,-1.5756 -0.331,-2.7662 -0.999,-3.567 -0.669,-0.8078 -1.662,-1.2118 -2.972,-1.2118 -0.861,0 -1.581,0.1063 -2.171,0.3248 -0.589,0.2185 -1.098,0.463 -1.529,0.7347 -0.43,0.2716 -0.801,0.5161 -1.111,0.7346 -0.311,0.2185 -0.623,0.3307 -0.928,0.3307 -0.237,0 -0.443,-0.066 -0.621,-0.1913 -0.179,-0.1264 -0.325,-0.2788 -0.431,-0.4642 l -0.635,-1.1315 c 1.112,-1.0724 2.31,-1.8732 3.594,-2.4024 1.284,-0.5303 2.707,-0.7948 4.269,-0.7948 1.125,0 2.125,0.1854 2.998,0.5563 0.874,0.3708 1.609,0.887 2.204,1.5484 0.596,0.6626 1.046,1.4634 1.351,2.4035 0.304,0.939 0.456,1.9713 0.456,3.0969 v 12.8669 z m -9.174,-2.1638 c 0.623,0 1.192,-0.066 1.708,-0.1925 0.516,-0.1252 1.007,-0.3047 1.464,-0.5362 0.456,-0.2315 0.893,-0.5091 1.309,-0.841 0.417,-0.3307 0.821,-0.7074 1.218,-1.1315 v -4.1492 c -1.627,0 -3.012,0.1051 -4.149,0.3107 -1.139,0.2055 -2.066,0.4759 -2.78,0.8078 -0.715,0.3307 -1.231,0.7276 -1.556,1.1776 -0.323,0.45 -0.49,0.9602 -0.49,1.5153 0,0.5363 0.09,0.9933 0.259,1.3843 0.172,0.3838 0.404,0.7016 0.694,0.9461 0.292,0.2444 0.636,0.424 1.034,0.5362 0.396,0.1122 0.826,0.1724 1.289,0.1724 z"
         id="_186873048" />
      <path
         style="fill:#ffffff"
         inkscape:connector-curvature="0"
         class="fil12"
         d="m 18743,9220.93 c 0,-0.3449 0.07,-0.6685 0.193,-0.9732 0.125,-0.3048 0.297,-0.5693 0.516,-0.7937 0.218,-0.2256 0.476,-0.404 0.78,-0.5362 0.305,-0.1323 0.63,-0.1997 0.974,-0.1997 0.343,0 0.668,0.067 0.973,0.1997 0.305,0.1322 0.569,0.3106 0.794,0.5362 0.225,0.2244 0.403,0.4889 0.53,0.7937 0.125,0.3047 0.184,0.6283 0.184,0.9732 0,0.3567 -0.06,0.6815 -0.184,0.9791 -0.127,0.2977 -0.305,0.5622 -0.53,0.7878 -0.225,0.2244 -0.489,0.3969 -0.794,0.5233 -0.305,0.1252 -0.63,0.1913 -0.973,0.1913 -0.344,0 -0.669,-0.066 -0.974,-0.1913 -0.304,-0.1264 -0.562,-0.2989 -0.78,-0.5233 -0.219,-0.2256 -0.391,-0.4901 -0.516,-0.7878 -0.127,-0.2976 -0.193,-0.6224 -0.193,-0.9791 z"
         id="_1868730481" />
      <path
         style="fill:#ffffff"
         inkscape:connector-curvature="0"
         class="fil12"
         d="m 18787.2,9208.89 c 0,2.1307 -0.337,4.0842 -1.012,5.8642 -0.676,1.7799 -1.629,3.3153 -2.86,4.6004 -1.23,1.2838 -2.707,2.2759 -4.435,2.9846 -1.726,0.7087 -3.64,1.0654 -5.73,1.0654 -2.092,0 -3.998,-0.3567 -5.719,-1.0654 -1.721,-0.7087 -3.198,-1.7008 -4.428,-2.9846 -1.231,-1.2851 -2.184,-2.8205 -2.86,-4.6004 -0.675,-1.78 -1.012,-3.7335 -1.012,-5.8642 0,-2.1307 0.337,-4.0902 1.012,-5.8713 0.676,-1.7799 1.629,-3.3153 2.86,-4.6063 1.23,-1.2909 2.707,-2.2901 4.428,-3.0047 1.721,-0.7145 3.627,-1.0724 5.719,-1.0724 2.09,0 4.004,0.3579 5.73,1.0724 1.728,0.7146 3.205,1.7138 4.435,3.0047 1.231,1.291 2.184,2.8264 2.86,4.6063 0.675,1.7811 1.012,3.7406 1.012,5.8713 z m -3.951,0 c 0,-1.7468 -0.238,-3.3165 -0.714,-4.7055 -0.478,-1.3902 -1.152,-2.5689 -2.026,-3.528 -0.874,-0.9602 -1.932,-1.6948 -3.177,-2.211 -1.245,-0.5161 -2.634,-0.7748 -4.169,-0.7748 -1.523,0 -2.907,0.2587 -4.151,0.7748 -1.245,0.5162 -2.303,1.2508 -3.183,2.211 -0.881,0.9591 -1.562,2.1378 -2.038,3.528 -0.478,1.389 -0.716,2.9587 -0.716,4.7055 0,1.7468 0.238,3.3095 0.716,4.6925 0.476,1.3831 1.157,2.5547 2.038,3.515 0.88,0.959 1.938,1.6937 3.183,2.2039 1.244,0.5091 2.628,0.7677 4.151,0.7677 1.535,0 2.924,-0.2586 4.169,-0.7677 1.245,-0.5102 2.303,-1.2449 3.177,-2.2039 0.874,-0.9603 1.548,-2.1319 2.026,-3.515 0.476,-1.383 0.714,-2.9456 0.714,-4.6925 z"
         id="_18687304812" />
      <path
         style="fill:#ffffff"
         inkscape:connector-curvature="0"
         class="fil12"
         d="m 18792,9223.11 0,-29.2476 3.555,0 0,12.0319 c 0.834,-0.9661 1.793,-1.7468 2.873,-2.3362 1.078,-0.5882 2.309,-0.8799 3.699,-0.8799 1.164,0 2.217,0.2185 3.157,0.6555 0.94,0.437 1.741,1.0854 2.402,1.9523 0.663,0.867 1.172,1.9394 1.53,3.2162 0.358,1.2779 0.536,2.7543 0.536,4.422 0,1.4823 -0.198,2.8595 -0.596,4.1362 -0.397,1.278 -0.967,2.3823 -1.714,3.3166 -0.748,0.9331 -1.661,1.6677 -2.74,2.2039 -1.079,0.5362 -2.296,0.8067 -3.648,0.8067 -1.297,0 -2.395,-0.2516 -3.302,-0.7535 -0.907,-0.5032 -1.701,-1.2047 -2.376,-2.1047 l -0.179,1.8259 c -0.106,0.5032 -0.41,0.7548 -0.913,0.7548 H 18792 z m 8.975,-17.6126 c -1.151,0 -2.158,0.2646 -3.025,0.7949 -0.867,0.5291 -1.667,1.2768 -2.395,2.2429 v 9.7299 c 0.636,0.874 1.343,1.4894 2.118,1.8461 0.773,0.3578 1.634,0.5362 2.588,0.5362 1.879,0 3.322,-0.6685 4.328,-2.0055 1.007,-1.337 1.51,-3.2421 1.51,-5.7177 0,-1.3111 -0.114,-2.4366 -0.345,-3.3756 -0.232,-0.9402 -0.569,-1.715 -1.006,-2.3173 -0.437,-0.6024 -0.972,-1.0382 -1.608,-1.317 -0.635,-0.2775 -1.357,-0.4169 -2.165,-0.4169 z"
         id="_186873048123" />
      <path
         style="fill:#ffffff"
         inkscape:connector-curvature="0"
         class="fil12"
         d="m 18818,9203 0,21.6035 c 0,0.8079 -0.106,1.5555 -0.318,2.25 -0.211,0.6957 -0.542,1.3039 -0.999,1.8201 -0.457,0.5161 -1.045,0.9201 -1.767,1.2177 -0.722,0.2976 -1.588,0.45 -2.595,0.45 -0.437,0 -0.834,-0.033 -1.191,-0.099 -0.357,-0.066 -0.715,-0.1654 -1.072,-0.2977 l 0.159,-1.8992 c 0.03,-0.1724 0.09,-0.2846 0.178,-0.3307 0.09,-0.047 0.238,-0.066 0.437,-0.066 h 0.338 0.437 c 1.032,0 1.767,-0.2386 2.204,-0.7217 0.437,-0.483 0.655,-1.2649 0.655,-2.3362 v -21.5906 h 3.534 z m 0.795,-6.3142 c 0,0.3437 -0.07,0.6614 -0.206,0.9591 -0.139,0.2988 -0.324,0.5634 -0.556,0.7949 -0.231,0.2315 -0.503,0.4169 -0.807,0.5492 -0.304,0.1323 -0.629,0.1984 -0.973,0.1984 -0.345,0 -0.662,-0.066 -0.96,-0.1984 -0.298,-0.1323 -0.562,-0.3177 -0.794,-0.5492 -0.231,-0.2315 -0.417,-0.4961 -0.549,-0.7949 -0.132,-0.2977 -0.2,-0.6154 -0.2,-0.9591 0,-0.3449 0.07,-0.6756 0.2,-0.9862 0.132,-0.3106 0.318,-0.5823 0.549,-0.8138 0.232,-0.2315 0.496,-0.411 0.794,-0.5433 0.298,-0.1323 0.615,-0.1984 0.96,-0.1984 0.344,0 0.669,0.066 0.973,0.1984 0.304,0.1323 0.576,0.3118 0.807,0.5433 0.232,0.2315 0.417,0.5032 0.556,0.8138 0.14,0.3106 0.206,0.6413 0.206,0.9862 z"
         id="_1868730481234" />
      <path
         style="fill:#ffffff"
         inkscape:connector-curvature="0"
         class="fil12"
         d="m 18832.2,9202.68 c 1.205,0 2.316,0.1984 3.335,0.6024 1.02,0.4039 1.901,0.9862 2.641,1.7468 0.742,0.7618 1.324,1.702 1.741,2.8205 0.417,1.1185 0.623,2.3953 0.623,3.8256 0,0.5551 -0.06,0.926 -0.18,1.1114 -0.118,0.1854 -0.343,0.2776 -0.674,0.2776 h -13.383 c 0.03,1.2708 0.198,2.3763 0.516,3.3165 0.318,0.9401 0.755,1.7209 1.311,2.3492 0.555,0.6295 1.218,1.0984 1.985,1.4102 0.768,0.3107 1.628,0.4701 2.581,0.4701 0.887,0 1.655,-0.1063 2.297,-0.3118 0.642,-0.2043 1.191,-0.4228 1.655,-0.6614 0.463,-0.2386 0.854,-0.463 1.165,-0.6685 0.31,-0.2055 0.575,-0.3047 0.8,-0.3047 0.292,0 0.516,0.1122 0.676,0.3378 l 0.992,1.2909 c -0.437,0.5291 -0.959,0.9862 -1.568,1.376 -0.609,0.3909 -1.258,0.7157 -1.953,0.9673 -0.694,0.2504 -1.416,0.4358 -2.158,0.5622 -0.741,0.1252 -1.476,0.1913 -2.204,0.1913 -1.39,0 -2.667,-0.2374 -3.838,-0.7074 -1.172,-0.4701 -2.184,-1.1587 -3.038,-2.0658 -0.854,-0.9059 -1.522,-2.0244 -2,-3.3614 -0.476,-1.337 -0.714,-2.8724 -0.714,-4.6075 0,-1.4031 0.218,-2.713 0.648,-3.9307 0.43,-1.2177 1.047,-2.2772 1.853,-3.1713 0.808,-0.8929 1.794,-1.5944 2.959,-2.1047 1.165,-0.509 2.476,-0.7606 3.932,-0.7606 z m 0.08,2.6008 c -1.708,0 -3.051,0.4901 -4.031,1.4764 -0.979,0.9862 -1.589,2.3563 -1.826,4.1031 h 10.941 c 0,-0.8208 -0.113,-1.5744 -0.338,-2.2571 -0.225,-0.6815 -0.556,-1.2708 -0.992,-1.7669 -0.437,-0.4961 -0.968,-0.8799 -1.596,-1.1516 -0.628,-0.2716 -1.35,-0.4039 -2.158,-0.4039 z"
         id="_18687304812345" />
      <path
         style="fill:#ffffff"
         inkscape:connector-curvature="0"
         class="fil12"
         d="m 18851.1,9223.43 c -1.589,0 -2.806,-0.4429 -3.66,-1.3299 -0.854,-0.887 -1.284,-2.165 -1.284,-3.8327 v -12.3106 h -2.423 c -0.212,0 -0.39,-0.066 -0.536,-0.1925 -0.146,-0.1252 -0.218,-0.3177 -0.218,-0.5823 v -1.4091 l 3.295,-0.4169 0.815,-6.215 c 0.03,-0.1996 0.112,-0.3649 0.257,-0.4901 0.147,-0.1264 0.331,-0.1854 0.557,-0.1854 h 1.787 v 6.9295 h 5.758 v 2.5618 h -5.758 v 12.072 c 0,0.848 0.205,1.4764 0.615,1.8862 0.411,0.411 0.94,0.6166 1.589,0.6166 0.371,0 0.694,-0.053 0.966,-0.1524 0.271,-0.099 0.503,-0.2055 0.701,-0.3248 0.199,-0.1193 0.371,-0.2315 0.511,-0.3307 0.138,-0.099 0.257,-0.1453 0.363,-0.1453 0.186,0 0.351,0.1122 0.496,0.3366 l 1.033,1.6878 c -0.608,0.5693 -1.343,1.0134 -2.204,1.337 -0.86,0.3248 -1.747,0.4902 -2.66,0.4902 z"
         id="_186873048123456" />
      <path
         style="fill:#ffffff"
         inkscape:connector-curvature="0"
         class="fil12"
         d="m 18863.7,9203 0,20.1142 -3.534,0 0,-20.1142 3.534,0 z m 0.795,-6.3142 c 0,0.3437 -0.07,0.6614 -0.206,0.9591 -0.139,0.2988 -0.324,0.5634 -0.556,0.7949 -0.231,0.2315 -0.503,0.4169 -0.807,0.5492 -0.304,0.1323 -0.629,0.1984 -0.973,0.1984 -0.345,0 -0.662,-0.066 -0.96,-0.1984 -0.298,-0.1323 -0.562,-0.3177 -0.794,-0.5492 -0.231,-0.2315 -0.417,-0.4961 -0.549,-0.7949 -0.132,-0.2977 -0.2,-0.6154 -0.2,-0.9591 0,-0.3449 0.07,-0.6756 0.2,-0.9862 0.132,-0.3106 0.318,-0.5823 0.549,-0.8138 0.232,-0.2315 0.496,-0.411 0.794,-0.5433 0.298,-0.1323 0.615,-0.1984 0.96,-0.1984 0.344,0 0.669,0.066 0.973,0.1984 0.304,0.1323 0.576,0.3118 0.807,0.5433 0.232,0.2315 0.417,0.5032 0.556,0.8138 0.14,0.3106 0.206,0.6413 0.206,0.9862 z"
         id="_1868730481234567" />
      <path
         style="fill:#ffffff"
         inkscape:connector-curvature="0"
         class="fil12"
         d="m 18867.4,9203 2.898,0 c 0.278,0 0.511,0.073 0.695,0.2185 0.185,0.1453 0.318,0.3177 0.398,0.5161 l 5.102,12.9461 c 0.186,0.4772 0.331,0.9532 0.437,1.4304 0.107,0.4759 0.206,0.946 0.298,1.409 0.106,-0.463 0.218,-0.9331 0.338,-1.409 0.119,-0.4772 0.271,-0.9532 0.457,-1.4304 l 5.162,-12.9461 c 0.08,-0.2114 0.212,-0.3909 0.39,-0.5291 0.18,-0.1394 0.398,-0.2055 0.663,-0.2055 h 2.76 l -8.202,20.1142 h -3.196 L 18867.4,9203 z"
         id="_18687304812345678" />
      <path
         style="fill:#ffffff"
         inkscape:connector-curvature="0"
         class="fil12"
         d="m 18897.9,9202.68 c 1.469,0 2.8,0.2445 3.985,0.7346 1.185,0.4902 2.191,1.1847 3.018,2.0847 0.828,0.9 1.462,1.9854 1.906,3.2634 0.443,1.2768 0.661,2.7071 0.661,4.2827 0,1.5874 -0.218,3.0177 -0.661,4.2885 -0.444,1.2709 -1.078,2.3563 -1.906,3.2563 -0.827,0.9 -1.833,1.5886 -3.018,2.0717 -1.185,0.4831 -2.516,0.7276 -3.985,0.7276 -1.469,0 -2.793,-0.2445 -3.978,-0.7276 -1.185,-0.4831 -2.197,-1.1717 -3.031,-2.0717 -0.834,-0.9 -1.476,-1.9854 -1.926,-3.2563 -0.45,-1.2708 -0.676,-2.7011 -0.676,-4.2885 0,-1.5756 0.226,-3.0059 0.676,-4.2827 0.45,-1.278 1.092,-2.3634 1.926,-3.2634 0.834,-0.9 1.846,-1.5945 3.031,-2.0847 1.185,-0.4901 2.509,-0.7346 3.978,-0.7346 z m 0,17.9504 c 1.985,0 3.469,-0.6685 4.448,-1.9996 0.979,-1.3299 1.469,-3.1831 1.469,-5.5665 0,-2.3953 -0.49,-4.2615 -1.469,-5.5985 -0.979,-1.337 -2.463,-2.0055 -4.448,-2.0055 -1.006,0 -1.879,0.1713 -2.621,0.5162 -0.742,0.3437 -1.357,0.8397 -1.853,1.4893 -0.496,0.6484 -0.867,1.4422 -1.111,2.3894 -0.246,0.9461 -0.371,2.0185 -0.371,3.2091 0,1.1917 0.125,2.257 0.371,3.1972 0.244,0.9401 0.615,1.7279 1.111,2.3693 0.496,0.6425 1.111,1.1386 1.853,1.4823 0.742,0.3448 1.615,0.5173 2.621,0.5173 z"
         id="_186873048123456789" />
      <path
         style="fill:#ffffff"
         inkscape:connector-curvature="0"
         class="fil12"
         d="m 18923.4,9206.31 c -0.158,0.2917 -0.404,0.437 -0.735,0.437 -0.198,0 -0.424,-0.072 -0.674,-0.2185 -0.252,-0.1453 -0.556,-0.3106 -0.92,-0.489 -0.365,-0.1795 -0.801,-0.3449 -1.304,-0.4972 -0.503,-0.1512 -1.1,-0.2244 -1.787,-0.2244 -0.597,0 -1.133,0.073 -1.609,0.2244 -0.477,0.1523 -0.88,0.3649 -1.217,0.6295 -0.338,0.2646 -0.597,0.5693 -0.775,0.9201 -0.179,0.3508 -0.272,0.7346 -0.272,1.1445 0,0.5161 0.152,0.9472 0.45,1.2909 0.299,0.3437 0.689,0.6425 1.179,0.8929 0.49,0.2516 1.045,0.4701 1.668,0.6626 0.622,0.1914 1.263,0.3969 1.919,0.6154 0.655,0.2185 1.291,0.463 1.913,0.7275 0.621,0.2658 1.178,0.5965 1.668,0.9934 0.49,0.3968 0.887,0.8799 1.185,1.4563 0.297,0.5751 0.443,1.2708 0.443,2.0775 0,0.9272 -0.166,1.7811 -0.497,2.5689 -0.33,0.7878 -0.82,1.4693 -1.469,2.0445 -0.648,0.5764 -1.443,1.0335 -2.382,1.3642 -0.94,0.3307 -2.026,0.496 -3.256,0.496 -1.404,0 -2.674,-0.2315 -3.813,-0.6885 -1.139,-0.456 -2.105,-1.0394 -2.9,-1.754 l 0.834,-1.35 c 0.107,-0.1724 0.233,-0.3047 0.378,-0.3968 0.145,-0.093 0.338,-0.1394 0.575,-0.1394 0.239,0 0.491,0.093 0.755,0.2776 0.265,0.1854 0.589,0.3909 0.966,0.6165 0.378,0.2244 0.834,0.4299 1.37,0.6153 0.537,0.1855 1.205,0.2776 2.013,0.2776 0.688,0 1.291,-0.092 1.807,-0.2717 0.516,-0.1783 0.946,-0.4169 1.29,-0.7204 0.345,-0.3048 0.602,-0.6555 0.769,-1.0524 0.165,-0.398 0.244,-0.8209 0.244,-1.2709 0,-0.5563 -0.145,-1.0192 -0.444,-1.3842 -0.298,-0.3638 -0.694,-0.6744 -1.185,-0.9331 -0.489,-0.2575 -1.045,-0.483 -1.673,-0.6744 -0.63,-0.1925 -1.271,-0.3909 -1.927,-0.6023 -0.655,-0.2126 -1.296,-0.4571 -1.926,-0.7288 -0.628,-0.2705 -1.192,-0.6083 -1.681,-1.0193 -0.49,-0.4098 -0.881,-0.9201 -1.178,-1.5224 -0.298,-0.6024 -0.45,-1.3299 -0.45,-2.1898 0,-0.7677 0.159,-1.5094 0.477,-2.2181 0.317,-0.7075 0.78,-1.3299 1.39,-1.8661 0.608,-0.5362 1.356,-0.9603 2.243,-1.278 0.887,-0.3177 1.9,-0.476 3.038,-0.476 1.324,0 2.515,0.2055 3.568,0.6225 1.052,0.4169 1.959,0.9921 2.727,1.7208 l -0.795,1.2898 z"
         id="_18687304812345678910" />
      <path
         style="fill:#ffffff"
         inkscape:connector-curvature="0"
         class="fil12"
         d="m 18942.7,9229.05 c -0.118,0.2646 -0.265,0.476 -0.443,0.6354 -0.178,0.1583 -0.457,0.2374 -0.827,0.2374 h -2.622 l 3.675,-7.9819 -8.301,-18.9425 h 3.058 c 0.304,0 0.543,0.073 0.716,0.2245 0.171,0.1523 0.297,0.3248 0.376,0.5102 l 5.381,12.6685 c 0.12,0.2905 0.225,0.5823 0.311,0.8728 0.09,0.2918 0.159,0.5894 0.226,0.8941 0.09,-0.3047 0.185,-0.6023 0.277,-0.8941 0.09,-0.2905 0.199,-0.5882 0.318,-0.8929 l 5.223,-12.6484 c 0.08,-0.2114 0.217,-0.3909 0.41,-0.5291 0.192,-0.1394 0.396,-0.2055 0.622,-0.2055 h 2.819 l -11.219,26.0516 z"
         id="_1868730481234567891011" />
      <path
         style="fill:#ffffff"
         inkscape:connector-curvature="0"
         class="fil12"
         d="m 18972.7,9202.68 c 1.205,0 2.316,0.1984 3.335,0.6024 1.02,0.4039 1.901,0.9862 2.641,1.7468 0.742,0.7618 1.324,1.702 1.741,2.8205 0.417,1.1185 0.623,2.3953 0.623,3.8256 0,0.5551 -0.06,0.926 -0.18,1.1114 -0.118,0.1854 -0.343,0.2776 -0.674,0.2776 h -13.383 c 0.03,1.2708 0.198,2.3763 0.516,3.3165 0.318,0.9401 0.755,1.7209 1.311,2.3492 0.555,0.6295 1.218,1.0984 1.985,1.4102 0.768,0.3107 1.628,0.4701 2.581,0.4701 0.887,0 1.655,-0.1063 2.297,-0.3118 0.642,-0.2043 1.191,-0.4228 1.655,-0.6614 0.463,-0.2386 0.854,-0.463 1.165,-0.6685 0.31,-0.2055 0.575,-0.3047 0.8,-0.3047 0.292,0 0.516,0.1122 0.676,0.3378 l 0.992,1.2909 c -0.437,0.5291 -0.959,0.9862 -1.568,1.376 -0.609,0.3909 -1.258,0.7157 -1.953,0.9673 -0.694,0.2504 -1.416,0.4358 -2.158,0.5622 -0.741,0.1252 -1.476,0.1913 -2.204,0.1913 -1.39,0 -2.667,-0.2374 -3.838,-0.7074 -1.172,-0.4701 -2.184,-1.1587 -3.038,-2.0658 -0.854,-0.9059 -1.522,-2.0244 -2,-3.3614 -0.476,-1.337 -0.714,-2.8724 -0.714,-4.6075 0,-1.4031 0.218,-2.713 0.648,-3.9307 0.43,-1.2177 1.047,-2.2772 1.853,-3.1713 0.808,-0.8929 1.794,-1.5944 2.959,-2.1047 1.165,-0.509 2.476,-0.7606 3.932,-0.7606 z m 0.08,2.6008 c -1.708,0 -3.051,0.4901 -4.031,1.4764 -0.979,0.9862 -1.589,2.3563 -1.826,4.1031 h 10.941 c 0,-0.8208 -0.113,-1.5744 -0.338,-2.2571 -0.225,-0.6815 -0.556,-1.2708 -0.992,-1.7669 -0.437,-0.4961 -0.968,-0.8799 -1.596,-1.1516 -0.628,-0.2716 -1.35,-0.4039 -2.158,-0.4039 z"
         id="_186873048123456789101112" />
      <path
         style="fill:#ffffff"
         inkscape:connector-curvature="0"
         class="fil12"
         d="m 18997.1,9206.31 c -0.158,0.2917 -0.404,0.437 -0.735,0.437 -0.198,0 -0.424,-0.072 -0.674,-0.2185 -0.252,-0.1453 -0.556,-0.3106 -0.92,-0.489 -0.365,-0.1795 -0.801,-0.3449 -1.304,-0.4972 -0.503,-0.1512 -1.1,-0.2244 -1.787,-0.2244 -0.597,0 -1.133,0.073 -1.609,0.2244 -0.477,0.1523 -0.88,0.3649 -1.217,0.6295 -0.338,0.2646 -0.597,0.5693 -0.775,0.9201 -0.179,0.3508 -0.272,0.7346 -0.272,1.1445 0,0.5161 0.152,0.9472 0.45,1.2909 0.299,0.3437 0.689,0.6425 1.179,0.8929 0.49,0.2516 1.045,0.4701 1.668,0.6626 0.622,0.1914 1.263,0.3969 1.919,0.6154 0.655,0.2185 1.291,0.463 1.913,0.7275 0.621,0.2658 1.178,0.5965 1.668,0.9934 0.49,0.3968 0.887,0.8799 1.185,1.4563 0.297,0.5751 0.443,1.2708 0.443,2.0775 0,0.9272 -0.166,1.7811 -0.497,2.5689 -0.33,0.7878 -0.82,1.4693 -1.469,2.0445 -0.648,0.5764 -1.443,1.0335 -2.382,1.3642 -0.94,0.3307 -2.026,0.496 -3.256,0.496 -1.404,0 -2.674,-0.2315 -3.813,-0.6885 -1.139,-0.456 -2.105,-1.0394 -2.9,-1.754 l 0.834,-1.35 c 0.107,-0.1724 0.233,-0.3047 0.378,-0.3968 0.145,-0.093 0.338,-0.1394 0.575,-0.1394 0.239,0 0.491,0.093 0.755,0.2776 0.265,0.1854 0.589,0.3909 0.966,0.6165 0.378,0.2244 0.834,0.4299 1.37,0.6153 0.537,0.1855 1.205,0.2776 2.013,0.2776 0.688,0 1.291,-0.092 1.807,-0.2717 0.516,-0.1783 0.946,-0.4169 1.29,-0.7204 0.345,-0.3048 0.602,-0.6555 0.769,-1.0524 0.165,-0.398 0.244,-0.8209 0.244,-1.2709 0,-0.5563 -0.145,-1.0192 -0.444,-1.3842 -0.298,-0.3638 -0.694,-0.6744 -1.185,-0.9331 -0.489,-0.2575 -1.045,-0.483 -1.673,-0.6744 -0.63,-0.1925 -1.271,-0.3909 -1.927,-0.6023 -0.655,-0.2126 -1.296,-0.4571 -1.926,-0.7288 -0.628,-0.2705 -1.192,-0.6083 -1.681,-1.0193 -0.49,-0.4098 -0.881,-0.9201 -1.178,-1.5224 -0.298,-0.6024 -0.45,-1.3299 -0.45,-2.1898 0,-0.7677 0.159,-1.5094 0.477,-2.2181 0.317,-0.7075 0.78,-1.3299 1.39,-1.8661 0.608,-0.5362 1.356,-0.9603 2.243,-1.278 0.887,-0.3177 1.9,-0.476 3.038,-0.476 1.324,0 2.515,0.2055 3.568,0.6225 1.052,0.4169 1.959,0.9921 2.727,1.7208 l -0.795,1.2898 z"
         id="_18687304812345678910111213" />
      <path
         style="fill:#ffffff"
         inkscape:connector-curvature="0"
         class="fil12"
         d="m 19008.9,9223.43 c -1.589,0 -2.806,-0.4429 -3.66,-1.3299 -0.854,-0.887 -1.284,-2.165 -1.284,-3.8327 v -12.3106 h -2.423 c -0.212,0 -0.39,-0.066 -0.536,-0.1925 -0.146,-0.1252 -0.218,-0.3177 -0.218,-0.5823 v -1.4091 l 3.295,-0.4169 0.815,-6.215 c 0.03,-0.1996 0.112,-0.3649 0.257,-0.4901 0.147,-0.1264 0.331,-0.1854 0.557,-0.1854 h 1.787 v 6.9295 h 5.758 v 2.5618 h -5.758 v 12.072 c 0,0.848 0.205,1.4764 0.615,1.8862 0.411,0.411 0.94,0.6166 1.589,0.6166 0.371,0 0.694,-0.053 0.966,-0.1524 0.271,-0.099 0.503,-0.2055 0.701,-0.3248 0.199,-0.1193 0.371,-0.2315 0.511,-0.3307 0.138,-0.099 0.257,-0.1453 0.363,-0.1453 0.186,0 0.351,0.1122 0.496,0.3366 l 1.033,1.6878 c -0.608,0.5693 -1.343,1.0134 -2.204,1.337 -0.86,0.3248 -1.747,0.4902 -2.66,0.4902 z"
         id="_1868730481234567891011121314" />
      <path
         style="fill:#ffffff"
         inkscape:connector-curvature="0"
         class="fil12"
         d="m 19017.6,9223.11 0,-20.1142 2.026,0 c 0.383,0 0.648,0.073 0.794,0.2185 0.146,0.1453 0.245,0.3969 0.298,0.7547 l 0.239,3.137 c 0.687,-1.4031 1.541,-2.5015 2.554,-3.2893 1.013,-0.7878 2.197,-1.1788 3.561,-1.1788 0.556,0 1.059,0.06 1.509,0.1855 0.45,0.1263 0.867,0.3047 1.25,0.5303 l -0.455,2.6397 c -0.09,0.3319 -0.298,0.4973 -0.616,0.4973 -0.185,0 -0.47,-0.066 -0.854,-0.1925 -0.384,-0.1252 -0.92,-0.1855 -1.608,-0.1855 -1.231,0 -2.257,0.3579 -3.084,1.0725 -0.828,0.7145 -1.523,1.7539 -2.079,3.1181 v 12.8067 h -3.535 z"
         id="_186873048123456789101112131415" />
      <path
         style="fill:#ffffff"
         inkscape:connector-curvature="0"
         class="fil12"
         d="m 19047.7,9223.11 -1.569,0 c -0.343,0 -0.622,-0.053 -0.833,-0.1583 -0.212,-0.1063 -0.351,-0.3319 -0.417,-0.6756 l -0.397,-1.8661 c -0.53,0.476 -1.047,0.9 -1.55,1.2768 -0.502,0.3779 -1.032,0.6956 -1.587,0.9531 -0.556,0.2587 -1.146,0.4571 -1.774,0.5894 -0.63,0.1323 -1.331,0.1984 -2.099,0.1984 -0.781,0 -1.508,-0.1122 -2.191,-0.3307 -0.681,-0.2185 -1.277,-0.5433 -1.78,-0.9862 -0.503,-0.437 -0.9,-0.9933 -1.197,-1.6618 -0.298,-0.6685 -0.45,-1.4622 -0.45,-2.3823 0,-0.7949 0.218,-1.5626 0.654,-2.2972 0.437,-0.7406 1.146,-1.3961 2.119,-1.9654 0.972,-0.5693 2.243,-1.0394 3.818,-1.4031 1.576,-0.3638 3.502,-0.5493 5.778,-0.5493 v -1.5755 c 0,-1.5756 -0.331,-2.7662 -0.999,-3.567 -0.669,-0.8078 -1.662,-1.2118 -2.972,-1.2118 -0.861,0 -1.581,0.1063 -2.171,0.3248 -0.589,0.2185 -1.098,0.463 -1.529,0.7347 -0.43,0.2716 -0.801,0.5161 -1.111,0.7346 -0.311,0.2185 -0.623,0.3307 -0.928,0.3307 -0.237,0 -0.443,-0.066 -0.621,-0.1913 -0.179,-0.1264 -0.325,-0.2788 -0.431,-0.4642 l -0.635,-1.1315 c 1.112,-1.0724 2.31,-1.8732 3.594,-2.4024 1.284,-0.5303 2.707,-0.7948 4.269,-0.7948 1.125,0 2.125,0.1854 2.998,0.5563 0.874,0.3708 1.609,0.887 2.204,1.5484 0.596,0.6626 1.046,1.4634 1.351,2.4035 0.304,0.939 0.456,1.9713 0.456,3.0969 v 12.8669 z m -9.174,-2.1638 c 0.623,0 1.192,-0.066 1.708,-0.1925 0.516,-0.1252 1.007,-0.3047 1.464,-0.5362 0.456,-0.2315 0.893,-0.5091 1.309,-0.841 0.417,-0.3307 0.821,-0.7074 1.218,-1.1315 v -4.1492 c -1.627,0 -3.012,0.1051 -4.149,0.3107 -1.139,0.2055 -2.066,0.4759 -2.78,0.8078 -0.715,0.3307 -1.231,0.7276 -1.556,1.1776 -0.323,0.45 -0.49,0.9602 -0.49,1.5153 0,0.5363 0.09,0.9933 0.259,1.3843 0.172,0.3838 0.404,0.7016 0.694,0.9461 0.292,0.2444 0.636,0.424 1.034,0.5362 0.396,0.1122 0.826,0.1724 1.289,0.1724 z"
         id="_18687304812345678910111213141516" />
      <path
         style="fill:#ffffff"
         inkscape:connector-curvature="0"
         class="fil12"
         d="m 19059.1,9223.43 c -1.589,0 -2.806,-0.4429 -3.66,-1.3299 -0.854,-0.887 -1.284,-2.165 -1.284,-3.8327 v -12.3106 h -2.423 c -0.212,0 -0.39,-0.066 -0.536,-0.1925 -0.146,-0.1252 -0.218,-0.3177 -0.218,-0.5823 v -1.4091 l 3.295,-0.4169 0.815,-6.215 c 0.03,-0.1996 0.112,-0.3649 0.257,-0.4901 0.147,-0.1264 0.331,-0.1854 0.557,-0.1854 h 1.787 v 6.9295 h 5.758 v 2.5618 h -5.758 v 12.072 c 0,0.848 0.205,1.4764 0.615,1.8862 0.411,0.411 0.94,0.6166 1.589,0.6166 0.371,0 0.694,-0.053 0.966,-0.1524 0.271,-0.099 0.503,-0.2055 0.701,-0.3248 0.199,-0.1193 0.371,-0.2315 0.511,-0.3307 0.138,-0.099 0.257,-0.1453 0.363,-0.1453 0.186,0 0.351,0.1122 0.496,0.3366 l 1.033,1.6878 c -0.608,0.5693 -1.343,1.0134 -2.204,1.337 -0.86,0.3248 -1.747,0.4902 -2.66,0.4902 z"
         id="_1868730481234567891011121314151617" />
      <path
         style="fill:#ffffff"
         inkscape:connector-curvature="0"
         class="fil12"
         d="m 19075.8,9202.68 c 1.205,0 2.316,0.1984 3.335,0.6024 1.02,0.4039 1.901,0.9862 2.641,1.7468 0.742,0.7618 1.324,1.702 1.741,2.8205 0.417,1.1185 0.623,2.3953 0.623,3.8256 0,0.5551 -0.06,0.926 -0.18,1.1114 -0.118,0.1854 -0.343,0.2776 -0.674,0.2776 h -13.383 c 0.03,1.2708 0.198,2.3763 0.516,3.3165 0.318,0.9401 0.755,1.7209 1.311,2.3492 0.555,0.6295 1.218,1.0984 1.985,1.4102 0.768,0.3107 1.628,0.4701 2.581,0.4701 0.887,0 1.655,-0.1063 2.297,-0.3118 0.642,-0.2043 1.191,-0.4228 1.655,-0.6614 0.463,-0.2386 0.854,-0.463 1.165,-0.6685 0.31,-0.2055 0.575,-0.3047 0.8,-0.3047 0.292,0 0.516,0.1122 0.676,0.3378 l 0.992,1.2909 c -0.437,0.5291 -0.959,0.9862 -1.568,1.376 -0.609,0.3909 -1.258,0.7157 -1.953,0.9673 -0.694,0.2504 -1.416,0.4358 -2.158,0.5622 -0.741,0.1252 -1.476,0.1913 -2.204,0.1913 -1.39,0 -2.667,-0.2374 -3.838,-0.7074 -1.172,-0.4701 -2.184,-1.1587 -3.038,-2.0658 -0.854,-0.9059 -1.522,-2.0244 -2,-3.3614 -0.476,-1.337 -0.714,-2.8724 -0.714,-4.6075 0,-1.4031 0.218,-2.713 0.648,-3.9307 0.43,-1.2177 1.047,-2.2772 1.853,-3.1713 0.808,-0.8929 1.794,-1.5944 2.959,-2.1047 1.165,-0.509 2.476,-0.7606 3.932,-0.7606 z m 0.08,2.6008 c -1.708,0 -3.051,0.4901 -4.031,1.4764 -0.979,0.9862 -1.589,2.3563 -1.826,4.1031 h 10.941 c 0,-0.8208 -0.113,-1.5744 -0.338,-2.2571 -0.225,-0.6815 -0.556,-1.2708 -0.992,-1.7669 -0.437,-0.4961 -0.968,-0.8799 -1.596,-1.1516 -0.628,-0.2716 -1.35,-0.4039 -2.158,-0.4039 z"
         id="_186873048123456789101112131415161718" />
      <path
         style="fill:#ffffff"
         inkscape:connector-curvature="0"
         class="fil12"
         d="m 19095.4,9202.66 c 0.874,0 1.695,0.093 2.456,0.2846 0.761,0.1926 1.449,0.4772 2.071,0.8469 h 5.46 v 1.311 c 0,0.437 -0.277,0.7146 -0.833,0.8339 l -2.284,0.3177 c 0.45,0.861 0.676,1.8201 0.676,2.8795 0,0.9792 -0.185,1.8662 -0.563,2.667 -0.377,0.8007 -0.9,1.4893 -1.569,2.0586 -0.668,0.5693 -1.462,1.0063 -2.382,1.3099 -0.92,0.3047 -1.934,0.457 -3.032,0.457 -0.94,0 -1.826,-0.1122 -2.661,-0.3378 -0.423,0.2717 -0.741,0.5693 -0.959,0.8871 -0.219,0.3118 -0.331,0.6224 -0.331,0.92 0,0.4961 0.192,0.867 0.575,1.1256 0.384,0.2516 0.895,0.437 1.53,0.5421 0.635,0.1134 1.357,0.1654 2.164,0.1654 h 2.475 c 0.841,0 1.662,0.073 2.469,0.2185 0.808,0.1524 1.529,0.3909 2.165,0.7287 0.635,0.3308 1.144,0.7937 1.528,1.3831 0.384,0.5894 0.577,1.35 0.577,2.2902 0,0.874 -0.213,1.7138 -0.643,2.5346 -0.43,0.8138 -1.052,1.5425 -1.86,2.178 -0.807,0.6354 -1.793,1.1445 -2.958,1.5224 -1.165,0.3839 -2.482,0.5752 -3.952,0.5752 -1.469,0 -2.753,-0.1453 -3.858,-0.437 -1.106,-0.2905 -2.026,-0.6815 -2.754,-1.1716 -0.728,-0.489 -1.27,-1.0583 -1.634,-1.7008 -0.365,-0.6414 -0.549,-1.3099 -0.549,-2.0115 0,-0.9933 0.317,-1.8401 0.946,-2.5358 0.628,-0.6945 1.489,-1.2437 2.587,-1.6606 -0.569,-0.2587 -1.019,-0.6154 -1.357,-1.0595 -0.337,-0.4429 -0.509,-1.0322 -0.509,-1.774 0,-0.2905 0.05,-0.5953 0.159,-0.9059 0.106,-0.3118 0.271,-0.6153 0.49,-0.9201 0.218,-0.3047 0.483,-0.5964 0.801,-0.874 0.317,-0.2775 0.688,-0.5232 1.111,-0.7346 -0.992,-0.5563 -1.767,-1.2969 -2.329,-2.217 -0.562,-0.92 -0.847,-1.9925 -0.847,-3.2232 0,-0.9803 0.191,-1.8732 0.569,-2.674 0.377,-0.8008 0.9,-1.4835 1.575,-2.0457 0.675,-0.5622 1.482,-0.9921 2.416,-1.2968 0.933,-0.3048 1.953,-0.4571 3.064,-0.4571 z m 6.275,21.4783 c 0,-0.5173 -0.139,-0.9272 -0.417,-1.2378 -0.278,-0.3047 -0.655,-0.5492 -1.132,-0.7157 -0.476,-0.1713 -1.026,-0.2906 -1.648,-0.3768 -0.622,-0.079 -1.278,-0.1193 -1.965,-0.1193 h -2.105 c -0.716,0 -1.397,-0.092 -2.046,-0.2717 -0.755,0.365 -1.363,0.8008 -1.833,1.3181 -0.47,0.5162 -0.709,1.1315 -0.709,1.8461 0,0.45 0.12,0.8669 0.351,1.2579 0.232,0.3897 0.583,0.7275 1.06,1.0122 0.476,0.2846 1.078,0.5102 1.8,0.6756 0.721,0.1653 1.568,0.2515 2.549,0.2515 0.952,0 1.805,-0.086 2.56,-0.2645 0.755,-0.1725 1.397,-0.424 1.919,-0.7488 0.524,-0.3237 0.921,-0.7075 1.199,-1.1516 0.278,-0.4429 0.417,-0.939 0.417,-1.4752 z m -6.275,-10.8555 c 0.715,0 1.35,-0.099 1.9,-0.2976 0.55,-0.1985 1.006,-0.476 1.376,-0.8339 0.371,-0.3579 0.649,-0.7878 0.834,-1.2839 0.186,-0.496 0.279,-1.0393 0.279,-1.6346 0,-1.2319 -0.371,-2.211 -1.12,-2.9386 -0.747,-0.7287 -1.839,-1.0925 -3.269,-1.0925 -1.416,0 -2.495,0.3638 -3.243,1.0925 -0.748,0.7276 -1.125,1.7067 -1.125,2.9386 0,0.5953 0.1,1.1386 0.291,1.6346 0.192,0.4961 0.47,0.926 0.841,1.2839 0.371,0.3579 0.827,0.6354 1.37,0.8339 0.542,0.1984 1.164,0.2976 1.866,0.2976 z"
         id="_18687304812345678910111213141516171819" />
      <path
         style="fill:#ffffff"
         inkscape:connector-curvature="0"
         class="fil12"
         d="m 19112.9,9203 0,20.1142 -3.534,0 0,-20.1142 3.534,0 z m 0.795,-6.3142 c 0,0.3437 -0.07,0.6614 -0.206,0.9591 -0.139,0.2988 -0.324,0.5634 -0.556,0.7949 -0.231,0.2315 -0.503,0.4169 -0.807,0.5492 -0.304,0.1323 -0.629,0.1984 -0.973,0.1984 -0.345,0 -0.662,-0.066 -0.96,-0.1984 -0.298,-0.1323 -0.562,-0.3177 -0.794,-0.5492 -0.231,-0.2315 -0.417,-0.4961 -0.549,-0.7949 -0.132,-0.2977 -0.2,-0.6154 -0.2,-0.9591 0,-0.3449 0.07,-0.6756 0.2,-0.9862 0.132,-0.3106 0.318,-0.5823 0.549,-0.8138 0.232,-0.2315 0.496,-0.411 0.794,-0.5433 0.298,-0.1323 0.615,-0.1984 0.96,-0.1984 0.344,0 0.669,0.066 0.973,0.1984 0.304,0.1323 0.576,0.3118 0.807,0.5433 0.232,0.2315 0.417,0.5032 0.556,0.8138 0.14,0.3106 0.206,0.6413 0.206,0.9862 z"
         id="_1868730481234567891011121314151617181920" />
      <path
         style="fill:#ffffff"
         inkscape:connector-curvature="0"
         class="fil12"
         d="m 19133.9,9223.11 -1.569,0 c -0.343,0 -0.622,-0.053 -0.833,-0.1583 -0.212,-0.1063 -0.351,-0.3319 -0.417,-0.6756 l -0.397,-1.8661 c -0.53,0.476 -1.047,0.9 -1.55,1.2768 -0.502,0.3779 -1.032,0.6956 -1.587,0.9531 -0.556,0.2587 -1.146,0.4571 -1.774,0.5894 -0.63,0.1323 -1.331,0.1984 -2.099,0.1984 -0.781,0 -1.508,-0.1122 -2.191,-0.3307 -0.681,-0.2185 -1.277,-0.5433 -1.78,-0.9862 -0.503,-0.437 -0.9,-0.9933 -1.197,-1.6618 -0.298,-0.6685 -0.45,-1.4622 -0.45,-2.3823 0,-0.7949 0.218,-1.5626 0.654,-2.2972 0.437,-0.7406 1.146,-1.3961 2.119,-1.9654 0.972,-0.5693 2.243,-1.0394 3.818,-1.4031 1.576,-0.3638 3.502,-0.5493 5.778,-0.5493 v -1.5755 c 0,-1.5756 -0.331,-2.7662 -0.999,-3.567 -0.669,-0.8078 -1.662,-1.2118 -2.972,-1.2118 -0.861,0 -1.581,0.1063 -2.171,0.3248 -0.589,0.2185 -1.098,0.463 -1.529,0.7347 -0.43,0.2716 -0.801,0.5161 -1.111,0.7346 -0.311,0.2185 -0.623,0.3307 -0.928,0.3307 -0.237,0 -0.443,-0.066 -0.621,-0.1913 -0.179,-0.1264 -0.325,-0.2788 -0.431,-0.4642 l -0.635,-1.1315 c 1.112,-1.0724 2.31,-1.8732 3.594,-2.4024 1.284,-0.5303 2.707,-0.7948 4.269,-0.7948 1.125,0 2.125,0.1854 2.998,0.5563 0.874,0.3708 1.609,0.887 2.204,1.5484 0.596,0.6626 1.046,1.4634 1.351,2.4035 0.304,0.939 0.456,1.9713 0.456,3.0969 v 12.8669 z m -9.174,-2.1638 c 0.623,0 1.192,-0.066 1.708,-0.1925 0.516,-0.1252 1.007,-0.3047 1.464,-0.5362 0.456,-0.2315 0.893,-0.5091 1.309,-0.841 0.417,-0.3307 0.821,-0.7074 1.218,-1.1315 v -4.1492 c -1.627,0 -3.012,0.1051 -4.149,0.3107 -1.139,0.2055 -2.066,0.4759 -2.78,0.8078 -0.715,0.3307 -1.231,0.7276 -1.556,1.1776 -0.323,0.45 -0.49,0.9602 -0.49,1.5153 0,0.5363 0.09,0.9933 0.259,1.3843 0.172,0.3838 0.404,0.7016 0.694,0.9461 0.292,0.2444 0.636,0.424 1.034,0.5362 0.396,0.1122 0.826,0.1724 1.289,0.1724 z"
         id="_186873048123456789101112131415161718192021" />
      <path
         style="fill:#ffffff"
         inkscape:connector-curvature="0"
         class="fil12"
         d="m 19150.7,9206.31 c -0.158,0.2917 -0.404,0.437 -0.735,0.437 -0.198,0 -0.424,-0.072 -0.674,-0.2185 -0.252,-0.1453 -0.556,-0.3106 -0.92,-0.489 -0.365,-0.1795 -0.801,-0.3449 -1.304,-0.4972 -0.503,-0.1512 -1.1,-0.2244 -1.787,-0.2244 -0.597,0 -1.133,0.073 -1.609,0.2244 -0.477,0.1523 -0.88,0.3649 -1.217,0.6295 -0.338,0.2646 -0.597,0.5693 -0.775,0.9201 -0.179,0.3508 -0.272,0.7346 -0.272,1.1445 0,0.5161 0.152,0.9472 0.45,1.2909 0.299,0.3437 0.689,0.6425 1.179,0.8929 0.49,0.2516 1.045,0.4701 1.668,0.6626 0.622,0.1914 1.263,0.3969 1.919,0.6154 0.655,0.2185 1.291,0.463 1.913,0.7275 0.621,0.2658 1.178,0.5965 1.668,0.9934 0.49,0.3968 0.887,0.8799 1.185,1.4563 0.297,0.5751 0.443,1.2708 0.443,2.0775 0,0.9272 -0.166,1.7811 -0.497,2.5689 -0.33,0.7878 -0.82,1.4693 -1.469,2.0445 -0.648,0.5764 -1.443,1.0335 -2.382,1.3642 -0.94,0.3307 -2.026,0.496 -3.256,0.496 -1.404,0 -2.674,-0.2315 -3.813,-0.6885 -1.139,-0.456 -2.105,-1.0394 -2.9,-1.754 l 0.834,-1.35 c 0.107,-0.1724 0.233,-0.3047 0.378,-0.3968 0.145,-0.093 0.338,-0.1394 0.575,-0.1394 0.239,0 0.491,0.093 0.755,0.2776 0.265,0.1854 0.589,0.3909 0.966,0.6165 0.378,0.2244 0.834,0.4299 1.37,0.6153 0.537,0.1855 1.205,0.2776 2.013,0.2776 0.688,0 1.291,-0.092 1.807,-0.2717 0.516,-0.1783 0.946,-0.4169 1.29,-0.7204 0.345,-0.3048 0.602,-0.6555 0.769,-1.0524 0.165,-0.398 0.244,-0.8209 0.244,-1.2709 0,-0.5563 -0.145,-1.0192 -0.444,-1.3842 -0.298,-0.3638 -0.694,-0.6744 -1.185,-0.9331 -0.489,-0.2575 -1.045,-0.483 -1.673,-0.6744 -0.63,-0.1925 -1.271,-0.3909 -1.927,-0.6023 -0.655,-0.2126 -1.296,-0.4571 -1.926,-0.7288 -0.628,-0.2705 -1.192,-0.6083 -1.681,-1.0193 -0.49,-0.4098 -0.881,-0.9201 -1.178,-1.5224 -0.298,-0.6024 -0.45,-1.3299 -0.45,-2.1898 0,-0.7677 0.159,-1.5094 0.477,-2.2181 0.317,-0.7075 0.78,-1.3299 1.39,-1.8661 0.608,-0.5362 1.356,-0.9603 2.243,-1.278 0.887,-0.3177 1.9,-0.476 3.038,-0.476 1.324,0 2.515,0.2055 3.568,0.6225 1.052,0.4169 1.959,0.9921 2.727,1.7208 l -0.795,1.2898 z"
         id="_18687304812345678910111213141516171819202122" />
      <path
         style="fill:#ffffff"
         inkscape:connector-curvature="0"
         class="fil12"
         d="m 18724.1,9274.32 0,-29.2476 3.555,0 0,12.0319 c 0.834,-0.9661 1.793,-1.7468 2.873,-2.3362 1.078,-0.5882 2.309,-0.8799 3.699,-0.8799 1.164,0 2.217,0.2185 3.157,0.6555 0.94,0.437 1.741,1.0854 2.402,1.9523 0.663,0.867 1.172,1.9394 1.53,3.2162 0.358,1.2779 0.536,2.7543 0.536,4.422 0,1.4823 -0.198,2.8595 -0.596,4.1362 -0.397,1.278 -0.967,2.3823 -1.714,3.3166 -0.748,0.9331 -1.661,1.6677 -2.74,2.2039 -1.079,0.5362 -2.296,0.8067 -3.648,0.8067 -1.297,0 -2.395,-0.2516 -3.302,-0.7535 -0.907,-0.5032 -1.701,-1.2047 -2.376,-2.1047 l -0.179,1.8259 c -0.106,0.5032 -0.41,0.7548 -0.913,0.7548 h -2.284 z m 8.975,-17.6126 c -1.151,0 -2.158,0.2646 -3.025,0.7949 -0.867,0.5291 -1.667,1.2768 -2.395,2.2429 v 9.7299 c 0.636,0.874 1.343,1.4894 2.118,1.8461 0.773,0.3578 1.634,0.5362 2.588,0.5362 1.879,0 3.322,-0.6685 4.328,-2.0055 1.007,-1.337 1.51,-3.2421 1.51,-5.7177 0,-1.3111 -0.114,-2.4366 -0.345,-3.3756 -0.232,-0.9402 -0.569,-1.715 -1.006,-2.3173 -0.437,-0.6024 -0.972,-1.0382 -1.608,-1.317 -0.635,-0.2775 -1.357,-0.4169 -2.165,-0.4169 z"
         id="_186872904" />
      <path
         style="fill:#ffffff"
         inkscape:connector-curvature="0"
         class="fil12"
         d="m 18745,9272.14 c 0,-0.3449 0.07,-0.6685 0.193,-0.9732 0.125,-0.3048 0.297,-0.5693 0.516,-0.7937 0.218,-0.2256 0.476,-0.404 0.78,-0.5362 0.305,-0.1323 0.63,-0.1997 0.974,-0.1997 0.343,0 0.668,0.067 0.973,0.1997 0.305,0.1322 0.569,0.3106 0.794,0.5362 0.225,0.2244 0.403,0.4889 0.53,0.7937 0.125,0.3047 0.184,0.6283 0.184,0.9732 0,0.3567 -0.06,0.6815 -0.184,0.9791 -0.127,0.2977 -0.305,0.5622 -0.53,0.7878 -0.225,0.2244 -0.489,0.3969 -0.794,0.5233 -0.305,0.1252 -0.63,0.1913 -0.973,0.1913 -0.344,0 -0.669,-0.066 -0.974,-0.1913 -0.304,-0.1264 -0.562,-0.2989 -0.78,-0.5233 -0.219,-0.2256 -0.391,-0.4901 -0.516,-0.7878 -0.127,-0.2976 -0.193,-0.6224 -0.193,-0.9791 z"
         id="_1868729041" />
      <polygon
         style="fill:#ffffff"
         points="18767.4,9274.32 18763.6,9274.32 18763.6,9245.87 18767.4,9245.87 "
         class="fil12"
         id="_18687290412" />
      <path
         style="fill:#ffffff"
         inkscape:connector-curvature="0"
         class="fil12"
         d="m 18774.5,9274.32 0,-20.1142 2.105,0 c 0.503,0 0.821,0.2445 0.953,0.7346 l 0.279,2.1839 c 0.874,-0.9661 1.853,-1.7468 2.931,-2.3433 1.08,-0.5953 2.323,-0.8929 3.739,-0.8929 1.1,0 2.072,0.1783 2.913,0.5421 0.841,0.365 1.543,0.8811 2.105,1.5496 0.563,0.6685 0.986,1.4752 1.278,2.4154 0.29,0.9401 0.437,1.9795 0.437,3.1181 v 12.8067 h -3.535 v -12.8067 c 0,-1.5225 -0.344,-2.7071 -1.04,-3.5481 -0.694,-0.8409 -1.759,-1.2578 -3.19,-1.2578 -1.045,0 -2.018,0.2516 -2.925,0.7547 -0.906,0.5032 -1.747,1.1847 -2.515,2.0457 v 14.8122 h -3.535 z"
         id="_186872904123" />
      <path
         style="fill:#ffffff"
         inkscape:connector-curvature="0"
         class="fil12"
         d="m 18810.7,9274.32 c -0.503,0 -0.821,-0.2445 -0.953,-0.7346 l -0.318,-2.4426 c -0.86,1.0465 -1.84,1.8803 -2.946,2.5087 -1.104,0.6283 -2.375,0.9461 -3.805,0.9461 -1.152,0 -2.197,-0.2245 -3.137,-0.6685 -0.94,-0.443 -1.741,-1.0914 -2.402,-1.9524 -0.663,-0.8599 -1.172,-1.9323 -1.53,-3.2161 -0.357,-1.2839 -0.536,-2.7603 -0.536,-4.428 0,-1.4823 0.199,-2.8665 0.596,-4.1433 0.397,-1.278 0.974,-2.3835 1.721,-3.3224 0.748,-0.9402 1.655,-1.6819 2.727,-2.2182 1.072,-0.5362 2.289,-0.8007 3.653,-0.8007 1.231,0 2.284,0.2055 3.158,0.6224 0.874,0.4169 1.654,1.0063 2.343,1.761 v -11.1591 h 3.534 v 29.2476 h -2.105 z m -6.85,-2.5807 c 1.151,0 2.165,-0.2658 3.031,-0.7949 0.867,-0.5291 1.661,-1.2768 2.39,-2.2441 v -9.7287 c -0.65,-0.874 -1.357,-1.4894 -2.132,-1.8402 -0.774,-0.3508 -1.635,-0.5232 -2.575,-0.5232 -1.879,0 -3.322,0.6685 -4.329,2.0055 -1.005,1.337 -1.508,3.2433 -1.508,5.7189 0,1.3098 0.112,2.4284 0.338,3.3626 0.224,0.9331 0.555,1.7008 0.992,2.3032 0.437,0.6023 0.973,1.0452 1.609,1.3228 0.635,0.2787 1.363,0.4181 2.184,0.4181 z"
         id="_1868729041234" />
      <path
         style="fill:#ffffff"
         inkscape:connector-curvature="0"
         class="fil12"
         d="m 18822.7,9254.21 0,20.1142 -3.534,0 0,-20.1142 3.534,0 z m 0.795,-6.3142 c 0,0.3437 -0.07,0.6614 -0.206,0.9591 -0.139,0.2988 -0.324,0.5634 -0.556,0.7949 -0.231,0.2315 -0.503,0.4169 -0.807,0.5492 -0.304,0.1323 -0.629,0.1984 -0.973,0.1984 -0.345,0 -0.662,-0.066 -0.96,-0.1984 -0.298,-0.1323 -0.562,-0.3177 -0.794,-0.5492 -0.231,-0.2315 -0.417,-0.4961 -0.549,-0.7949 -0.132,-0.2977 -0.2,-0.6154 -0.2,-0.9591 0,-0.3449 0.07,-0.6756 0.2,-0.9862 0.132,-0.3106 0.318,-0.5823 0.549,-0.8138 0.232,-0.2315 0.496,-0.411 0.794,-0.5433 0.298,-0.1323 0.615,-0.1984 0.96,-0.1984 0.344,0 0.669,0.066 0.973,0.1984 0.304,0.1323 0.576,0.3118 0.807,0.5433 0.232,0.2315 0.417,0.5032 0.556,0.8138 0.14,0.3106 0.206,0.6413 0.206,0.9862 z"
         id="_18687290412345" />
      <path
         style="fill:#ffffff"
         inkscape:connector-curvature="0"
         class="fil12"
         d="m 18842.6,9257.78 c -0.105,0.1453 -0.211,0.2587 -0.318,0.3378 -0.105,0.079 -0.257,0.1193 -0.456,0.1193 -0.199,0 -0.411,-0.086 -0.642,-0.2516 -0.232,-0.1653 -0.529,-0.3449 -0.887,-0.5433 -0.358,-0.1984 -0.788,-0.3839 -1.297,-0.5492 -0.51,-0.1654 -1.139,-0.2445 -1.88,-0.2445 -0.979,0 -1.846,0.1713 -2.601,0.5221 -0.755,0.3507 -1.383,0.861 -1.893,1.5224 -0.509,0.6626 -0.893,1.4634 -1.152,2.4035 -0.257,0.939 -0.39,1.9914 -0.39,3.1571 0,1.2177 0.138,2.2961 0.417,3.2422 0.278,0.9472 0.669,1.7409 1.171,2.3834 0.503,0.6413 1.119,1.1315 1.84,1.4693 0.721,0.3378 1.529,0.5091 2.429,0.5091 0.86,0 1.569,-0.1052 2.125,-0.3107 0.556,-0.2055 1.019,-0.4299 1.39,-0.6815 0.37,-0.2515 0.675,-0.483 0.913,-0.6886 0.239,-0.2055 0.476,-0.3047 0.715,-0.3047 0.305,0 0.529,0.1122 0.675,0.3378 l 0.993,1.291 c -0.873,1.0724 -1.966,1.8531 -3.277,2.3492 -1.31,0.496 -2.693,0.7476 -4.149,0.7476 -1.258,0 -2.422,-0.2315 -3.502,-0.6945 -1.078,-0.463 -2.018,-1.1386 -2.812,-2.0185 -0.795,-0.8811 -1.416,-1.9594 -1.873,-3.2433 -0.457,-1.2839 -0.689,-2.7472 -0.689,-4.3878 0,-1.4965 0.211,-2.8795 0.628,-4.1504 0.417,-1.2709 1.027,-2.3693 1.828,-3.2894 0.8,-0.92 1.787,-1.6346 2.965,-2.1507 1.178,-0.5162 2.528,-0.7748 4.05,-0.7748 1.403,0 2.648,0.2244 3.734,0.6815 1.085,0.457 2.044,1.1055 2.878,1.9393 l -0.933,1.2709 z"
         id="_186872904123456" />
      <path
         style="fill:#ffffff"
         inkscape:connector-curvature="0"
         class="fil12"
         d="m 18862.2,9274.32 -1.569,0 c -0.343,0 -0.622,-0.053 -0.833,-0.1583 -0.212,-0.1063 -0.351,-0.3319 -0.417,-0.6756 l -0.397,-1.8661 c -0.53,0.476 -1.047,0.9 -1.55,1.2768 -0.502,0.3779 -1.032,0.6956 -1.587,0.9531 -0.556,0.2587 -1.146,0.4571 -1.774,0.5894 -0.63,0.1323 -1.331,0.1984 -2.099,0.1984 -0.781,0 -1.508,-0.1122 -2.191,-0.3307 -0.681,-0.2185 -1.277,-0.5433 -1.78,-0.9862 -0.503,-0.437 -0.9,-0.9933 -1.197,-1.6618 -0.298,-0.6685 -0.45,-1.4622 -0.45,-2.3823 0,-0.7949 0.218,-1.5626 0.654,-2.2972 0.437,-0.7406 1.146,-1.3961 2.119,-1.9654 0.972,-0.5693 2.243,-1.0394 3.818,-1.4031 1.576,-0.3638 3.502,-0.5493 5.778,-0.5493 v -1.5755 c 0,-1.5756 -0.331,-2.7662 -0.999,-3.567 -0.669,-0.8079 -1.662,-1.2118 -2.972,-1.2118 -0.861,0 -1.581,0.1063 -2.171,0.3248 -0.589,0.2185 -1.098,0.463 -1.529,0.7347 -0.43,0.2716 -0.801,0.5161 -1.111,0.7346 -0.311,0.2185 -0.623,0.3307 -0.928,0.3307 -0.237,0 -0.443,-0.066 -0.621,-0.1913 -0.179,-0.1264 -0.325,-0.2788 -0.431,-0.4642 l -0.635,-1.1315 c 1.112,-1.0724 2.31,-1.8732 3.594,-2.4024 1.284,-0.5303 2.707,-0.7948 4.269,-0.7948 1.125,0 2.125,0.1854 2.998,0.5563 0.874,0.3708 1.609,0.887 2.204,1.5484 0.596,0.6626 1.046,1.4634 1.351,2.4035 0.304,0.939 0.456,1.9713 0.456,3.0969 v 12.8669 z m -9.174,-2.1638 c 0.623,0 1.192,-0.066 1.708,-0.1925 0.516,-0.1252 1.007,-0.3047 1.464,-0.5362 0.456,-0.2315 0.893,-0.5091 1.309,-0.841 0.417,-0.3307 0.821,-0.7074 1.218,-1.1315 v -4.1492 c -1.627,0 -3.012,0.1051 -4.149,0.3107 -1.139,0.2055 -2.066,0.4759 -2.78,0.8078 -0.715,0.3307 -1.231,0.7276 -1.556,1.1776 -0.323,0.45 -0.49,0.9602 -0.49,1.5153 0,0.5363 0.09,0.9933 0.259,1.3843 0.172,0.3838 0.404,0.7016 0.694,0.9461 0.292,0.2444 0.636,0.424 1.034,0.5362 0.396,0.1122 0.826,0.1724 1.289,0.1724 z"
         id="_1868729041234567" />
      <path
         style="fill:#ffffff"
         inkscape:connector-curvature="0"
         class="fil12"
         d="m 18881.8,9274.32 c -0.503,0 -0.821,-0.2445 -0.953,-0.7346 l -0.318,-2.4426 c -0.86,1.0465 -1.84,1.8803 -2.946,2.5087 -1.104,0.6283 -2.375,0.9461 -3.805,0.9461 -1.152,0 -2.197,-0.2245 -3.137,-0.6685 -0.94,-0.443 -1.741,-1.0914 -2.402,-1.9524 -0.663,-0.8599 -1.172,-1.9323 -1.53,-3.2161 -0.357,-1.2839 -0.536,-2.7603 -0.536,-4.428 0,-1.4823 0.199,-2.8665 0.596,-4.1433 0.397,-1.278 0.974,-2.3835 1.721,-3.3224 0.748,-0.9402 1.655,-1.6819 2.727,-2.2182 1.072,-0.5362 2.289,-0.8007 3.653,-0.8007 1.231,0 2.284,0.2055 3.158,0.6224 0.874,0.4169 1.654,1.0063 2.343,1.761 v -11.1591 h 3.534 v 29.2476 h -2.105 z m -6.85,-2.5807 c 1.151,0 2.165,-0.2658 3.031,-0.7949 0.867,-0.5291 1.661,-1.2768 2.39,-2.2441 v -9.7287 c -0.65,-0.874 -1.357,-1.4894 -2.132,-1.8402 -0.774,-0.3508 -1.635,-0.5232 -2.575,-0.5232 -1.879,0 -3.322,0.6685 -4.329,2.0055 -1.005,1.337 -1.508,3.2433 -1.508,5.7189 0,1.3098 0.112,2.4284 0.338,3.3626 0.224,0.9331 0.555,1.7008 0.992,2.3032 0.437,0.6023 0.973,1.0452 1.609,1.3228 0.635,0.2787 1.363,0.4181 2.184,0.4181 z"
         id="_18687290412345678" />
      <path
         style="fill:#ffffff"
         inkscape:connector-curvature="0"
         class="fil12"
         d="m 18897.9,9253.89 c 1.469,0 2.8,0.2445 3.985,0.7346 1.185,0.4902 2.191,1.1847 3.018,2.0847 0.828,0.9 1.462,1.9854 1.906,3.2634 0.443,1.2768 0.661,2.7071 0.661,4.2827 0,1.5874 -0.218,3.0177 -0.661,4.2885 -0.444,1.2709 -1.078,2.3563 -1.906,3.2563 -0.827,0.9 -1.833,1.5886 -3.018,2.0717 -1.185,0.4831 -2.516,0.7276 -3.985,0.7276 -1.469,0 -2.793,-0.2445 -3.978,-0.7276 -1.185,-0.4831 -2.197,-1.1717 -3.031,-2.0717 -0.834,-0.9 -1.476,-1.9854 -1.926,-3.2563 -0.45,-1.2708 -0.676,-2.7011 -0.676,-4.2885 0,-1.5756 0.226,-3.0059 0.676,-4.2827 0.45,-1.278 1.092,-2.3634 1.926,-3.2634 0.834,-0.9 1.846,-1.5945 3.031,-2.0847 1.185,-0.4901 2.509,-0.7346 3.978,-0.7346 z m 0,17.9504 c 1.985,0 3.469,-0.6685 4.448,-1.9996 0.979,-1.3299 1.469,-3.1831 1.469,-5.5666 0,-2.3952 -0.49,-4.2614 -1.469,-5.5984 -0.979,-1.337 -2.463,-2.0055 -4.448,-2.0055 -1.006,0 -1.879,0.1713 -2.621,0.5162 -0.742,0.3437 -1.357,0.8397 -1.853,1.4893 -0.496,0.6484 -0.867,1.4422 -1.111,2.3894 -0.246,0.9461 -0.371,2.0185 -0.371,3.2091 0,1.1917 0.125,2.257 0.371,3.1972 0.244,0.9401 0.615,1.7279 1.111,2.3693 0.496,0.6425 1.111,1.1386 1.853,1.4823 0.742,0.3448 1.615,0.5173 2.621,0.5173 z"
         id="_186872904123456789" />
      <path
         style="fill:#ffffff"
         inkscape:connector-curvature="0"
         class="fil12"
         d="m 18911.9,9274.32 0,-20.1142 2.026,0 c 0.383,0 0.648,0.073 0.794,0.2185 0.146,0.1453 0.245,0.3969 0.298,0.7547 l 0.239,3.137 c 0.687,-1.4031 1.541,-2.5015 2.554,-3.2893 1.013,-0.7878 2.197,-1.1788 3.561,-1.1788 0.556,0 1.059,0.06 1.509,0.1855 0.45,0.1263 0.867,0.3047 1.25,0.5303 l -0.455,2.6397 c -0.09,0.3319 -0.298,0.4973 -0.616,0.4973 -0.185,0 -0.47,-0.066 -0.854,-0.1925 -0.384,-0.1252 -0.92,-0.1855 -1.608,-0.1855 -1.231,0 -2.257,0.3579 -3.084,1.0725 -0.828,0.7145 -1.523,1.7539 -2.079,3.1181 v 12.8067 h -3.535 z"
         id="_18687290412345678910" />
      <path
         style="fill:#ffffff"
         inkscape:connector-curvature="0"
         class="fil12"
         d="m 18935.8,9253.89 c 1.205,0 2.316,0.1984 3.335,0.6024 1.02,0.4039 1.901,0.9862 2.641,1.7468 0.742,0.7618 1.324,1.702 1.741,2.8205 0.417,1.1185 0.623,2.3953 0.623,3.8256 0,0.5551 -0.06,0.926 -0.18,1.1114 -0.118,0.1854 -0.343,0.2776 -0.674,0.2776 h -13.383 c 0.03,1.2708 0.198,2.3763 0.516,3.3165 0.318,0.9401 0.755,1.7209 1.311,2.3492 0.555,0.6295 1.218,1.0984 1.985,1.4102 0.768,0.3107 1.628,0.4701 2.581,0.4701 0.887,0 1.655,-0.1063 2.297,-0.3118 0.642,-0.2043 1.191,-0.4228 1.655,-0.6614 0.463,-0.2386 0.854,-0.463 1.165,-0.6685 0.31,-0.2055 0.575,-0.3047 0.8,-0.3047 0.292,0 0.516,0.1122 0.676,0.3378 l 0.992,1.2909 c -0.437,0.5291 -0.959,0.9862 -1.568,1.376 -0.609,0.3909 -1.258,0.7157 -1.953,0.9673 -0.694,0.2504 -1.416,0.4358 -2.158,0.5622 -0.741,0.1252 -1.476,0.1913 -2.204,0.1913 -1.39,0 -2.667,-0.2374 -3.838,-0.7074 -1.172,-0.4701 -2.184,-1.1587 -3.038,-2.0658 -0.854,-0.9059 -1.522,-2.0244 -2,-3.3614 -0.476,-1.337 -0.714,-2.8724 -0.714,-4.6075 0,-1.4031 0.218,-2.713 0.648,-3.9307 0.43,-1.2177 1.047,-2.2772 1.853,-3.1713 0.808,-0.8929 1.794,-1.5944 2.959,-2.1047 1.165,-0.509 2.476,-0.7606 3.932,-0.7606 z m 0.08,2.6008 c -1.708,0 -3.051,0.4901 -4.031,1.4764 -0.979,0.9862 -1.589,2.3563 -1.826,4.1031 h 10.941 c 0,-0.8208 -0.113,-1.5744 -0.338,-2.2571 -0.225,-0.6815 -0.556,-1.2708 -0.992,-1.7669 -0.437,-0.4961 -0.968,-0.8799 -1.596,-1.1516 -0.628,-0.2716 -1.35,-0.4039 -2.158,-0.4039 z"
         id="_1868729041234567891011" />
      <path
         style="fill:#ffffff"
         inkscape:connector-curvature="0"
         class="fil12"
         d="m 18960.2,9257.52 c -0.158,0.2917 -0.404,0.437 -0.735,0.437 -0.198,0 -0.424,-0.072 -0.674,-0.2185 -0.252,-0.1453 -0.556,-0.3106 -0.92,-0.489 -0.365,-0.1795 -0.801,-0.3449 -1.304,-0.4972 -0.503,-0.1512 -1.1,-0.2244 -1.787,-0.2244 -0.597,0 -1.133,0.073 -1.609,0.2244 -0.477,0.1523 -0.88,0.3649 -1.217,0.6295 -0.338,0.2646 -0.597,0.5693 -0.775,0.9201 -0.179,0.3508 -0.272,0.7346 -0.272,1.1445 0,0.5161 0.152,0.9472 0.45,1.2909 0.299,0.3437 0.689,0.6425 1.179,0.8929 0.49,0.2516 1.045,0.4701 1.668,0.6626 0.622,0.1914 1.263,0.3969 1.919,0.6154 0.655,0.2185 1.291,0.463 1.913,0.7275 0.621,0.2658 1.178,0.5965 1.668,0.9934 0.49,0.3968 0.887,0.8799 1.185,1.4563 0.297,0.5751 0.443,1.2708 0.443,2.0775 0,0.9272 -0.166,1.7811 -0.497,2.5689 -0.33,0.7878 -0.82,1.4693 -1.469,2.0445 -0.648,0.5764 -1.443,1.0335 -2.382,1.3642 -0.94,0.3307 -2.026,0.496 -3.256,0.496 -1.404,0 -2.674,-0.2315 -3.813,-0.6885 -1.139,-0.456 -2.105,-1.0394 -2.9,-1.754 l 0.834,-1.35 c 0.107,-0.1724 0.233,-0.3047 0.378,-0.3968 0.145,-0.093 0.338,-0.1394 0.575,-0.1394 0.239,0 0.491,0.093 0.755,0.2776 0.265,0.1854 0.589,0.3909 0.966,0.6165 0.378,0.2244 0.834,0.4299 1.37,0.6153 0.537,0.1855 1.205,0.2776 2.013,0.2776 0.688,0 1.291,-0.092 1.807,-0.2717 0.516,-0.1783 0.946,-0.4169 1.29,-0.7204 0.345,-0.3048 0.602,-0.6555 0.769,-1.0524 0.165,-0.398 0.244,-0.8209 0.244,-1.2709 0,-0.5563 -0.145,-1.0192 -0.444,-1.3842 -0.298,-0.3638 -0.694,-0.6744 -1.185,-0.9331 -0.489,-0.2575 -1.045,-0.483 -1.673,-0.6744 -0.63,-0.1925 -1.271,-0.3909 -1.927,-0.6023 -0.655,-0.2126 -1.296,-0.4571 -1.926,-0.7288 -0.628,-0.2705 -1.192,-0.6083 -1.681,-1.0193 -0.49,-0.4098 -0.881,-0.9201 -1.178,-1.5224 -0.298,-0.6024 -0.45,-1.3299 -0.45,-2.1898 0,-0.7677 0.159,-1.5094 0.477,-2.2181 0.317,-0.7075 0.78,-1.3299 1.39,-1.8661 0.608,-0.5362 1.356,-0.9603 2.243,-1.278 0.887,-0.3177 1.9,-0.476 3.038,-0.476 1.324,0 2.515,0.2055 3.568,0.6225 1.052,0.4169 1.959,0.9921 2.727,1.7208 l -0.795,1.2898 z"
         id="_186872904123456789101112" />
      <path
         style="fill:#ffffff"
         inkscape:connector-curvature="0"
         class="fil12"
         d="m 18737.7,9302.06 c -0.105,0.1453 -0.211,0.2587 -0.318,0.3378 -0.105,0.079 -0.257,0.1193 -0.456,0.1193 -0.199,0 -0.411,-0.086 -0.642,-0.2516 -0.232,-0.1653 -0.529,-0.3449 -0.887,-0.5433 -0.358,-0.1984 -0.788,-0.3839 -1.297,-0.5492 -0.51,-0.1654 -1.139,-0.2445 -1.88,-0.2445 -0.979,0 -1.846,0.1713 -2.601,0.5221 -0.755,0.3507 -1.383,0.861 -1.893,1.5224 -0.509,0.6626 -0.893,1.4634 -1.152,2.4035 -0.257,0.939 -0.39,1.9914 -0.39,3.1571 0,1.2177 0.138,2.2961 0.417,3.2422 0.278,0.9472 0.669,1.7409 1.171,2.3834 0.503,0.6413 1.119,1.1315 1.84,1.4693 0.721,0.3378 1.529,0.5091 2.429,0.5091 0.86,0 1.569,-0.1052 2.125,-0.3107 0.556,-0.2055 1.019,-0.4299 1.39,-0.6815 0.37,-0.2515 0.675,-0.483 0.913,-0.6886 0.239,-0.2055 0.476,-0.3047 0.715,-0.3047 0.305,0 0.529,0.1122 0.675,0.3378 l 0.993,1.291 c -0.873,1.0724 -1.966,1.8531 -3.277,2.3492 -1.31,0.496 -2.693,0.7476 -4.149,0.7476 -1.258,0 -2.422,-0.2315 -3.502,-0.6945 -1.078,-0.463 -2.018,-1.1386 -2.812,-2.0185 -0.795,-0.8811 -1.416,-1.9594 -1.873,-3.2433 -0.457,-1.2839 -0.689,-2.7472 -0.689,-4.3878 0,-1.4965 0.211,-2.8795 0.628,-4.1504 0.417,-1.2709 1.027,-2.3693 1.828,-3.2894 0.8,-0.92 1.787,-1.6346 2.965,-2.1507 1.178,-0.5162 2.528,-0.7748 4.05,-0.7748 1.403,0 2.648,0.2244 3.734,0.6815 1.085,0.457 2.044,1.1055 2.878,1.9393 l -0.933,1.2709 z"
         id="_186872760" />
      <path
         style="fill:#ffffff"
         inkscape:connector-curvature="0"
         class="fil12"
         d="m 18741.4,9316.42 c 0,-0.3449 0.07,-0.6685 0.193,-0.9732 0.125,-0.3048 0.297,-0.5693 0.516,-0.7937 0.218,-0.2256 0.476,-0.404 0.78,-0.5362 0.305,-0.1323 0.63,-0.1997 0.974,-0.1997 0.343,0 0.668,0.067 0.973,0.1997 0.305,0.1322 0.569,0.3106 0.794,0.5362 0.225,0.2244 0.403,0.4889 0.53,0.7937 0.125,0.3047 0.184,0.6283 0.184,0.9732 0,0.3567 -0.06,0.6815 -0.184,0.9791 -0.127,0.2977 -0.305,0.5622 -0.53,0.7878 -0.225,0.2244 -0.489,0.3969 -0.794,0.5233 -0.305,0.1252 -0.63,0.1913 -0.973,0.1913 -0.344,0 -0.669,-0.066 -0.974,-0.1913 -0.304,-0.1264 -0.562,-0.2989 -0.78,-0.5233 -0.219,-0.2256 -0.391,-0.4901 -0.516,-0.7878 -0.127,-0.2976 -0.193,-0.6224 -0.193,-0.9791 z"
         id="_1868727601" />
      <polygon
         style="fill:#ffffff"
         points="18775.4,9318.6 18759.2,9318.6 18759.2,9290.15 18763,9290.15 18763,9315.36 18775.4,9315.36 "
         class="fil12"
         id="_18687276012" />
      <path
         style="fill:#ffffff"
         inkscape:connector-curvature="0"
         class="fil12"
         d="m 18783,9298.49 0,20.1142 -3.534,0 0,-20.1142 3.534,0 z m 0.795,-6.3142 c 0,0.3437 -0.07,0.6614 -0.206,0.9591 -0.139,0.2988 -0.324,0.5634 -0.556,0.7949 -0.231,0.2315 -0.503,0.4169 -0.807,0.5492 -0.304,0.1323 -0.629,0.1984 -0.973,0.1984 -0.345,0 -0.662,-0.066 -0.96,-0.1984 -0.298,-0.1323 -0.562,-0.3177 -0.794,-0.5492 -0.231,-0.2315 -0.417,-0.4961 -0.549,-0.7949 -0.132,-0.2977 -0.2,-0.6154 -0.2,-0.9591 0,-0.3449 0.07,-0.6756 0.2,-0.9862 0.132,-0.3106 0.318,-0.5823 0.549,-0.8138 0.232,-0.2315 0.496,-0.411 0.794,-0.5433 0.298,-0.1323 0.615,-0.1984 0.96,-0.1984 0.344,0 0.669,0.066 0.973,0.1984 0.304,0.1323 0.576,0.3118 0.807,0.5433 0.232,0.2315 0.417,0.5032 0.556,0.8138 0.14,0.3106 0.206,0.6413 0.206,0.9862 z"
         id="_186872760123" />
      <path
         style="fill:#ffffff"
         inkscape:connector-curvature="0"
         class="fil12"
         d="m 18789.2,9318.6 0,-20.1142 2.105,0 c 0.503,0 0.821,0.2445 0.953,0.7346 l 0.279,2.1839 c 0.874,-0.9661 1.853,-1.7468 2.931,-2.3433 1.08,-0.5953 2.323,-0.8929 3.739,-0.8929 1.1,0 2.072,0.1783 2.913,0.5421 0.841,0.365 1.543,0.8811 2.105,1.5496 0.563,0.6685 0.986,1.4752 1.278,2.4154 0.29,0.9401 0.437,1.9795 0.437,3.1181 V 9318.6 h -3.535 v -12.8067 c 0,-1.5225 -0.344,-2.7071 -1.04,-3.5481 -0.694,-0.8409 -1.759,-1.2578 -3.19,-1.2578 -1.045,0 -2.018,0.2516 -2.925,0.7547 -0.906,0.5032 -1.747,1.1847 -2.515,2.0457 V 9318.6 h -3.535 z"
         id="_1868727601234" />
      <path
         style="fill:#ffffff"
         inkscape:connector-curvature="0"
         class="fil12"
         d="m 18819.3,9298.17 c 1.205,0 2.316,0.1984 3.335,0.6024 1.02,0.4039 1.901,0.9862 2.641,1.7468 0.742,0.7618 1.324,1.702 1.741,2.8205 0.417,1.1185 0.623,2.3953 0.623,3.8256 0,0.5551 -0.06,0.926 -0.18,1.1114 -0.118,0.1854 -0.343,0.2776 -0.674,0.2776 h -13.383 c 0.03,1.2708 0.198,2.3763 0.516,3.3165 0.318,0.9401 0.755,1.7209 1.311,2.3492 0.555,0.6295 1.218,1.0984 1.985,1.4102 0.768,0.3107 1.628,0.4701 2.581,0.4701 0.887,0 1.655,-0.1063 2.297,-0.3118 0.642,-0.2043 1.191,-0.4228 1.655,-0.6614 0.463,-0.2386 0.854,-0.463 1.165,-0.6685 0.31,-0.2055 0.575,-0.3047 0.8,-0.3047 0.292,0 0.516,0.1122 0.676,0.3378 l 0.992,1.2909 c -0.437,0.5291 -0.959,0.9862 -1.568,1.376 -0.609,0.3909 -1.258,0.7157 -1.953,0.9673 -0.694,0.2504 -1.416,0.4358 -2.158,0.5622 -0.741,0.1252 -1.476,0.1913 -2.204,0.1913 -1.39,0 -2.667,-0.2374 -3.838,-0.7074 -1.172,-0.4701 -2.184,-1.1587 -3.038,-2.0658 -0.854,-0.9059 -1.522,-2.0244 -2,-3.3614 -0.476,-1.337 -0.714,-2.8724 -0.714,-4.6075 0,-1.4031 0.218,-2.713 0.648,-3.9307 0.43,-1.2177 1.047,-2.2772 1.853,-3.1713 0.808,-0.8929 1.794,-1.5944 2.959,-2.1047 1.165,-0.509 2.476,-0.7606 3.932,-0.7606 z m 0.08,2.6008 c -1.708,0 -3.051,0.4901 -4.031,1.4764 -0.979,0.9862 -1.589,2.3563 -1.826,4.1031 h 10.941 c 0,-0.8208 -0.113,-1.5744 -0.338,-2.2571 -0.225,-0.6815 -0.556,-1.2708 -0.992,-1.7669 -0.437,-0.4961 -0.968,-0.8799 -1.596,-1.1516 -0.628,-0.2716 -1.35,-0.4039 -2.158,-0.4039 z"
         id="_18687276012345" />
      <path
         style="fill:#ffffff"
         inkscape:connector-curvature="0"
         class="fil12"
         d="m 18846.9,9318.6 -1.569,0 c -0.343,0 -0.622,-0.053 -0.833,-0.1583 -0.212,-0.1063 -0.351,-0.3319 -0.417,-0.6756 l -0.397,-1.8661 c -0.53,0.476 -1.047,0.9 -1.55,1.2768 -0.502,0.3779 -1.032,0.6956 -1.587,0.9531 -0.556,0.2587 -1.146,0.4571 -1.774,0.5894 -0.63,0.1323 -1.331,0.1984 -2.099,0.1984 -0.781,0 -1.508,-0.1122 -2.191,-0.3307 -0.681,-0.2185 -1.277,-0.5433 -1.78,-0.9862 -0.503,-0.437 -0.9,-0.9933 -1.197,-1.6618 -0.298,-0.6685 -0.45,-1.4622 -0.45,-2.3823 0,-0.7949 0.218,-1.5626 0.654,-2.2972 0.437,-0.7406 1.146,-1.3961 2.119,-1.9654 0.972,-0.5693 2.243,-1.0394 3.818,-1.4031 1.576,-0.3638 3.502,-0.5493 5.778,-0.5493 v -1.5755 c 0,-1.5756 -0.331,-2.7662 -0.999,-3.567 -0.669,-0.8078 -1.662,-1.2118 -2.972,-1.2118 -0.861,0 -1.581,0.1063 -2.171,0.3248 -0.589,0.2185 -1.098,0.463 -1.529,0.7347 -0.43,0.2716 -0.801,0.5161 -1.111,0.7346 -0.311,0.2185 -0.623,0.3307 -0.928,0.3307 -0.237,0 -0.443,-0.066 -0.621,-0.1913 -0.179,-0.1264 -0.325,-0.2788 -0.431,-0.4642 l -0.635,-1.1315 c 1.112,-1.0724 2.31,-1.8732 3.594,-2.4024 1.284,-0.5303 2.707,-0.7948 4.269,-0.7948 1.125,0 2.125,0.1854 2.998,0.5563 0.874,0.3708 1.609,0.887 2.204,1.5484 0.596,0.6626 1.046,1.4634 1.351,2.4035 0.304,0.939 0.456,1.9713 0.456,3.0969 V 9318.6 z m -9.174,-2.1638 c 0.623,0 1.192,-0.066 1.708,-0.1925 0.516,-0.1252 1.007,-0.3047 1.464,-0.5362 0.456,-0.2315 0.893,-0.5091 1.309,-0.841 0.417,-0.3307 0.821,-0.7074 1.218,-1.1315 v -4.1492 c -1.627,0 -3.012,0.1051 -4.149,0.3107 -1.139,0.2055 -2.066,0.4759 -2.78,0.8078 -0.715,0.3307 -1.231,0.7276 -1.556,1.1776 -0.323,0.45 -0.49,0.9602 -0.49,1.5153 0,0.5363 0.09,0.9933 0.259,1.3843 0.172,0.3838 0.404,0.7016 0.694,0.9461 0.292,0.2444 0.636,0.424 1.034,0.5362 0.396,0.1122 0.826,0.1724 1.289,0.1724 z"
         id="_186872760123456" />
      <path
         style="fill:#ffffff"
         inkscape:connector-curvature="0"
         class="fil12"
         d="m 18860,9318.6 0,-29.2476 3.555,0 0,12.0319 c 0.834,-0.9661 1.793,-1.7468 2.873,-2.3362 1.078,-0.5882 2.309,-0.8799 3.699,-0.8799 1.164,0 2.217,0.2185 3.157,0.6555 0.94,0.437 1.741,1.0854 2.402,1.9523 0.663,0.867 1.172,1.9394 1.53,3.2162 0.358,1.2779 0.536,2.7543 0.536,4.422 0,1.4823 -0.198,2.8595 -0.596,4.1362 -0.397,1.278 -0.967,2.3823 -1.714,3.3166 -0.748,0.9331 -1.661,1.6677 -2.74,2.2039 -1.079,0.5362 -2.296,0.8067 -3.648,0.8067 -1.297,0 -2.395,-0.2516 -3.302,-0.7535 -0.907,-0.5032 -1.701,-1.2047 -2.376,-2.1047 l -0.179,1.8259 c -0.106,0.5032 -0.41,0.7548 -0.913,0.7548 H 18860 z m 8.975,-17.6126 c -1.151,0 -2.158,0.2646 -3.025,0.7949 -0.867,0.5291 -1.667,1.2768 -2.395,2.2429 v 9.7299 c 0.636,0.874 1.343,1.4894 2.118,1.8461 0.773,0.3578 1.634,0.5362 2.588,0.5362 1.879,0 3.322,-0.6685 4.328,-2.0055 1.007,-1.337 1.51,-3.2421 1.51,-5.7177 0,-1.3111 -0.114,-2.4366 -0.345,-3.3756 -0.232,-0.9402 -0.569,-1.715 -1.006,-2.3173 -0.437,-0.6024 -0.972,-1.0382 -1.608,-1.317 -0.635,-0.2775 -1.357,-0.4169 -2.165,-0.4169 z"
         id="_1868727601234567" />
      <path
         style="fill:#ffffff"
         inkscape:connector-curvature="0"
         class="fil12"
         d="m 18896.9,9318.6 -1.569,0 c -0.343,0 -0.622,-0.053 -0.833,-0.1583 -0.212,-0.1063 -0.351,-0.3319 -0.417,-0.6756 l -0.397,-1.8661 c -0.53,0.476 -1.047,0.9 -1.55,1.2768 -0.502,0.3779 -1.032,0.6956 -1.587,0.9531 -0.556,0.2587 -1.146,0.4571 -1.774,0.5894 -0.63,0.1323 -1.331,0.1984 -2.099,0.1984 -0.781,0 -1.508,-0.1122 -2.191,-0.3307 -0.681,-0.2185 -1.277,-0.5433 -1.78,-0.9862 -0.503,-0.437 -0.9,-0.9933 -1.197,-1.6618 -0.298,-0.6685 -0.45,-1.4622 -0.45,-2.3823 0,-0.7949 0.218,-1.5626 0.654,-2.2972 0.437,-0.7406 1.146,-1.3961 2.119,-1.9654 0.972,-0.5693 2.243,-1.0394 3.818,-1.4031 1.576,-0.3638 3.502,-0.5493 5.778,-0.5493 v -1.5755 c 0,-1.5756 -0.331,-2.7662 -0.999,-3.567 -0.669,-0.8078 -1.662,-1.2118 -2.972,-1.2118 -0.861,0 -1.581,0.1063 -2.171,0.3248 -0.589,0.2185 -1.098,0.463 -1.529,0.7347 -0.43,0.2716 -0.801,0.5161 -1.111,0.7346 -0.311,0.2185 -0.623,0.3307 -0.928,0.3307 -0.237,0 -0.443,-0.066 -0.621,-0.1913 -0.179,-0.1264 -0.325,-0.2788 -0.431,-0.4642 l -0.635,-1.1315 c 1.112,-1.0724 2.31,-1.8732 3.594,-2.4024 1.284,-0.5303 2.707,-0.7948 4.269,-0.7948 1.125,0 2.125,0.1854 2.998,0.5563 0.874,0.3708 1.609,0.887 2.204,1.5484 0.596,0.6626 1.046,1.4634 1.351,2.4035 0.304,0.939 0.456,1.9713 0.456,3.0969 V 9318.6 z m -9.174,-2.1638 c 0.623,0 1.192,-0.066 1.708,-0.1925 0.516,-0.1252 1.007,-0.3047 1.464,-0.5362 0.456,-0.2315 0.893,-0.5091 1.309,-0.841 0.417,-0.3307 0.821,-0.7074 1.218,-1.1315 v -4.1492 c -1.627,0 -3.012,0.1051 -4.149,0.3107 -1.139,0.2055 -2.066,0.4759 -2.78,0.8078 -0.715,0.3307 -1.231,0.7276 -1.556,1.1776 -0.323,0.45 -0.49,0.9602 -0.49,1.5153 0,0.5363 0.09,0.9933 0.259,1.3843 0.172,0.3838 0.404,0.7016 0.694,0.9461 0.292,0.2444 0.636,0.424 1.034,0.5362 0.396,0.1122 0.826,0.1724 1.289,0.1724 z"
         id="_18687276012345678" />
      <path
         style="fill:#ffffff"
         inkscape:connector-curvature="0"
         class="fil12"
         d="m 18913.7,9301.8 c -0.158,0.2917 -0.404,0.437 -0.735,0.437 -0.198,0 -0.424,-0.072 -0.674,-0.2185 -0.252,-0.1453 -0.556,-0.3106 -0.92,-0.489 -0.365,-0.1795 -0.801,-0.3449 -1.304,-0.4972 -0.503,-0.1512 -1.1,-0.2244 -1.787,-0.2244 -0.597,0 -1.133,0.073 -1.609,0.2244 -0.477,0.1523 -0.88,0.3649 -1.217,0.6295 -0.338,0.2646 -0.597,0.5693 -0.775,0.9201 -0.179,0.3508 -0.272,0.7346 -0.272,1.1445 0,0.5161 0.152,0.9472 0.45,1.2909 0.299,0.3437 0.689,0.6425 1.179,0.8929 0.49,0.2516 1.045,0.4701 1.668,0.6626 0.622,0.1914 1.263,0.3969 1.919,0.6154 0.655,0.2185 1.291,0.463 1.913,0.7275 0.621,0.2658 1.178,0.5965 1.668,0.9934 0.49,0.3968 0.887,0.8799 1.185,1.4563 0.297,0.5751 0.443,1.2708 0.443,2.0775 0,0.9272 -0.166,1.7811 -0.497,2.5689 -0.33,0.7878 -0.82,1.4693 -1.469,2.0445 -0.648,0.5764 -1.443,1.0335 -2.382,1.3642 -0.94,0.3307 -2.026,0.496 -3.256,0.496 -1.404,0 -2.674,-0.2315 -3.813,-0.6885 -1.139,-0.456 -2.105,-1.0394 -2.9,-1.754 l 0.834,-1.35 c 0.107,-0.1724 0.233,-0.3047 0.378,-0.3968 0.145,-0.093 0.338,-0.1394 0.575,-0.1394 0.239,0 0.491,0.093 0.755,0.2776 0.265,0.1854 0.589,0.3909 0.966,0.6165 0.378,0.2244 0.834,0.4299 1.37,0.6153 0.537,0.1855 1.205,0.2776 2.013,0.2776 0.688,0 1.291,-0.092 1.807,-0.2717 0.516,-0.1783 0.946,-0.4169 1.29,-0.7204 0.345,-0.3048 0.602,-0.6555 0.769,-1.0524 0.165,-0.398 0.244,-0.8209 0.244,-1.2709 0,-0.5563 -0.145,-1.0192 -0.444,-1.3842 -0.298,-0.3638 -0.694,-0.6744 -1.185,-0.9331 -0.489,-0.2575 -1.045,-0.483 -1.673,-0.6744 -0.63,-0.1925 -1.271,-0.3909 -1.927,-0.6023 -0.655,-0.2126 -1.296,-0.4571 -1.926,-0.7288 -0.628,-0.2705 -1.192,-0.6083 -1.681,-1.0193 -0.49,-0.4098 -0.881,-0.9201 -1.178,-1.5224 -0.298,-0.6024 -0.45,-1.3299 -0.45,-2.1898 0,-0.7677 0.159,-1.5094 0.477,-2.2181 0.317,-0.7075 0.78,-1.3299 1.39,-1.8661 0.608,-0.5362 1.356,-0.9603 2.243,-1.278 0.887,-0.3177 1.9,-0.476 3.038,-0.476 1.324,0 2.515,0.2055 3.568,0.6225 1.052,0.4169 1.959,0.9921 2.727,1.7208 l -0.795,1.2898 z"
         id="_186872760123456789" />
      <path
         style="fill:#ffffff"
         inkscape:connector-curvature="0"
         class="fil12"
         d="m 18927.4,9298.17 c 1.205,0 2.316,0.1984 3.335,0.6024 1.02,0.4039 1.901,0.9862 2.641,1.7468 0.742,0.7618 1.324,1.702 1.741,2.8205 0.417,1.1185 0.623,2.3953 0.623,3.8256 0,0.5551 -0.06,0.926 -0.18,1.1114 -0.118,0.1854 -0.343,0.2776 -0.674,0.2776 h -13.383 c 0.03,1.2708 0.198,2.3763 0.516,3.3165 0.318,0.9401 0.755,1.7209 1.311,2.3492 0.555,0.6295 1.218,1.0984 1.985,1.4102 0.768,0.3107 1.628,0.4701 2.581,0.4701 0.887,0 1.655,-0.1063 2.297,-0.3118 0.642,-0.2043 1.191,-0.4228 1.655,-0.6614 0.463,-0.2386 0.854,-0.463 1.165,-0.6685 0.31,-0.2055 0.575,-0.3047 0.8,-0.3047 0.292,0 0.516,0.1122 0.676,0.3378 l 0.992,1.2909 c -0.437,0.5291 -0.959,0.9862 -1.568,1.376 -0.609,0.3909 -1.258,0.7157 -1.953,0.9673 -0.694,0.2504 -1.416,0.4358 -2.158,0.5622 -0.741,0.1252 -1.476,0.1913 -2.204,0.1913 -1.39,0 -2.667,-0.2374 -3.838,-0.7074 -1.172,-0.4701 -2.184,-1.1587 -3.038,-2.0658 -0.854,-0.9059 -1.522,-2.0244 -2,-3.3614 -0.476,-1.337 -0.714,-2.8724 -0.714,-4.6075 0,-1.4031 0.218,-2.713 0.648,-3.9307 0.43,-1.2177 1.047,-2.2772 1.853,-3.1713 0.808,-0.8929 1.794,-1.5944 2.959,-2.1047 1.165,-0.509 2.476,-0.7606 3.932,-0.7606 z m 0.08,2.6008 c -1.708,0 -3.051,0.4901 -4.031,1.4764 -0.979,0.9862 -1.589,2.3563 -1.826,4.1031 h 10.941 c 0,-0.8208 -0.113,-1.5744 -0.338,-2.2571 -0.225,-0.6815 -0.556,-1.2708 -0.992,-1.7669 -0.437,-0.4961 -0.968,-0.8799 -1.596,-1.1516 -0.628,-0.2716 -1.35,-0.4039 -2.158,-0.4039 z"
         id="_18687276012345678910" />
      <path
         style="fill:#ffffff"
         inkscape:connector-curvature="0"
         class="fil12"
         d="m 18738.2,9362.88 c -0.503,0 -0.821,-0.2445 -0.953,-0.7346 l -0.318,-2.4426 c -0.86,1.0465 -1.84,1.8803 -2.946,2.5087 -1.104,0.6283 -2.375,0.9461 -3.805,0.9461 -1.152,0 -2.197,-0.2245 -3.137,-0.6685 -0.94,-0.443 -1.741,-1.0914 -2.402,-1.9524 -0.663,-0.8599 -1.172,-1.9323 -1.53,-3.2161 -0.357,-1.2839 -0.536,-2.7603 -0.536,-4.428 0,-1.4823 0.199,-2.8665 0.596,-4.1433 0.397,-1.278 0.974,-2.3835 1.721,-3.3224 0.748,-0.9402 1.655,-1.6819 2.727,-2.2182 1.072,-0.5362 2.289,-0.8007 3.653,-0.8007 1.231,0 2.284,0.2055 3.158,0.6224 0.874,0.4169 1.654,1.0063 2.343,1.761 v -11.1591 h 3.534 v 29.2476 h -2.105 z m -6.85,-2.5807 c 1.151,0 2.165,-0.2658 3.031,-0.7949 0.867,-0.5291 1.661,-1.2768 2.39,-2.2441 v -9.7287 c -0.65,-0.874 -1.357,-1.4894 -2.132,-1.8402 -0.774,-0.3508 -1.635,-0.5232 -2.575,-0.5232 -1.879,0 -3.322,0.6685 -4.329,2.0055 -1.005,1.337 -1.508,3.2433 -1.508,5.7189 0,1.3098 0.112,2.4283 0.338,3.3626 0.224,0.9331 0.555,1.7008 0.992,2.3031 0.437,0.6024 0.973,1.0453 1.609,1.3229 0.635,0.2787 1.363,0.4181 2.184,0.4181 z"
         id="_186872616" />
      <path
         style="fill:#ffffff"
         inkscape:connector-curvature="0"
         class="fil12"
         d="m 18745,9360.7 c 0,-0.3449 0.07,-0.6685 0.193,-0.9732 0.125,-0.3048 0.297,-0.5693 0.516,-0.7937 0.218,-0.2256 0.476,-0.404 0.78,-0.5362 0.305,-0.1323 0.63,-0.1997 0.974,-0.1997 0.343,0 0.668,0.067 0.973,0.1997 0.305,0.1322 0.569,0.3106 0.794,0.5362 0.225,0.2244 0.403,0.4889 0.53,0.7937 0.125,0.3047 0.184,0.6283 0.184,0.9732 0,0.3567 -0.06,0.6815 -0.184,0.9791 -0.127,0.2977 -0.305,0.5622 -0.53,0.7878 -0.225,0.2244 -0.489,0.3969 -0.794,0.5233 -0.305,0.1252 -0.63,0.1913 -0.973,0.1913 -0.344,0 -0.669,-0.066 -0.974,-0.1913 -0.304,-0.1264 -0.562,-0.2989 -0.78,-0.5233 -0.219,-0.2256 -0.391,-0.4901 -0.516,-0.7878 -0.127,-0.2976 -0.193,-0.6224 -0.193,-0.9791 z"
         id="_1868726161" />
      <path
         style="fill:#ffffff"
         inkscape:connector-curvature="0"
         class="fil12"
         d="m 18776.8,9352.59 c 0.185,0.3177 0.351,0.6484 0.49,0.9992 0.14,0.3508 0.272,0.7075 0.404,1.0654 0.132,-0.3709 0.272,-0.7276 0.417,-1.0654 0.145,-0.3378 0.311,-0.6756 0.496,-1.0193 l 9.631,-17.4933 c 0.171,-0.3047 0.351,-0.4901 0.536,-0.5563 0.185,-0.066 0.45,-0.099 0.794,-0.099 h 2.839 v 28.4539 h -3.376 v -20.9091 c 0,-0.2775 0,-0.5752 0.02,-0.8929 0.01,-0.3177 0.03,-0.6425 0.06,-0.9732 l -9.749,17.7909 c -0.331,0.5964 -0.794,0.8941 -1.39,0.8941 h -0.557 c -0.595,0 -1.058,-0.2977 -1.389,-0.8941 l -9.968,-17.85 c 0.04,0.3437 0.07,0.6815 0.09,1.0122 0.02,0.3307 0.03,0.6354 0.03,0.913 v 20.9091 h -3.375 v -28.4539 h 2.839 c 0.345,0 0.609,0.033 0.795,0.099 0.185,0.066 0.364,0.2515 0.536,0.5563 l 9.828,17.5134 z"
         id="_18687261612" />
      <path
         style="fill:#ffffff"
         inkscape:connector-curvature="0"
         class="fil12"
         d="m 18806.8,9342.45 c 1.205,0 2.316,0.1984 3.335,0.6024 1.02,0.4039 1.901,0.9862 2.641,1.7468 0.742,0.7618 1.324,1.702 1.741,2.8205 0.417,1.1185 0.623,2.3953 0.623,3.8256 0,0.5551 -0.06,0.926 -0.18,1.1114 -0.118,0.1854 -0.343,0.2776 -0.674,0.2776 h -13.383 c 0.03,1.2708 0.198,2.3763 0.516,3.3165 0.318,0.9401 0.755,1.7209 1.311,2.3492 0.555,0.6295 1.218,1.0984 1.985,1.4102 0.768,0.3107 1.628,0.4701 2.581,0.4701 0.887,0 1.655,-0.1063 2.297,-0.3118 0.642,-0.2043 1.191,-0.4228 1.655,-0.6614 0.463,-0.2386 0.854,-0.463 1.165,-0.6685 0.31,-0.2055 0.575,-0.3047 0.8,-0.3047 0.292,0 0.516,0.1122 0.676,0.3378 l 0.992,1.2909 c -0.437,0.5291 -0.959,0.9862 -1.568,1.376 -0.609,0.3909 -1.258,0.7157 -1.953,0.9673 -0.694,0.2504 -1.416,0.4358 -2.158,0.5622 -0.741,0.1252 -1.476,0.1913 -2.204,0.1913 -1.39,0 -2.667,-0.2374 -3.838,-0.7074 -1.172,-0.4701 -2.184,-1.1587 -3.038,-2.0658 -0.854,-0.9059 -1.522,-2.0244 -2,-3.3614 -0.476,-1.337 -0.714,-2.8724 -0.714,-4.6075 0,-1.4031 0.218,-2.713 0.648,-3.9307 0.43,-1.2177 1.047,-2.2772 1.853,-3.1713 0.808,-0.8929 1.794,-1.5944 2.959,-2.1047 1.165,-0.509 2.476,-0.7606 3.932,-0.7606 z m 0.08,2.6008 c -1.708,0 -3.051,0.4901 -4.031,1.4764 -0.979,0.9862 -1.589,2.3563 -1.826,4.1031 h 10.941 c 0,-0.8208 -0.113,-1.5744 -0.338,-2.2571 -0.225,-0.6815 -0.556,-1.2708 -0.992,-1.7669 -0.437,-0.4961 -0.968,-0.8799 -1.596,-1.1516 -0.628,-0.2716 -1.35,-0.4039 -2.158,-0.4039 z"
         id="_186872616123" />
      <path
         style="fill:#ffffff"
         inkscape:connector-curvature="0"
         class="fil12"
         d="m 18825.7,9363.2 c -1.589,0 -2.806,-0.4429 -3.66,-1.3299 -0.854,-0.887 -1.284,-2.165 -1.284,-3.8327 v -12.3106 h -2.423 c -0.212,0 -0.39,-0.066 -0.536,-0.1925 -0.146,-0.1252 -0.218,-0.3177 -0.218,-0.5823 v -1.4091 l 3.295,-0.4169 0.815,-6.215 c 0.03,-0.1996 0.112,-0.3649 0.257,-0.4901 0.147,-0.1264 0.331,-0.1854 0.557,-0.1854 h 1.787 v 6.9295 h 5.758 v 2.5618 h -5.758 v 12.072 c 0,0.848 0.205,1.4764 0.615,1.8862 0.411,0.411 0.94,0.6166 1.589,0.6166 0.371,0 0.694,-0.053 0.966,-0.1524 0.271,-0.099 0.503,-0.2055 0.701,-0.3248 0.199,-0.1193 0.371,-0.2315 0.511,-0.3307 0.138,-0.099 0.257,-0.1453 0.363,-0.1453 0.186,0 0.351,0.1122 0.496,0.3366 l 1.033,1.6878 c -0.608,0.5693 -1.343,1.0134 -2.204,1.337 -0.86,0.3248 -1.747,0.4902 -2.66,0.4902 z"
         id="_1868726161234" />
      <path
         style="fill:#ffffff"
         inkscape:connector-curvature="0"
         class="fil12"
         d="m 18849.2,9362.88 -1.569,0 c -0.343,0 -0.622,-0.053 -0.833,-0.1583 -0.212,-0.1063 -0.351,-0.3319 -0.417,-0.6756 l -0.397,-1.8661 c -0.53,0.476 -1.047,0.9 -1.55,1.2768 -0.502,0.3779 -1.032,0.6956 -1.587,0.9531 -0.556,0.2587 -1.146,0.4571 -1.774,0.5894 -0.63,0.1323 -1.331,0.1984 -2.099,0.1984 -0.781,0 -1.508,-0.1122 -2.191,-0.3307 -0.681,-0.2185 -1.277,-0.5433 -1.78,-0.9862 -0.503,-0.437 -0.9,-0.9933 -1.197,-1.6618 -0.298,-0.6685 -0.45,-1.4622 -0.45,-2.3823 0,-0.7949 0.218,-1.5626 0.654,-2.2972 0.437,-0.7406 1.146,-1.3961 2.119,-1.9654 0.972,-0.5693 2.243,-1.0394 3.818,-1.4031 1.576,-0.3638 3.502,-0.5493 5.778,-0.5493 v -1.5755 c 0,-1.5756 -0.331,-2.7662 -0.999,-3.567 -0.669,-0.8079 -1.662,-1.2118 -2.972,-1.2118 -0.861,0 -1.581,0.1063 -2.171,0.3248 -0.589,0.2185 -1.098,0.463 -1.529,0.7347 -0.43,0.2716 -0.801,0.5161 -1.111,0.7346 -0.311,0.2185 -0.623,0.3307 -0.928,0.3307 -0.237,0 -0.443,-0.066 -0.621,-0.1913 -0.179,-0.1264 -0.325,-0.2788 -0.431,-0.4642 l -0.635,-1.1315 c 1.112,-1.0724 2.31,-1.8732 3.594,-2.4024 1.284,-0.5303 2.707,-0.7948 4.269,-0.7948 1.125,0 2.125,0.1854 2.998,0.5563 0.874,0.3708 1.609,0.887 2.204,1.5484 0.596,0.6626 1.046,1.4634 1.351,2.4035 0.304,0.939 0.456,1.9713 0.456,3.0969 v 12.8669 z m -9.174,-2.1638 c 0.623,0 1.192,-0.066 1.708,-0.1925 0.516,-0.1252 1.007,-0.3047 1.464,-0.5362 0.456,-0.2315 0.893,-0.5091 1.309,-0.841 0.417,-0.3307 0.821,-0.7074 1.218,-1.1315 v -4.1492 c -1.627,0 -3.012,0.1051 -4.149,0.3107 -1.139,0.2055 -2.066,0.4759 -2.78,0.8078 -0.715,0.3307 -1.231,0.7276 -1.556,1.1776 -0.323,0.45 -0.49,0.9602 -0.49,1.5153 0,0.5363 0.09,0.9933 0.259,1.3843 0.172,0.3838 0.404,0.7016 0.694,0.9461 0.292,0.2444 0.636,0.424 1.034,0.5362 0.396,0.1122 0.826,0.1724 1.289,0.1724 z"
         id="_18687261612345" />
      <path
         style="fill:#ffffff"
         inkscape:connector-curvature="0"
         class="fil12"
         d="m 18866.1,9346.08 c -0.158,0.2917 -0.404,0.437 -0.735,0.437 -0.198,0 -0.424,-0.072 -0.674,-0.2185 -0.252,-0.1453 -0.556,-0.3106 -0.92,-0.489 -0.365,-0.1795 -0.801,-0.3449 -1.304,-0.4972 -0.503,-0.1512 -1.1,-0.2244 -1.787,-0.2244 -0.597,0 -1.133,0.073 -1.609,0.2244 -0.477,0.1523 -0.88,0.3649 -1.217,0.6295 -0.338,0.2646 -0.597,0.5693 -0.775,0.9201 -0.179,0.3508 -0.272,0.7346 -0.272,1.1445 0,0.5161 0.152,0.9472 0.45,1.2909 0.299,0.3437 0.689,0.6425 1.179,0.8929 0.49,0.2516 1.045,0.4701 1.668,0.6626 0.622,0.1914 1.263,0.3969 1.919,0.6154 0.655,0.2185 1.291,0.463 1.913,0.7275 0.621,0.2658 1.178,0.5965 1.668,0.9934 0.49,0.3968 0.887,0.8799 1.185,1.4563 0.297,0.5751 0.443,1.2708 0.443,2.0775 0,0.9272 -0.166,1.7811 -0.497,2.5689 -0.33,0.7878 -0.82,1.4693 -1.469,2.0445 -0.648,0.5764 -1.443,1.0335 -2.382,1.3642 -0.94,0.3307 -2.026,0.496 -3.256,0.496 -1.404,0 -2.674,-0.2315 -3.813,-0.6885 -1.139,-0.456 -2.105,-1.0394 -2.9,-1.754 l 0.834,-1.35 c 0.107,-0.1724 0.233,-0.3047 0.378,-0.3968 0.145,-0.093 0.338,-0.1394 0.575,-0.1394 0.239,0 0.491,0.093 0.755,0.2776 0.265,0.1854 0.589,0.3909 0.966,0.6165 0.378,0.2244 0.834,0.4299 1.37,0.6153 0.537,0.1855 1.205,0.2776 2.013,0.2776 0.688,0 1.291,-0.092 1.807,-0.2717 0.516,-0.1783 0.946,-0.4169 1.29,-0.7204 0.345,-0.3048 0.602,-0.6555 0.769,-1.0524 0.165,-0.398 0.244,-0.8209 0.244,-1.2709 0,-0.5563 -0.145,-1.0192 -0.444,-1.3842 -0.298,-0.3638 -0.694,-0.6744 -1.185,-0.9331 -0.489,-0.2575 -1.045,-0.483 -1.673,-0.6744 -0.63,-0.1925 -1.271,-0.3909 -1.927,-0.6023 -0.655,-0.2126 -1.296,-0.4571 -1.926,-0.7288 -0.628,-0.2705 -1.192,-0.6083 -1.681,-1.0193 -0.49,-0.4098 -0.881,-0.9201 -1.178,-1.5224 -0.298,-0.6024 -0.45,-1.3299 -0.45,-2.1898 0,-0.7677 0.159,-1.5094 0.477,-2.2181 0.317,-0.7075 0.78,-1.3299 1.39,-1.8661 0.608,-0.5362 1.356,-0.9603 2.243,-1.278 0.887,-0.3177 1.9,-0.476 3.038,-0.476 1.324,0 2.515,0.2055 3.568,0.6225 1.052,0.4169 1.959,0.9921 2.727,1.7208 l -0.795,1.2898 z"
         id="_186872616123456" />
    </g>
    <rect
       style="fill:#024059;fill-rule:evenodd"
       class="fil4"
       x="225.14304"
       y="271.84457"
       width="302.04004"
       height="190.6519"
       id="_186870144" />
    <g
       style="fill-rule:evenodd"
       transform="matrix(0.83017167,0,0,0.83017167,-15789.555,-7302.1112)"
       id="g56235">
      <g
         style="fill:none;stroke:#ffffff;stroke-width:2.36220002"
         id="g56237">
        <line
           class="fil21 str2"
           y2="9164.4697"
           x2="19615.5"
           y1="9164.4697"
           x1="19355"
           id="_186870048" />
        <line
           class="fil21 str2"
           y2="9137.7695"
           x2="19377.1"
           y1="9315.8398"
           x1="19377.1"
           id="_186869952" />
        <line
           class="fil21 str2"
           y2="9214.9199"
           x2="19615.5"
           y1="9214.9199"
           x1="19355"
           id="_186869856" />
        <line
           class="fil21 str2"
           y2="9265.3799"
           x2="19615.5"
           y1="9265.3799"
           x1="19355"
           id="_186869736" />
        <line
           class="fil21 str2"
           y2="9315.8398"
           x2="19615.5"
           y1="9315.8398"
           x1="19355"
           id="_186869664" />
      </g>
      <rect
         style="fill:#ffffff"
         class="fil11"
         x="19414.9"
         y="9238.3896"
         width="41.3736"
         height="77.444298"
         id="_186869496" />
      <rect
         style="fill:#ffffff"
         class="fil11"
         x="19478.699"
         y="9214.9199"
         width="41.3736"
         height="100.914"
         id="_186869376" />
      <rect
         style="fill:#ffffff"
         class="fil11"
         x="19542.5"
         y="9150.3896"
         width="41.3736"
         height="165.451"
         id="_186869256" />
      <polygon
         style="fill:none;stroke:#ffffff;stroke-width:2.36220002"
         class="fil21 str2"
         points="19488.7,9338.6 19492.1,9333.06 19495.6,9327.51 19499,9333.06 19502.4,9338.6 19495.6,9338.6 "
         id="_186869160" />
      <polygon
         style="fill:none;stroke:#ffffff;stroke-width:2.36220002"
         class="fil21 str2"
         points="19329.9,9236.51 19335.4,9233.08 19340.9,9229.65 19335.4,9226.22 19329.9,9222.79 19329.9,9229.65 "
         id="_186869064" />
      <polygon
         style="fill:none;stroke:#ffffff;stroke-width:2.36220002"
         class="fil21 str2"
         points="19429,9338.6 19432.5,9333.06 19435.9,9327.51 19439.3,9333.06 19442.8,9338.6 19435.9,9338.6 "
         id="_186868968" />
      <polygon
         style="fill:none;stroke:#ffffff;stroke-width:2.36220002"
         class="fil21 str2"
         points="19329.9,9296.19 19335.4,9292.76 19340.9,9289.33 19335.4,9285.9 19329.9,9282.47 19329.9,9289.33 "
         id="_186868872" />
      <polygon
         style="fill:none;stroke:#ffffff;stroke-width:2.36220002"
         class="fil21 str2"
         points="19548.4,9338.6 19551.8,9333.06 19555.2,9327.51 19558.7,9333.06 19562.1,9338.6 19555.2,9338.6 "
         id="_186868752" />
      <polygon
         style="fill:none;stroke:#ffffff;stroke-width:2.36220002"
         class="fil21 str2"
         points="19329.9,9176.84 19335.4,9173.41 19340.9,9169.98 19335.4,9166.55 19329.9,9163.12 19329.9,9169.98 "
         id="_186868728" />
    </g>
  </g>
</svg>
