<?xml version="1.0" encoding="UTF-8" standalone="no"?>
<!-- Created with Inkscape (http://www.inkscape.org/) -->
<svg id="svg3414" xmlns:rdf="http://www.w3.org/1999/02/22-rdf-syntax-ns#" xmlns="http://www.w3.org/2000/svg" height="80" width="78.53" version="1.1" xmlns:cc="http://creativecommons.org/ns#" xmlns:dc="http://purl.org/dc/elements/1.1/">
<metadata id="metadata3419">
<rdf:RDF>
<cc:Work rdf:about="">
<dc:format>image/svg+xml</dc:format>
<dc:type rdf:resource="http://purl.org/dc/dcmitype/StillImage"/>
<dc:title/>
</cc:Work>
</rdf:RDF>
</metadata>
<g id="layer1" transform="translate(0,-972.36218)">
<circle id="_183549992" d="m 2239.7571,1661.91 c 0,110.4277 -89.5194,199.947 -199.947,199.947 -110.4277,0 -199.947,-89.5193 -199.947,-199.947 0,-110.4276 89.5193,-199.947 199.947,-199.947 110.4276,0 199.947,89.5194 199.947,199.947 z" fill-rule="evenodd" cx="2039.81" transform="matrix(0.16743524,0,0,0.16743524,-308.06451,727.59209)" class="fil8" cy="1661.91" r="199.947" fill="#699"/>
<circle id="_183549896" stroke-width="7.99961" d="m 2220.5191,1661.91 c 0,99.8029 -80.9062,180.709 -180.709,180.709 -99.8029,0 -180.709,-80.9061 -180.709,-180.709 0,-99.8028 80.9061,-180.709 180.709,-180.709 99.8028,0 180.709,80.9062 180.709,180.709 z" fill-rule="evenodd" cx="2039.81" stroke="#FFF" transform="matrix(0.16743524,0,0,0.16743524,-308.06451,727.59209)" class="fil5 str0" cy="1661.91" r="180.709" fill="#0094ba"/>
<path id="_181987024" d="m14.0022,1015.321c-0.620364-0.7636-0.930655-1.4494-0.930655-2.0579,0-0.6083,0.512988-1.4136,1.538964-2.4156,0.596438-0.5727,1.228673-0.8591,1.896707-0.8591,0.668217,0,1.598671,0.5965,2.791547,1.7895,0.334016,0.4056,0.811207,0.7932,1.431571,1.1631,0.620364,0.3698,1.192876,0.5546,1.717919,0.5546,2.218852,0,3.328278-0.9065,3.328278-2.7197,0-0.5488-0.304163-1.0082-0.912656-1.378-0.608309-0.3698-1.36592-0.6382-2.272431-0.8053-0.906729-0.1669-1.885036-0.4352-2.934738-0.805-1.049903-0.3698-2.028009-0.8053-2.934738-1.3064-0.906528-0.5009-1.664139-1.2944-2.272431-2.3799-0.60851-1.0856-0.912656-2.3918-0.912656-3.9189,0-2.09963,0.781336-3.93067,2.344026-5.49355,1.562874-1.56267,3.692349-2.34402,6.388375-2.34402,1.431571,0,2.737767,0.18491,3.918771,0.55471,1.181005,0.36982,1.998156,0.74556,2.451604,1.12723l0.894656,0.68008c0.739612,0.69176,1.109426,1.27633,1.109426,1.75352s-0.286364,1.13335-0.858859,1.96849c-0.811207,1.19287-1.64634,1.78934-2.505199,1.78934-0.501134,0-1.121498-0.23853-1.86111-0.71572-0.0716-0.0477-0.208641-0.1671-0.411539-0.35794-0.202697-0.19084-0.387613-0.34587-0.554713-0.46532-0.501117-0.31009-1.13928-0.46513-1.914689-0.46513s-1.419516,0.18491-1.932487,0.55471c-0.512988,0.36981-0.769482,0.8828-0.769482,1.539,0,0.6559,0.304163,1.1869,0.912656,1.5925,0.608309,0.4056,1.36592,0.6799,2.272431,0.8231,0.906729,0.1431,1.89689,0.3639,2.970519,0.6621,1.073628,0.2982,2.063806,0.6621,2.970334,1.0916,0.906729,0.4293,1.66434,1.1751,2.272632,2.2366,0.60851,1.0618,0.912656,2.3682,0.912656,3.919s-0.310274,2.9167-0.930454,4.0978c-0.620364,1.181-1.431571,2.0936-2.433604,2.7377-1.932689,1.2647-3.996495,1.8969-6.191421,1.8969-1.121481,0-2.183255-0.1372-3.185288-0.4115-1.002033-0.2745-1.81324-0.6145-2.433604-1.0201-1.264471-0.7635-2.147256-1.5031-2.648373-2.2188l-0.321945-0.3937z" fill-rule="nonzero" class="fil3" fill="#FFF"/>
<path id="_1819870241" d="m53.83504,998.0703c0.620364,1.26447,0.930454,2.67207,0.930454,4.22307,0,1.5509-0.31009,2.9526-0.930454,4.2052-0.620365,1.2526-1.419516,2.2487-2.397824,2.9883-1.980357,1.5269-4.032091,2.2904-6.155622,2.2904h-4.473485v4.0442c0,0.5486-0.018,0.9603-0.0538,1.2346-0.03578,0.2745-0.149101,0.5905-0.339943,0.9484-0.334017,0.6441-1.264455,0.9663-2.791548,0.9663-1.670066,0-2.648373-0.4414-2.934537-1.3242-0.143174-0.4056-0.214769-1.026-0.214769-1.8609v-19.8627c0-0.54878,0.0178-0.96031,0.0536-1.2348,0.0358-0.27429,0.149118-0.59051,0.340145-0.94845,0.334016-0.64409,1.264471-0.96624,2.791363-0.96624h7.658772c2.099605,0,4.139468,0.76354,6.119825,2.29043,0.978308,0.73961,1.777443,1.74185,2.397824,3.00632zm-8.517649,7.37247c0.715686,0,1.419701-0.2625,2.111459-0.7873,0.69196-0.5251,1.037831-1.3124,1.037831-2.3621,0-1.0498-0.345871-1.8431-1.037831-2.37998-0.691758-0.53692-1.407645-0.80526-2.147256-0.80526h-4.473485v6.33464h4.509282z" fill-rule="nonzero" class="fil3" fill="#FFF"/>
<circle id="_183282088" d="m 2274.2691,1776.0699 c 0,43.7294 -35.4497,79.179 -79.179,79.179 -43.7294,0 -79.179,-35.4496 -79.179,-79.179 0,-43.7293 35.4496,-79.179 79.179,-79.179 43.7293,0 79.179,35.4497 79.179,79.179 z" fill-rule="evenodd" cx="2195.09" transform="matrix(0.16743524,0,0,0.16743524,-308.06451,727.59209)" class="fil2" cy="1776.07" r="79.179" fill="#FFF"/>
<path id="_183281944" d="m3.786973,1046.553c0-0.334,0.063291-0.6471,0.190039-0.941,0.128741-0.2919,0.3015844-0.5474,0.5205059-0.7683,0.2189216-0.2189,0.4762026-0.3917,0.7682934-0.5204,0.2918898-0.1268,0.6049435-0.1901,0.9391442-0.1901h3.70283v1.6151h-3.70283c-0.1115286,0-0.21713,0.019-0.3150294,0.062-0.097883,0.04-0.1825211,0.098-0.2554894,0.1709-0.072985,0.073-0.1305325,0.1594-0.1708677,0.2574-0.042328,0.096-0.063475,0.2018-0.063475,0.3149,0,0.1115,0.021147,0.2171,0.063475,0.317,0.040335,0.1,0.097883,0.1863,0.1708677,0.2592,0.072968,0.073,0.1576068,0.1306,0.2554894,0.1709,0.097899,0.042,0.2035008,0.062,0.3150294,0.062h1.615097c0.3342175,0,0.6492469,0.063,0.9431125,0.1902,0.2938656,0.1248,0.5511466,0.2977,0.7700681,0.5166,0.2189216,0.2189,0.3919492,0.4764,0.5187146,0.772,0.124789,0.2939,0.18808,0.607,0.18808,0.9412s-0.06329,0.6472-0.18808,0.9391c-0.1267654,0.2939-0.299793,0.5494-0.5187146,0.7683-0.2189215,0.2209-0.4762025,0.3938-0.7700681,0.5205-0.2938656,0.1288-0.608895,0.192-0.9431125,0.192h-3.583767v-1.6152h3.583767c0.1133202,0,0.2171468-0.021,0.3150294-0.061,0.097883-0.042,0.1825379-0.098,0.257281-0.171,0.073169-0.073,0.128741-0.1594,0.1710686-0.2573,0.040335-0.096,0.061499-0.2017,0.061499-0.315,0-0.1114-0.021164-0.217-0.061499-0.3151-0.042328-0.098-0.097899-0.1823-0.1710686-0.2553-0.074743-0.073-0.1593983-0.1307-0.257281-0.171-0.097883-0.042-0.2017092-0.063-0.3150294-0.063h-1.615097c-0.3342007,0-0.6472544-0.063-0.9391442-0.1902-0.2920908-0.1286-0.5493718-0.3014-0.7682934-0.5205-0.2189215-0.2207-0.3917649-0.4762-0.5205059-0.7721-0.1267485-0.2939-0.190039-0.6087-0.190039-0.9411z" fill-rule="nonzero" class="fil6" fill="#FFF"/>
<polygon id="_1832819441" fill-rule="nonzero" transform="matrix(0.16743524,0,0,0.16743524,-308.06451,727.59209)" class="fil6" points="1940.41,1938.71,1907.38,1938.71,1907.38,1890.52,1940.41,1890.52,1940.41,1900.17,1917.01,1900.17,1917.01,1909.8,1932.84,1909.8,1932.84,1919.45,1917.01,1919.45,1917.01,1929.06,1940.41,1929.06" fill="#FFF"/>
<path id="_18328194412" d="m24.18058,1051.385c-0.374552,0.3189-0.793207,0.5647-1.254173,0.7356-0.460983,0.1691-0.941137,0.2555-1.440479,0.2555-0.382271,0-0.75088-0.05-1.106261-0.1499-0.353389-0.1-0.685631-0.2401-0.992942-0.4224-0.30731-0.1806-0.587731-0.3995-0.843237-0.6512-0.255305-0.2535-0.472452-0.5357-0.652997-0.845-0.180563-0.3091-0.318797-0.6416-0.418656-0.9987-0.09988-0.3554-0.149703-0.726-0.149703-1.1082,0-0.3821,0.04983-0.7509,0.149703-1.1024,0.09986-0.3533,0.238093-0.6838,0.418656-0.9929,0.180545-0.3093,0.397692-0.5917,0.652997-0.8452,0.255506-0.2535,0.535927-0.4685,0.843237-0.6491,0.307311-0.1805,0.639553-0.3207,0.992942-0.4186,0.355381-0.1,0.72399-0.1499,1.106261-0.1499,0.499342,0,0.979496,0.084,1.440479,0.2555,0.460966,0.1709,0.879621,0.4167,1.254173,0.7354l-0.843237,1.4061c-0.243836-0.2478-0.524256-0.4418-0.843053-0.582-0.318981-0.1402-0.654973-0.2112-1.008362-0.2112-0.351413,0-0.683839,0.067-0.992941,0.2015-0.309287,0.1365-0.580029,0.3188-0.812396,0.5494-0.232367,0.2304-0.416864,0.5013-0.551348,0.8104-0.136258,0.3093-0.203484,0.6396-0.203484,0.993,0,0.3573,0.06723,0.6895,0.203484,1.0006,0.134484,0.3131,0.318981,0.584,0.551348,0.8164,0.232367,0.2323,0.503093,0.4166,0.812396,0.5511,0.309102,0.1363,0.641528,0.2035,0.992941,0.2035,0.203501,0,0.399467-0.025,0.591498-0.073,0.19024-0.05,0.372577-0.117,0.545421-0.2035v-2.2951h1.557733v3.1843z" fill-rule="nonzero" class="fil6" fill="#FFF"/>
<path id="_183281944123" d="m31.78884,1048.976c0,0.4475-0.08444,0.8661-0.253531,1.2579-0.169076,0.3918-0.399467,0.7337-0.691357,1.0236-0.29209,0.2921-0.635785,0.5205-1.02755,0.6896s-0.810604,0.2535-1.257941,0.2535c-0.445746,0-0.864401-0.084-1.256166-0.2535-0.391748-0.1691-0.733667-0.3975-1.023582-0.6896-0.29209-0.2899-0.520506-0.6318-0.689582-1.0236-0.169092-0.3918-0.25353-0.8104-0.25353-1.2579v-4.8437h1.609555v4.8437c0,0.2226,0.04211,0.4301,0.126765,0.6241,0.08444,0.196,0.199734,0.3668,0.34567,0.5128,0.145953,0.1459,0.316821,0.2612,0.514763,0.3457,0.195782,0.085,0.40521,0.1267,0.626107,0.1267,0.222673,0,0.432101-0.042,0.627883-0.1267,0.197958-0.084,0.368826-0.1998,0.514762-0.3457,0.145954-0.146,0.26125-0.3168,0.345687-0.5128,0.08464-0.194,0.126765-0.4015,0.126765-0.6241v-4.8437h1.615282v4.8437z" fill-rule="nonzero" class="fil6" fill="#FFF"/>
<polygon id="_1832819441234" fill-rule="nonzero" transform="matrix(0.16743524,0,0,0.16743524,-308.06451,727.59209)" class="fil6" points="2047.77,1938.71,2038.13,1938.71,2038.13,1890.52,2047.77,1890.52" fill="#FFF"/>
<path id="_18328194412345" d="m37.9153,1045.748,0,3.2286,1.615097,0c0.222873,0,0.430309-0.042,0.624316-0.1268,0.195782-0.084,0.366834-0.1997,0.512787-0.3456,0.145953-0.146,0.261048-0.317,0.345687-0.5148,0.08444-0.196,0.126765-0.4052,0.126765-0.6281,0-0.2209-0.04233-0.4301-0.126765-0.6261-0.08464-0.1977-0.199734-0.3688-0.345687-0.5147-0.145953-0.146-0.317005-0.2611-0.512787-0.3457-0.194007-0.084-0.401443-0.1268-0.624316-0.1268h-1.615097zm0,6.4532-1.613305,0,0-8.0683,3.228402,0c0.297817,0,0.582005,0.038,0.856683,0.1151,0.272718,0.077,0.528023,0.1863,0.768092,0.3265,0.238294,0.1402,0.45524,0.3093,0.651223,0.5053,0.197757,0.1977,0.366834,0.4167,0.507044,0.6567,0.14021,0.2401,0.249579,0.4974,0.326499,0.7701,0.07673,0.2747,0.115095,0.5591,0.115095,0.8547,0,0.4438-0.08444,0.8605-0.253514,1.2522-0.168892,0.392-0.399484,0.7357-0.691374,1.0276-0.293865,0.2919-0.635584,0.5224-1.02755,0.6913-0.391748,0.1691-0.808427,0.2536-1.252198,0.2536h-1.615097v1.6152z" fill-rule="nonzero" class="fil6" fill="#FFF"/>
<polygon id="_183281944123456" fill-rule="nonzero" transform="matrix(0.16743524,0,0,0.16743524,-308.06451,727.59209)" class="fil6" points="2134.65,1938.71,2100.91,1938.71,2100.91,1890.52,2110.55,1890.52,2110.55,1929.06,2134.65,1929.06" fill="#FFF"/>
<path id="_1832819441234567" d="m54.93676,1048.976,0-1.6153c0-0.2209-0.04213-0.4301-0.126766-0.6261-0.08444-0.1978-0.199733-0.3689-0.345686-0.5148-0.145937-0.1459-0.316805-0.261-0.514763-0.3457-0.195782-0.084-0.405194-0.1267-0.627882-0.1267-0.220898,0-0.430309,0.042-0.626091,0.1267-0.197959,0.085-0.368826,0.1998-0.514763,0.3457-0.145953,0.1459-0.261249,0.317-0.345687,0.5148-0.08464,0.196-0.126765,0.4052-0.126765,0.6261v1.6153h3.228403zm1.615281,3.2246-1.615281,0,0-1.6153-3.228403,0,0,1.6153-1.609555,0,0-4.8399c0-0.4456,0.08444-0.8642,0.253531-1.256,0.169076-0.3919,0.397491-0.7356,0.689582-1.0275,0.289914-0.2919,0.631833-0.5225,1.023598-0.6914,0.391748-0.1691,0.810404-0.2535,1.25615-0.2535,0.447336,0,0.866192,0.084,1.257941,0.2535,0.391765,0.1689,0.735459,0.3995,1.02755,0.6914,0.291889,0.2919,0.52228,0.6356,0.691373,1.0275,0.169076,0.3918,0.253514,0.8104,0.253514,1.256v4.8399z" fill-rule="nonzero" class="fil6" fill="#FFF"/>
<polygon id="_18328194412345678" fill-rule="nonzero" transform="matrix(0.16743524,0,0,0.16743524,-308.06451,727.59209)" class="fil6" points="2186.04,1938.71,2186.04,1890.52,2196.35,1890.52,2214.93,1922.27,2214.93,1890.52,2224.58,1890.52,2224.58,1938.71,2214.26,1938.71,2195.67,1906.98,2195.67,1938.71" fill="#FFF"/>
<g id="g72" fill-rule="evenodd" transform="matrix(0.16743524,0,0,0.16743524,-308.06451,727.59209)">
<circle id="_183281848" d="M 712.5,0 C 712.5,393.50288 393.50288,712.5 0,712.5 -393.50288,712.5 -712.5,393.50288 -712.5,0 c 0,-393.50288 318.99712,-712.5 712.5,-712.5 393.50288,0 712.5,318.99712 712.5,712.5 z" transform="matrix(0.074549,-0.0604123,0.0604123,0.074549,2197.93,1777.82)" class="fil8" cy="0" cx="0" r="712.5" fill="#699"/>
<circle id="_183281752" d="M 712.5,0 C 712.5,393.50288 393.50288,712.5 0,712.5 -393.50288,712.5 -712.5,393.50288 -712.5,0 c 0,-393.50288 318.99712,-712.5 712.5,-712.5 393.50288,0 712.5,318.99712 712.5,712.5 z" transform="matrix(0.0572329,-0.0463798,0.0463798,0.0572329,2196.91,1778.65)" class="fil2" cy="0" cx="0" r="712.5" fill="#FFF"/>
<path id="_183281584" d="m2258.22,1829.55,47.2169,58.265c11.8843,14.6669-10.2874,32.6339-22.1717,17.9669l-47.2169-58.265c-0.1807-0.222-0.352-0.4465-0.5173-0.6697,4.1846-2.1366,8.2122-4.7362,12.0094-7.813,3.796-3.0767,7.174-6.4783,10.1315-10.1291,0.1842,0.2079,0.3673,0.4229,0.548,0.6449z" fill="#699" class="fil8"/>
<path id="_183281440" d="m2167.63,1746.16c7.6972-6.2374,17.1354-8.9988,26.563-8.5323-5.8949,1.4847-11.5193,4.2118-16.4917,8.2406-19.3571,15.6862-21.5067,45.1122-4.8024,65.7248,1.5414,1.9027,3.1902,3.6614,4.9276,5.2783-5.4047-2.7708-10.3783-6.7252-14.4992-11.811-14.9705-18.4724-13.0441-44.8429,4.3028-58.9004z" fill="#699" class="fil8"/>
</g>
</g>
</svg>
