<?xml version="1.0" encoding="UTF-8" standalone="no"?>
<!-- Created with Inkscape (http://www.inkscape.org/) -->
<svg id="svg3147" xmlns:rdf="http://www.w3.org/1999/02/22-rdf-syntax-ns#" xmlns="http://www.w3.org/2000/svg" height="60.04011" width="60" version="1.1" xmlns:cc="http://creativecommons.org/ns#" xmlns:dc="http://purl.org/dc/elements/1.1/">
<metadata id="metadata3152">
<rdf:RDF>
<cc:Work rdf:about="">
<dc:format>image/svg+xml</dc:format>
<dc:type rdf:resource="http://purl.org/dc/dcmitype/StillImage"/>
<dc:title/>
</cc:Work>
</rdf:RDF>
</metadata>
<g id="layer1" transform="translate(-182.87082,-469.47417)">
<g id="g3934" fill-rule="evenodd">
<path id="_186410288" d="m235.5175,519.161c6.73407-7.76339,9.12465-18.53231,5.99353-28.59498-4.06951-13.07754-16.49684-21.7487-30.21181-21.05288-22.36956,1.12999-34.30932,24.66107-25.53395,42.94627,8.74125,18.36991,34.87655,23.84741,49.75223,6.70159z" class="fil32" fill="#FFF"/>
<path id="_186410024" d="m195.6016,511.8169c4.06425-5.77523,7.83174-8.94102,13.03133-10.36881-11.93014-5.4992-7.66019-21.09627,3.93994-21.42189,0.11029,0,0.22146-0.009,0.33176-0.009h0.0175,0.0175c0.11204,0,0.22234,0,0.33351,0.009,11.60013,0.32562,15.86833,15.92278,3.93995,21.42189,5.19957,1.42779,8.96707,4.59349,13.03132,10.36881-3.67297,4.34952-10.21883,6.98905-16.97127,7.14924v0.009h-0.3519-0.35014v-0.009c-6.75244-0.16027-13.29918-2.79972-16.97126-7.14924z" class="fil11" fill="#0a99c3"/>
</g>
</g>
</svg>
