<?xml version="1.0" encoding="UTF-8" standalone="no"?>
<!-- Created with Inkscape (http://www.inkscape.org/) -->
<svg id="svg3127" xmlns:rdf="http://www.w3.org/1999/02/22-rdf-syntax-ns#" xmlns="http://www.w3.org/2000/svg" height="40" width="40" version="1.1" xmlns:cc="http://creativecommons.org/ns#" xmlns:dc="http://purl.org/dc/elements/1.1/">
<metadata id="metadata3132">
<rdf:RDF>
<cc:Work rdf:about="">
<dc:format>image/svg+xml</dc:format>
<dc:type rdf:resource="http://purl.org/dc/dcmitype/StillImage"/>
<dc:title/>
</cc:Work>
</rdf:RDF>
</metadata>
<g id="layer1" transform="translate(-243.96436,-730.1836)">
<g id="g3139" fill-rule="evenodd" transform="matrix(0.5119987,0,0,0.50693295,114.94734,294.19487)">
<rect id="_286634032" height="78.9059" width="78.1252" y="860.0521" x="251.987" class="fil4" fill="#024059"/>
<path id="_286633912" d="m290.7812,870.4375c-0.41236,0.004-0.835,0.0102-1.25,0.0312-21.66,1.0937-33.21675,23.88895-24.71875,41.59375,8.463,17.7862,33.7845,23.07035,48.1875,6.46875,6.52-7.5177,8.81325-17.9446,5.78125-27.6875-3.81687-12.26689-15.21692-20.515-28-20.40625zm0.25,10.1875,0.0312,0,0.0312,0c0.107,0,0.2045,0.0213,0.3125,0.0312,11.232,0.3154,15.3635,15.4256,3.8125,20.75,5.035,1.3831,8.69,4.43865,12.625,10.03125-3.555,4.2106-9.8995,6.75155-16.4375,6.90625v0.0312h-0.34375-0.34375v-0.0312c-6.539-0.1547-12.8825-2.69565-16.4375-6.90625,3.935-5.5925,7.59-8.64815,12.625-10.03125-11.552-5.3244-7.4205-20.4347,3.8125-20.75,0.106,0,0.2045-0.0312,0.3125-0.0312z" fill="#FFF"/>
</g>
</g>
</svg>
