<?xml version="1.0" encoding="UTF-8" standalone="no"?>
<!-- Created with Inkscape (http://www.inkscape.org/) -->
<svg id="svg3104" xmlns:rdf="http://www.w3.org/1999/02/22-rdf-syntax-ns#" xmlns="http://www.w3.org/2000/svg" height="80" width="80" version="1.1" xmlns:cc="http://creativecommons.org/ns#" xmlns:dc="http://purl.org/dc/elements/1.1/">
<metadata id="metadata3109">
<rdf:RDF>
<cc:Work rdf:about="">
<dc:format>image/svg+xml</dc:format>
<dc:type rdf:resource="http://purl.org/dc/dcmitype/StillImage"/>
<dc:title/>
</cc:Work>
</rdf:RDF>
</metadata>
<g id="layer1" transform="translate(0,-972.36239)">
<path id="path56980" d="m12.00414,1038.108c0,1.1103,0.47783,1.9784,1.048854,2.5859,0.456966,0.4852,1.528935,1.2512,2.383975,1.2512h49.06903c1.063769-0.2422,3.045941-1.3471,3.387361-3.0746,0.199037-1.0046,0.04473-41.97876,0.04473-44.07696-0.504675-0.2509-6.798577-0.1003-7.875764-0.1003v7.26916l-0.605312,0.6058h-39.37658v-7.77456c-0.507657-0.2527-6.98196-0.1004-8.077039-0.1004v43.41476zm42.82805-21.787,7.500053-6.9407-1.269515-1.3727-6.277502,5.8093-2.347447-2.5366-1.222551,1.1314,3.616962,3.9093zm0.152073,19.3851,7.499308-6.9407-1.269515-1.3718-6.277502,5.8084-2.347447-2.5366-1.223297,1.1314,3.618453,3.9093zm-37.1663-4.5353,30.06208,0,0,3.9005-30.06208,0,0-3.9005zm37.1663-5.1578,7.499308-6.9397-1.269515-1.3727-6.277502,5.8093-2.347447-2.5366-1.223297,1.1314,3.618453,3.9083zm-37.1663-4.5343,30.06208,0,0,3.8996-30.06208,0,0-3.8996zm-0.151328-9.693,30.06283,0,0,3.8995-30.06283,0,0-3.8995zm12.30975-22.54516,0,1.414-5.453025,0-0.605312,0.6057,0,7.2691,32.10762,0,0-7.2691-0.606057-0.6057-5.45228,0c0-2.80081,0.02982-5.52761-2.906541-6.78661-1.899426-0.8145-4.492129-1.0883-7.190687-1.09-4.908841,0-9.893719,0.5265-9.893719,6.46261zm10.0197-2.77701c2.299738,0,4.164128,1.8648,4.164128,4.16551,0,2.2997-1.86439,4.1645-4.164128,4.1645-2.301229,0-4.165619-1.8648-4.165619-4.1645,0-2.30071,1.86439-4.16551,4.165619-4.16551z" fill-rule="evenodd" class="fil11" fill="#FFF"/>
</g>
</svg>
