<?xml version="1.0" encoding="UTF-8" standalone="no"?>
<!-- Created with Inkscape (http://www.inkscape.org/) -->
<svg id="svg3127" xmlns:rdf="http://www.w3.org/1999/02/22-rdf-syntax-ns#" xmlns="http://www.w3.org/2000/svg" height="40" width="40" version="1.1" xmlns:cc="http://creativecommons.org/ns#" xmlns:dc="http://purl.org/dc/elements/1.1/">
<metadata id="metadata3132">
<rdf:RDF>
<cc:Work rdf:about="">
<dc:format>image/svg+xml</dc:format>
<dc:type rdf:resource="http://purl.org/dc/dcmitype/StillImage"/>
<dc:title/>
</cc:Work>
</rdf:RDF>
</metadata>
<g id="layer1" transform="translate(-125.43306,-753.02605)">
<g id="g3147" fill-rule="evenodd" transform="matrix(0.5119987,0,0,0.50693295,-108.59469,317.03732)">
<rect id="_286634392" height="78.9059" width="78.1252" y="860.0521" x="457.0866" class="fil4" fill="#024059"/>
<path id="path3020" d="M497,870.3125a29.219,29.219,0,0,0,-30.0625,29.1875,29.219,29.219,0,0,0,58.4375,0,29.219,29.219,0,0,0,-28.375,-29.1875zm-17.34375,10.1875,33,0,0,38-33,0,0-8.875,5.375,0,0,2.96875,22.21875,0,0-26.15625-22.21875,0,0,2.9375-5.375,0,0-8.875zm7.21875,11.53125c3.74729,2.55841,7.49882,5.15108,11.34375,7.5625-3.83891,2.41486-7.69593,4.80971-11.4375,7.375l0.0625-3.5-7.0625-0.0312,0.0312-7.90625,7.09375,0.0312-0.0312-3.53125z" fill="#FFF"/>
</g>
</g>
</svg>
