<?xml version="1.0" encoding="UTF-8" standalone="no"?>
<!-- Created with Inkscape (http://www.inkscape.org/) -->

<svg
   xmlns:dc="http://purl.org/dc/elements/1.1/"
   xmlns:cc="http://creativecommons.org/ns#"
   xmlns:rdf="http://www.w3.org/1999/02/22-rdf-syntax-ns#"
   xmlns:svg="http://www.w3.org/2000/svg"
   xmlns="http://www.w3.org/2000/svg"
   xmlns:sodipodi="http://sodipodi.sourceforge.net/DTD/sodipodi-0.dtd"
   xmlns:inkscape="http://www.inkscape.org/namespaces/inkscape"
   id="svg3127"
   height="40"
   width="40"
   version="1.1"
   sodipodi:docname="salir.svg"
   inkscape:version="0.92.0 r15299">
  <defs
     id="defs10" />
  <sodipodi:namedview
     pagecolor="#ffffff"
     bordercolor="#666666"
     borderopacity="1"
     objecttolerance="10"
     gridtolerance="10"
     guidetolerance="10"
     inkscape:pageopacity="0"
     inkscape:pageshadow="2"
     inkscape:window-width="1366"
     inkscape:window-height="705"
     id="namedview8"
     showgrid="false"
     inkscape:zoom="2.95"
     inkscape:cx="-12.359118"
     inkscape:cy="27.295982"
     inkscape:window-x="-8"
     inkscape:window-y="-8"
     inkscape:window-maximized="1"
     inkscape:current-layer="svg3127" />
  <metadata
     id="metadata3132">
    <rdf:RDF>
      <cc:Work
         rdf:about="">
        <dc:format>image/svg+xml</dc:format>
        <dc:type
           rdf:resource="http://purl.org/dc/dcmitype/StillImage" />
        <dc:title />
      </cc:Work>
    </rdf:RDF>
  </metadata>
  <path
     id="path3020"
     d="M 18.941406,5.2324219 C 17.888675,5.334838 16.841223,5.4990053 15.824384,5.7934197 14.813491,6.0992814 13.82053,6.4783157 12.895155,6.9894735 11.967724,7.4893191 11.080192,8.0730154 10.28733,8.7680653 9.47918,9.441312 8.741407,10.204588 8.1137319,11.049088 c -0.651879,0.823348 -1.201154,1.729388 -1.6412537,2.682655 -0.4655038,0.940189 -0.7974559,1.944251 -1.0346994,2.965306 -0.2512195,1.017985 -0.358357,2.066976 -0.3853438,3.114164 -0.012715,1.044293 0.1132837,2.08344 0.2982755,3.110283 0.2207762,0.970545 0.5225321,1.916253 0.8973364,2.83827 0.4410451,0.953698 0.9409877,1.880744 1.5552592,2.734401 0.6230378,0.846784 1.3103834,1.650961 2.0984745,2.348234 0.7811004,0.706355 1.6280804,1.347212 2.5490574,1.859721 0.908745,0.535221 1.877177,0.976154 2.885287,1.287324 0.999227,0.341848 2.042311,0.558395 3.093344,0.65852 1.049579,0.127788 2.114872,0.113311 3.165606,0.002 1.053426,-0.09679 2.089126,-0.339968 3.097341,-0.656959 1.006493,-0.325195 1.964433,-0.779257 2.890694,-1.287976 0.859995,-0.52014 1.669872,-1.111406 2.434468,-1.763636 0.766569,-0.721306 1.490692,-1.488775 2.109935,-2.341075 0.607992,-0.856076 1.154468,-1.760536 1.566358,-2.727479 0.421594,-0.959305 0.75936,-1.960735 0.952478,-2.991519 0.215268,-1.005333 0.320045,-2.03816 0.307377,-3.065863 -0.02664,-1.047209 -0.131051,-2.096458 -0.381285,-3.11473 -0.238595,-1.019879 -0.569414,-2.023258 -1.034068,-2.962939 -0.44136,-0.951974 -0.985679,-1.860507 -1.6386,-2.682553 C 31.272077,10.212327 30.537197,9.448012 29.72967,8.7758233 28.937774,8.0803058 28.052213,7.4938153 27.123684,6.9966426 26.200344,6.4855148 25.209399,6.1053854 24.200372,5.7995781 23.185242,5.5001638 22.137611,5.3348918 21.084801,5.2362193 c -0.713411,-0.064806 -1.42866,-0.00906 -2.143395,-0.0038 z m 9.509766,5.1328121 V 29.628906 H 11.554688 v -4.498047 h 2.753906 v 1.503907 h 11.375 V 13.375 h -11.375 v 1.490234 h -2.753906 v -4.5 z m -13.26927,7.791016 c -0.989642,0.642311 -1.987739,1.271841 -2.994236,1.888672 1.931528,1.179699 3.875497,2.341192 5.764048,3.58629 l 0.155962,0.101119 0.07846,0.05087 -0.034,-1.773437 3.704292,-0.01563 -0.016,-4.007813 -3.720293,0.01563 0.016,-1.791015 z"
     inkscape:connector-curvature="0"
     style="fill:#ffffff;fill-rule:evenodd;stroke-width:0.50945956"
     sodipodi:nodetypes="cccccccccccccccccccccccccccccccccccccccccccccccccccccccc" />
</svg>
