<?xml version="1.0" encoding="UTF-8" standalone="no"?>
<!-- Created with Inkscape (http://www.inkscape.org/) -->
<svg id="svg3147" xmlns:rdf="http://www.w3.org/1999/02/22-rdf-syntax-ns#" xmlns="http://www.w3.org/2000/svg" height="60" width="60" version="1.1" xmlns:cc="http://creativecommons.org/ns#" xmlns:dc="http://purl.org/dc/elements/1.1/">
<metadata id="metadata3152">
<rdf:RDF>
<cc:Work rdf:about="">
<dc:format>image/svg+xml</dc:format>
<dc:type rdf:resource="http://purl.org/dc/dcmitype/StillImage"/>
<dc:title/>
</cc:Work>
</rdf:RDF>
</metadata>
<g id="layer1" transform="translate(-185.34306,-752.78631)">
<g id="g4030" fill-rule="evenodd" transform="matrix(1.0267292,0,0,1.0267292,-329.26996,-244.16805)">
<path id="path4026" fill="#FFF" d="m559.6539,1000.219a29.219,29.219,0,0,1,-58.438,0,29.219,29.219,0,1,1,58.438,0z"/>
<path id="path4028" fill="#0a99c3" d="m513.9267,981.2248,0,8.87394,5.39828,0,0-2.9611,22.21994,0,0,26.1634-22.21994,0,0-2.9611-5.39828,0,0,8.8739,33.0165,0,0-37.98905-33.0165,0zm7.23669,11.53098,0.014,3.50841-7.06361-0.0281-0.0327,7.90565,7.04957,0.028-0.0561,3.5084c3.74157-2.5653,7.58448-4.9669,11.42339-7.3817-3.84493-2.41144-7.58722-4.98236-11.33451-7.54077z"/>
</g>
</g>
</svg>
