<?xml version="1.0" encoding="UTF-8" standalone="no"?>
<!-- Created with Inkscape (http://www.inkscape.org/) -->
<svg id="svg3104" xmlns:rdf="http://www.w3.org/1999/02/22-rdf-syntax-ns#" xmlns="http://www.w3.org/2000/svg" height="80" width="80" version="1.1" xmlns:cc="http://creativecommons.org/ns#" xmlns:dc="http://purl.org/dc/elements/1.1/">
<metadata id="metadata3109">
<rdf:RDF>
<cc:Work rdf:about="">
<dc:format>image/svg+xml</dc:format>
<dc:type rdf:resource="http://purl.org/dc/dcmitype/StillImage"/>
<dc:title/>
</cc:Work>
</rdf:RDF>
</metadata>
<g id="layer1" transform="translate(0,-972.36239)">
<path id="path56440" d="m27.76205,1012.364c-3.59937,0.112-6.54665,1.5356-8.84022,4.2664h-4.46829c-1.82298,0-3.35764-0.4505-4.5992-1.3517-1.24876-0.8953-1.86874-2.2157-1.86874-3.9466,0-7.8462,1.37808-11.77301,4.13582-11.77301,0.13089,0,0.61355,0.23522,1.45034,0.69901,0.83601,0.4639,1.91373,0.941,3.25325,1.4181,1.3331,0.4761,2.65898,0.718,3.96557,0.718,1.48969,0,2.96655-0.2542,4.43617-0.7645-0.1108,0.8233-0.17026,1.5556-0.17026,2.2024,0,3.0836,0.90266,5.932,2.70556,8.5319zm35.71099,21.2409c0,2.6652-0.80949,4.7758-2.43652,6.317-1.61979,1.5423-3.77605,2.3201-6.46795,2.3201h-29.14588c-2.69189,0-4.84733-0.7711-6.46793-2.3201-1.6198-1.5479-2.43652-3.6518-2.43652-6.317,0-1.1761,0.0401-2.3258,0.11804-3.4498,0.0803-1.1239,0.2353-2.3323,0.46338-3.6328,0.2353-1.3004,0.52922-2.5087,0.88258-3.6194,0.35254-1.1107,0.83519-2.1949,1.43026-3.2535,0.60151-1.0585,1.28733-1.9538,2.0647-2.6985,0.77658-0.7445,1.73143-1.3393,2.8485-1.7841,1.1235-0.4439,2.36424-0.6658,3.71742-0.6658,0.22165,0,0.69867,0.2418,1.43108,0.7189,0.73159,0.4761,1.54109,1.0121,2.43652,1.6001,0.88899,0.5881,2.07754,1.1241,3.56724,1.6011,1.48969,0.4771,2.99305,0.718,4.50202,0.718,1.50896,0,3.01151-0.2409,4.50122-0.718,1.48969-0.477,2.67904-1.013,3.56644-1.6011,0.889-0.588,1.6993-1.124,2.43812-1.6001,0.7308-0.4771,1.20782-0.7189,1.43027-0.7189,1.3588,0,2.59393,0.2219,3.71822,0.6658,1.1227,0.4448,2.07032,1.0396,2.8485,1.7841,0.77657,0.7447,1.46962,1.6467,2.0639,2.6985,0.6007,1.0586,1.07852,2.1428,1.43107,3.2535s0.65369,2.319,0.88177,3.6194c0.2353,1.3005,0.3919,2.5155,0.46418,3.6328,0.11081,1.124,0.14937,2.2737,0.14937,3.4498zm-34.14341-42.5853c0,2.35894-0.83599,4.37071-2.50156,6.03726-1.66557,1.66552-3.67887,2.50223-6.03749,2.50223-2.35782,0-4.37112-0.83671-6.03669-2.50223-1.66638-1.66655-2.50158-3.67832-2.50158-6.03726,0-2.35895,0.8352-4.37072,2.50158-6.03726,1.66557-1.66556,3.67887-2.50221,6.03669-2.50221,2.35862,0,4.37192,0.83665,6.03749,2.50221,1.66557,1.67313,2.50156,3.68498,2.50156,6.03726zm23.4746,12.8059c0,3.5341-1.24798,6.5532-3.75035,9.0554-2.50156,2.5022-5.52031,3.7495-9.05543,3.7495-3.53352,0-6.55227-1.2473-9.05383-3.7495-2.50318-2.5031-3.75035-5.5213-3.75035-9.0554,0-3.5352,1.24717-6.55332,3.75035-9.05543,2.50156-2.50222,5.52031-3.75047,9.05383-3.75047,3.53512,0,6.55387,1.24825,9.05543,3.75047,2.50237,2.50211,3.75035,5.52023,3.75035,9.05543zm19.20867,7.5064c0,1.732-0.61997,3.0514-1.86874,3.9525-1.24798,0.902-2.77622,1.3525-4.5992,1.3525h-4.46909c-2.28635-2.7373-5.23281-4.1554-8.83941-4.2663,1.8029-2.5999,2.69832-5.4482,2.69832-8.5386,0-0.6469-0.0563-1.379-0.17026-2.2024,1.46963,0.5104,2.94648,0.7646,4.43618,0.7646,1.31382,0,2.63246-0.242,3.96637-0.7181,1.3323-0.4771,2.41644-0.9476,3.25324-1.4181,0.836-0.46369,1.31945-0.69891,1.45035-0.69891,2.76417,0,4.14224,3.92681,4.14224,11.77281zm-4.26671-20.3123c0,2.35894-0.83601,4.37083-2.50157,6.03738-1.66558,1.66552-3.67888,2.50211-6.0375,2.50211-2.35782,0-4.37112-0.83659-6.03669-2.50211-1.66638-1.66655-2.50156-3.67844-2.50156-6.03738,0-2.35895,0.83518-4.37072,2.50156-6.03726,1.66557-1.66556,3.67887-2.50213,6.03669-2.50213,2.35862,0,4.37192,0.83657,6.0375,2.50213,1.66556,1.67321,2.50157,3.68498,2.50157,6.03726z" fill-rule="evenodd" class="fil11" fill="#FFF"/>
</g>
</svg>
